<?xml version="1.0" encoding="us-ascii" standalone="no"?><svg xmlns="http://www.w3.org/2000/svg" xmlns:xlink="http://www.w3.org/1999/xlink" contentStyleType="text/css" height="1857.2917px" preserveAspectRatio="none" style="width:1270px;height:1857px;" version="1.1" viewBox="0 0 1270 1857" width="1270.8333px" zoomAndPan="magnify"><defs><linearGradient id="g13uj9lsul79c00" x1="50%" x2="50%" y1="0%" y2="100%"><stop offset="0%" stop-color="#FFFFFF"/><stop offset="100%" stop-color="#FFFFFF"/></linearGradient><filter height="300%" id="f13uj9lsul79c0" width="300%" x="-1" y="-1"><feGaussianBlur result="blurOut" stdDeviation="2.0833333333333335"/><feColorMatrix in="blurOut" result="blurOut2" type="matrix" values="0 0 0 0 0 0 0 0 0 0 0 0 0 0 0 0 0 0 .4 0"/><feOffset dx="4.166666666666667" dy="4.166666666666667" in="blurOut2" result="blurOut3"/><feBlend in="SourceGraphic" in2="blurOut3" mode="normal"/></filter><linearGradient id="g13uj9lsul79c01" x1="50%" x2="50%" y1="0%" y2="100%"><stop offset="0%" stop-color="#4DABF5"/><stop offset="100%" stop-color="#2196F3"/></linearGradient><linearGradient id="g13uj9lsul79c02" x1="50%" x2="50%" y1="0%" y2="100%"><stop offset="0%" stop-color="#B052C0"/><stop offset="100%" stop-color="#9C27B0"/></linearGradient></defs><g><rect fill="url(#g13uj9lsul79c00)" height="61.1847" id="_title" rx="4.1667" ry="4.1667" style="stroke:#CCCCCC;stroke-width:1.0416666666666667;" width="911.4583" x="175" y="20.8333"/><text fill="#2196F3" font-family="Verdana" font-size="22.9167" font-weight="bold" lengthAdjust="spacing" textLength="878.125" x="191.6667" y="60.5398">Diagramme de Cas d'Utilisation - Plateforme d'Analyse d'Entretiens</text><!--cluster Syst?me--><g id="cluster_Syst&#232;me"><path d="M206.25,206.6014 L284.375,206.6014 A6.25,6.25 0 0 1 288.5417,210.768 L295.8333,248.8763 L1254.1667,248.8763 A4.1667,4.1667 0 0 1 1258.3333,253.043 L1258.3333,1511.8097 A4.1667,4.1667 0 0 1 1254.1667,1515.9764 L206.25,1515.9764 A4.1667,4.1667 0 0 1 202.0833,1511.8097 L202.0833,210.768 A4.1667,4.1667 0 0 1 206.25,206.6014 " fill="url(#g13uj9lsul79c00)" filter="url(#f13uj9lsul79c0)" style="stroke:#2196F3;stroke-width:2.0833333333333335;"/><line style="stroke:#2196F3;stroke-width:2.0833333333333335;" x1="202.0833" x2="295.8333" y1="248.8763" y2="248.8763"/><text fill="#FFFFFF" font-family="Verdana" font-size="12.5" font-weight="bold" lengthAdjust="spacing" textLength="59.375" x="216.6667" y="231.6685">Syst&#232;me</text></g><g id="elem_S'Authentifier"><ellipse cx="1063.4381" cy="767.0683" fill="url(#g13uj9lsul79c01)" filter="url(#f13uj9lsul79c0)" rx="137.9172" ry="37.5503" style="stroke:#005F73;stroke-width:2.0833333333333335;"/><text fill="#FFFFFF" font-family="Verdana" font-size="22.9167" lengthAdjust="spacing" textLength="157.2917" x="984.7922" y="774.099">S'Authentifier</text></g><g id="elem_G&#233;rer son Profil"><ellipse cx="472.7454" cy="534.7766" fill="url(#g13uj9lsul79c01)" filter="url(#f13uj9lsul79c0)" rx="151.9121" ry="37.5503" style="stroke:#005F73;stroke-width:2.0833333333333335;"/><text fill="#FFFFFF" font-family="Verdana" font-size="22.9167" lengthAdjust="spacing" textLength="177.0833" x="384.2037" y="541.8074">G&#233;rer son Profil</text></g><g id="elem_Passer un Entretien"><ellipse cx="472.9308" cy="300.3542" fill="url(#g13uj9lsul79c01)" filter="url(#f13uj9lsul79c0)" rx="180.2224" ry="38.5445" style="stroke:#005F73;stroke-width:2.0833333333333335;"/><text fill="#FFFFFF" font-family="Verdana" font-size="22.9167" lengthAdjust="spacing" textLength="223.9583" x="360.9516" y="307.3849">Passer un Entretien</text></g><g id="elem_Consulter son Feedback"><ellipse cx="472.6876" cy="418.118" fill="url(#g13uj9lsul79c01)" filter="url(#f13uj9lsul79c0)" rx="198.7292" ry="42.2458" style="stroke:#005F73;stroke-width:2.0833333333333335;"/><text fill="#FFFFFF" font-family="Verdana" font-size="22.9167" lengthAdjust="spacing" textLength="272.9167" x="336.2292" y="425.1488">Consulter son Feedback</text></g><g id="elem_G&#233;rer les Sessions d'Entretien"><ellipse cx="472.8516" cy="1451.4842" fill="url(#g13uj9lsul79c01)" filter="url(#f13uj9lsul79c0)" rx="227.5391" ry="48.0078" style="stroke:#005F73;stroke-width:2.0833333333333335;"/><text fill="#FFFFFF" font-family="Verdana" font-size="22.9167" lengthAdjust="spacing" textLength="343.75" x="300.9766" y="1458.5149">G&#233;rer les Sessions d'Entretien</text></g><g id="elem_Consulter un Rapport D&#233;taill&#233;"><ellipse cx="472.6667" cy="1164.6764" fill="url(#g13uj9lsul79c01)" filter="url(#f13uj9lsul79c0)" rx="225.7917" ry="47.6583" style="stroke:#005F73;stroke-width:2.0833333333333335;"/><text fill="#FFFFFF" font-family="Verdana" font-size="22.9167" lengthAdjust="spacing" textLength="339.5833" x="302.875" y="1171.7071">Consulter un Rapport D&#233;taill&#233;</text></g><g id="elem_G&#233;rer sa Biblioth&#232;que de Questions"><ellipse cx="472.6607" cy="1027.5918" fill="url(#g13uj9lsul79c01)" filter="url(#f13uj9lsul79c0)" rx="253.9107" ry="53.2821" style="stroke:#005F73;stroke-width:2.0833333333333335;"/><text fill="#FFFFFF" font-family="Verdana" font-size="22.9167" lengthAdjust="spacing" textLength="405.2083" x="270.0565" y="1034.6226">G&#233;rer sa Biblioth&#232;que de Questions</text></g><g id="elem_G&#233;rer les Utilisateurs"><ellipse cx="472.9555" cy="648.38" fill="url(#g13uj9lsul79c01)" filter="url(#f13uj9lsul79c0)" rx="185.9764" ry="39.6953" style="stroke:#005F73;stroke-width:2.0833333333333335;"/><text fill="#FFFFFF" font-family="Verdana" font-size="22.9167" lengthAdjust="spacing" textLength="239.5833" x="353.1639" y="655.4107">G&#233;rer les Utilisateurs</text></g><g id="elem_Configurer les Profils IA"><ellipse cx="472.9149" cy="766.9135" fill="url(#g13uj9lsul79c01)" filter="url(#f13uj9lsul79c0)" rx="197.9149" ry="42.083" style="stroke:#005F73;stroke-width:2.0833333333333335;"/><text fill="#FFFFFF" font-family="Verdana" font-size="22.9167" lengthAdjust="spacing" textLength="270.8333" x="337.4982" y="773.9442">Configurer les Profils IA</text></g><g id="elem_Superviser Tout le Contenu"><ellipse cx="472.726" cy="891.7716" fill="url(#g13uj9lsul79c01)" filter="url(#f13uj9lsul79c0)" rx="215.4343" ry="45.5869" style="stroke:#005F73;stroke-width:2.0833333333333335;"/><text fill="#FFFFFF" font-family="Verdana" font-size="22.9167" lengthAdjust="spacing" textLength="314.5833" x="315.4343" y="898.8023">Superviser Tout le Contenu</text></g><g id="elem_RunAnalysis"><ellipse cx="1063.7565" cy="1165.0818" fill="url(#g13uj9lsul79c01)" filter="url(#f13uj9lsul79c0)" rx="178.3399" ry="38.168" style="stroke:#005F73;stroke-width:2.0833333333333335;"/><text fill="#FFFFFF" font-family="Verdana" font-size="22.9167" lengthAdjust="spacing" textLength="218.75" x="954.3815" y="1172.1126">Lancer l'Analyse IA</text></g><g id="elem_ValidateReport"><ellipse cx="473.0526" cy="1328.3994" fill="url(#g13uj9lsul79c01)" filter="url(#f13uj9lsul79c0)" rx="177.2193" ry="37.9439" style="stroke:#005F73;stroke-width:2.0833333333333335;"/><text fill="#FFFFFF" font-family="Verdana" font-size="22.9167" lengthAdjust="spacing" textLength="215.625" x="365.2401" y="1335.4301">Valider un Rapport</text></g><!--entity Candidat--><g id="elem_Candidat"><ellipse cx="79.6875" cy="152.9555" fill="url(#g13uj9lsul79c01)" filter="url(#f13uj9lsul79c0)" rx="8.3333" ry="8.3333" style="stroke:#005F73;stroke-width:1.0416666666666667;"/><path d="M79.6875,161.2889 L79.6875,189.4139 M66.1458,169.6222 L93.2292,169.6222 M79.6875,189.4139 L66.1458,205.0389 M79.6875,189.4139 L93.2292,205.0389 " fill="none" filter="url(#f13uj9lsul79c0)" style="stroke:#005F73;stroke-width:1.0416666666666667;"/><text fill="#222222" font-family="Verdana" font-size="16.6667" lengthAdjust="spacing" textLength="76.0417" x="41.6667" y="237.42">Candidat</text></g><!--entity Recruteur--><g id="elem_Recruteur"><ellipse cx="79.6875" cy="1120.6639" fill="url(#g13uj9lsul79c01)" filter="url(#f13uj9lsul79c0)" rx="8.3333" ry="8.3333" style="stroke:#005F73;stroke-width:1.0416666666666667;"/><path d="M79.6875,1128.9972 L79.6875,1157.1222 M66.1458,1137.3305 L93.2292,1137.3305 M79.6875,1157.1222 L66.1458,1172.7472 M79.6875,1157.1222 L93.2292,1172.7472 " fill="none" filter="url(#f13uj9lsul79c0)" style="stroke:#005F73;stroke-width:1.0416666666666667;"/><text fill="#222222" font-family="Verdana" font-size="16.6667" lengthAdjust="spacing" textLength="81.25" x="39.0625" y="1205.1284">Recruteur</text></g><!--entity Administrateur--><g id="elem_Administrateur"><ellipse cx="79.6875" cy="603.9972" fill="url(#g13uj9lsul79c01)" filter="url(#f13uj9lsul79c0)" rx="8.3333" ry="8.3333" style="stroke:#005F73;stroke-width:1.0416666666666667;"/><path d="M79.6875,612.3305 L79.6875,640.4555 M66.1458,620.6639 L93.2292,620.6639 M79.6875,640.4555 L66.1458,656.0805 M79.6875,640.4555 L93.2292,656.0805 " fill="none" filter="url(#f13uj9lsul79c0)" style="stroke:#005F73;stroke-width:1.0416666666666667;"/><text fill="#222222" font-family="Verdana" font-size="16.6667" lengthAdjust="spacing" textLength="126.0417" x="16.6667" y="688.4617">Administrateur</text></g><g id="elem_N1"><path d="M948.4375,1662.3305 L948.4375,1742.2159 A4.1667,4.1667 0 0 0 952.6042,1746.3825 L1174.4792,1746.3825 A4.1667,4.1667 0 0 0 1178.6458,1742.2159 L1178.6458,1668.5805 L1168.2292,1658.1639 L952.6042,1658.1639 A4.1667,4.1667 0 0 0 948.4375,1662.3305 " fill="url(#g13uj9lsul79c02)" filter="url(#f13uj9lsul79c0)" style="stroke:#9C27B0;stroke-width:1.0416666666666667;"/><path d="M1168.2292,1658.1639 L1168.2292,1666.4972 A2.0833,2.0833 0 0 0 1170.3125,1668.5805 L1178.6458,1668.5805 L1168.2292,1658.1639 " fill="url(#g13uj9lsul79c02)" style="stroke:#9C27B0;stroke-width:1.0416666666666667;"/><text fill="#FFFFFF" font-family="Verdana" font-size="15.625" lengthAdjust="spacing" textLength="187.5" x="965.1042" y="1689.4978">Ce cas d'utilisation inclut</text><text fill="#FFFFFF" font-family="Verdana" font-size="15.625" lengthAdjust="spacing" textLength="151.0417" x="965.1042" y="1708.4873">- Cr&#233;er une session</text><text fill="#FFFFFF" font-family="Verdana" font-size="15.625" lengthAdjust="spacing" textLength="129.1667" x="965.1042" y="1727.4769">- Suivre le statut</text></g><g id="elem_N2"><path d="M929.1667,1537.3305 L929.1667,1617.2159 A4.1667,4.1667 0 0 0 933.3333,1621.3825 L1193.75,1621.3825 A4.1667,4.1667 0 0 0 1197.9167,1617.2159 L1197.9167,1543.5805 L1187.5,1533.1639 L933.3333,1533.1639 A4.1667,4.1667 0 0 0 929.1667,1537.3305 " fill="url(#g13uj9lsul79c02)" filter="url(#f13uj9lsul79c0)" style="stroke:#9C27B0;stroke-width:1.0416666666666667;"/><path d="M1187.5,1533.1639 L1187.5,1541.4972 A2.0833,2.0833 0 0 0 1189.5833,1543.5805 L1197.9167,1543.5805 L1187.5,1533.1639 " fill="url(#g13uj9lsul79c02)" style="stroke:#9C27B0;stroke-width:1.0416666666666667;"/><text fill="#FFFFFF" font-family="Verdana" font-size="15.625" lengthAdjust="spacing" textLength="187.5" x="945.8333" y="1564.4978">Ce cas d'utilisation inclut</text><text fill="#FFFFFF" font-family="Verdana" font-size="15.625" lengthAdjust="spacing" textLength="130.2083" x="945.8333" y="1583.4873">- Voir l'historique</text><text fill="#FFFFFF" font-family="Verdana" font-size="15.625" lengthAdjust="spacing" textLength="226.0417" x="945.8333" y="1602.4769">- Acc&#233;der &#224; la relecture vid&#233;o</text></g><!--link Candidat to Passer un Entretien--><g id="link_Candidat_Passer un Entretien"><path d="M128.1979,194.3826 C146.2396,194.1743 166.8958,194.9764 185.4167,198.268 C259.2292,211.4034 339.2917,241.3722 395.9583,265.4659 " fill="none" id="Candidat-Passer un Entretien" style="stroke:#005F73;stroke-width:3.125;"/></g><!--link Candidat to Consulter son Feedback--><g id="link_Candidat_Consulter son Feedback"><path d="M128.1771,205.4451 C149.1354,211.6118 172.0208,222.3409 185.4167,240.9764 C200.4583,261.893 176.9063,337.1118 193.75,356.6014 C215.8958,382.2264 246.1042,398.5493 278.4792,408.6951 " fill="none" id="Candidat-Consulter son Feedback" style="stroke:#005F73;stroke-width:3.125;"/></g><!--link Candidat to G?rer son Profil--><g id="link_Candidat_G&#233;rer son Profil"><path d="M87.0104,250.893 C97.4688,315.0701 124.6875,420.9972 193.75,478.4764 C229.3438,508.1014 276.2917,523.5493 321.4688,531.2472 " fill="none" id="Candidat-G&#233;rer son Profil" style="stroke:#005F73;stroke-width:3.125;"/></g><!--link Candidat to S'Authentifier--><g id="link_Candidat_S'Authentifier"><path d="M128.3229,180.1222 C146.0104,175.1639 166.4063,171.0909 185.4167,171.1847 C426.1667,172.3409 496.5313,107.0597 727.0833,176.393 C967.8958,248.8097 1040.2604,610.4139 1057.7083,729.1639 " fill="none" id="Candidat-S'Authentifier" style="stroke:#005F73;stroke-width:3.125;"/></g><!--link Recruteur to G?rer les Sessions d'Entretien--><g id="link_Recruteur_G&#233;rer les Sessions d'Entretien"><path d="M94.4375,1218.9764 C110.0625,1269.4243 140.5938,1342.9972 193.75,1384.7264 C217.8646,1403.6639 246.5313,1417.3409 276.1458,1427.1951 " fill="none" id="Recruteur-G&#233;rer les Sessions d'Entretien" style="stroke:#005F73;stroke-width:3.125;"/></g><!--link Recruteur to Consulter un Rapport D?taill?--><g id="link_Recruteur_Consulter un Rapport D&#233;taill&#233;"><path d="M131.0625,1164.9347 C161.7083,1164.9347 203.2396,1164.9347 246.7708,1164.9347 " fill="none" id="Recruteur-Consulter un Rapport D&#233;taill&#233;" style="stroke:#005F73;stroke-width:3.125;"/></g><!--link Recruteur to G?rer sa Biblioth?que de Questions--><g id="link_Recruteur_G&#233;rer sa Biblioth&#232;que de Questions"><path d="M130.8958,1131.2055 C149.9583,1119.5076 172.2708,1107.1222 193.75,1098.268 C225.0729,1085.3514 259.375,1074.2993 292.875,1065.0284 " fill="none" id="Recruteur-G&#233;rer sa Biblioth&#232;que de Questions" style="stroke:#005F73;stroke-width:3.125;"/></g><!--link Recruteur to G?rer son Profil--><g id="link_Recruteur_G&#233;rer son Profil"><path d="M89.6875,1110.8409 C113.0417,971.2576 175.1979,608.518 193.75,589.9347 C227.1354,556.4868 274.5938,540.3618 320.875,533.268 " fill="none" id="Recruteur-G&#233;rer son Profil" style="stroke:#005F73;stroke-width:3.125;"/></g><!--link Recruteur to S'Authentifier--><g id="link_Recruteur_S'Authentifier"><path d="M79.9271,1218.5909 C82,1298.8514 99.2188,1448.0805 193.75,1517.018 C385.2708,1656.6847 511.6771,1615.9451 727.0833,1517.018 C805.8438,1480.8514 819.25,1448.4347 854.1667,1369.1014 C901.125,1262.4034 851.1042,1220.0909 885.4167,1108.6847 C921.8021,990.5597 998.0729,864.7368 1037.5833,804.0284 " fill="none" id="Recruteur-S'Authentifier" style="stroke:#005F73;stroke-width:3.125;"/></g><!--link Administrateur to G?rer les Utilisateurs--><g id="link_Administrateur_G&#233;rer les Utilisateurs"><path d="M153.3854,648.268 C191.2708,648.268 239.5104,648.268 286.9167,648.268 " fill="none" id="Administrateur-G&#233;rer les Utilisateurs" style="stroke:#005F73;stroke-width:3.125;"/></g><!--link Administrateur to Configurer les Profils IA--><g id="link_Administrateur_Configurer les Profils IA"><path d="M153.4167,688.4659 C166.5833,694.7784 180.3854,700.7784 193.75,705.5597 C233.4479,719.7472 277.5417,731.3097 318.7188,740.4034 " fill="none" id="Administrateur-Configurer les Profils IA" style="stroke:#005F73;stroke-width:3.125;"/></g><!--link Administrateur to Superviser Tout le Contenu--><g id="link_Administrateur_Superviser Tout le Contenu"><path d="M101.3438,702.2576 C119.5938,742.7889 150.1354,796.4243 193.75,827.4347 C220.6146,846.5389 252.2917,860.0701 284.4688,869.643 " fill="none" id="Administrateur-Superviser Tout le Contenu" style="stroke:#005F73;stroke-width:3.125;"/></g><!--link Administrateur to G?rer son Profil--><g id="link_Administrateur_G&#233;rer son Profil"><path d="M153.2708,607.0701 C166.4583,600.6639 180.3021,594.6326 193.75,589.9347 C240.3333,573.6534 293.0938,561.6534 340.0313,553.0909 " fill="none" id="Administrateur-G&#233;rer son Profil" style="stroke:#005F73;stroke-width:3.125;"/></g><!--link Administrateur to S'Authentifier--><g id="link_Administrateur_S'Authentifier"><path d="M87.6979,594.4659 C101.8854,494.3409 137.6146,285.6743 193.75,243.0597 C382.5417,99.7264 499.375,177.2055 727.0833,243.0597 C945.4896,306.2159 1031.5,619.768 1055.1771,729.2368 " fill="none" id="Administrateur-S'Authentifier" style="stroke:#005F73;stroke-width:3.125;"/></g><!--link Passer un Entretien to S'Authentifier--><g id="link_Passer un Entretien_S'Authentifier"><path d="M618.9583,323.1014 C655.1667,331.4868 693.2813,342.7264 727.0833,357.643 C790.0625,385.4347 806.2917,396.7264 854.1667,446.1847 C940.7708,535.6639 1009.4516,660.5962 1041.5141,724.0337 " fill="none" id="Passer un Entretien-to-S'Authentifier" style="stroke:#005F73;stroke-width:3.125;stroke-dasharray:7.0,7.0;"/><polygon fill="#005F73" points="1044.3333,729.6118,1043.8232,719.3652,1041.984,724.9634,1036.3858,723.1242,1044.3333,729.6118" style="stroke:#005F73;stroke-width:3.125;"/><text fill="#222222" font-family="Verdana" font-size="15.625" lengthAdjust="spacing" textLength="72.9167" x="769.7917" y="358.7686">&#171;include&#187;</text></g><!--link Consulter son Feedback to S'Authentifier--><g id="link_Consulter son Feedback_S'Authentifier"><path d="M632.0521,443.5389 C664.5104,452.1118 697.7188,463.4659 727.0833,478.4764 C855.3333,544.0076 971.4945,663.6677 1026.6924,725.5114 " fill="none" id="Consulter son Feedback-to-S'Authentifier" style="stroke:#005F73;stroke-width:3.125;stroke-dasharray:7.0,7.0;"/><polygon fill="#005F73" points="1030.8542,730.1743,1027.7201,720.4055,1027.386,726.2886,1021.5029,725.9545,1030.8542,730.1743" style="stroke:#005F73;stroke-width:3.125;"/><text fill="#222222" font-family="Verdana" font-size="15.625" lengthAdjust="spacing" textLength="72.9167" x="769.7917" y="481.6853">&#171;include&#187;</text></g><!--link G?rer les Sessions d'Entretien to S'Authentifier--><g id="link_G&#233;rer les Sessions d'Entretien_S'Authentifier"><path d="M650.4688,1421.3514 C677.4688,1412.2055 704,1400.2784 727.0833,1384.7264 C805.25,1332.0597 811.9583,1299.2159 854.1667,1214.9347 C876.2083,1170.9243 867.0625,1154.3618 885.4167,1108.6847 C931.625,993.6847 1000.6843,871.3421 1036.9552,809.7066 " fill="none" id="G&#233;rer les Sessions d'Entretien-to-S'Authentifier" style="stroke:#005F73;stroke-width:3.125;stroke-dasharray:7.0,7.0;"/><polygon fill="#005F73" points="1040.125,804.3201,1031.7792,810.2867,1037.4835,808.8089,1038.9613,814.5131,1040.125,804.3201" style="stroke:#005F73;stroke-width:3.125;"/><text fill="#222222" font-family="Verdana" font-size="15.625" lengthAdjust="spacing" textLength="72.9167" x="769.7917" y="1200.4353">&#171;include&#187;</text></g><!--link Consulter un Rapport D?taill? to S'Authentifier--><g id="link_Consulter un Rapport D&#233;taill&#233;_S'Authentifier"><path d="M639.9688,1132.5389 C669.8542,1123.5701 700.0625,1112.3097 727.0833,1098.268 C867.2396,1025.4243 983.0624,879.2194 1033.3749,809.1673 " fill="none" id="Consulter un Rapport D&#233;taill&#233;-to-S'Authentifier" style="stroke:#005F73;stroke-width:3.125;stroke-dasharray:7.0,7.0;"/><polygon fill="#005F73" points="1037.0208,804.0909,1028.1677,809.2749,1033.9826,808.3213,1034.9362,814.1361,1037.0208,804.0909" style="stroke:#005F73;stroke-width:3.125;"/><text fill="#222222" font-family="Verdana" font-size="15.625" lengthAdjust="spacing" textLength="72.9167" x="769.7917" y="996.2686">&#171;include&#187;</text></g><!--link G?rer sa Biblioth?que de Questions to S'Authentifier--><g id="link_G&#233;rer sa Biblioth&#232;que de Questions_S'Authentifier"><path d="M637.1146,986.8097 C667.4167,977.6639 698.5208,967.1743 727.0833,955.5597 C786.5729,931.3618 798.0833,918.0909 854.1667,886.8097 C905.1771,858.3514 957.2942,828.3355 998.9504,804.1271 " fill="none" id="G&#233;rer sa Biblioth&#232;que de Questions-to-S'Authentifier" style="stroke:#005F73;stroke-width:3.125;stroke-dasharray:7.0,7.0;"/><polygon fill="#005F73" points="1004.3542,800.9868,994.155,802.0948,999.851,803.6037,998.3421,809.2998,1004.3542,800.9868" style="stroke:#005F73;stroke-width:3.125;"/><text fill="#222222" font-family="Verdana" font-size="15.625" lengthAdjust="spacing" textLength="72.9167" x="769.7917" y="872.3103">&#171;include&#187;</text></g><!--link G?rer les Utilisateurs to S'Authentifier--><g id="link_G&#233;rer les Utilisateurs_S'Authentifier"><path d="M619.6771,672.6222 C690.6146,684.9868 777.0313,700.7993 854.1667,717.018 C889.3854,724.4243 921.6658,731.8987 955.7595,740.1696 " fill="none" id="G&#233;rer les Utilisateurs-to-S'Authentifier" style="stroke:#005F73;stroke-width:3.125;stroke-dasharray:7.0,7.0;"/><polygon fill="#005F73" points="961.8333,741.643,953.7049,735.3836,956.7718,740.4151,951.7403,743.4821,961.8333,741.643" style="stroke:#005F73;stroke-width:3.125;"/><text fill="#222222" font-family="Verdana" font-size="15.625" lengthAdjust="spacing" textLength="72.9167" x="769.7917" y="684.8103">&#171;include&#187;</text></g><!--link Configurer les Profils IA to S'Authentifier--><g id="link_Configurer les Profils IA_S'Authentifier"><path d="M671.1667,767.018 C754.5104,767.018 843.3021,767.018 918.8542,767.018 " fill="none" id="Configurer les Profils IA-to-S'Authentifier" style="stroke:#005F73;stroke-width:3.125;stroke-dasharray:7.0,7.0;"/><polygon fill="#005F73" points="925.1042,767.018,915.7292,762.8514,919.8958,767.018,915.7292,771.1847,925.1042,767.018" style="stroke:#005F73;stroke-width:3.125;"/><text fill="#222222" font-family="Verdana" font-size="15.625" lengthAdjust="spacing" textLength="72.9167" x="769.7917" y="752.5186">&#171;include&#187;</text></g><!--link Superviser Tout le Contenu to S'Authentifier--><g id="link_Superviser Tout le Contenu_S'Authentifier"><path d="M635.2083,861.7159 C702.9583,848.5909 782.5208,832.6743 854.1667,817.018 C889.1458,809.3722 921.1962,801.8841 955.1545,793.6653 " fill="none" id="Superviser Tout le Contenu-to-S'Authentifier" style="stroke:#005F73;stroke-width:3.125;stroke-dasharray:7.0,7.0;"/><polygon fill="#005F73" points="961.2292,792.1951,951.1371,790.3507,956.167,793.4203,953.0974,798.4502,961.2292,792.1951" style="stroke:#005F73;stroke-width:3.125;"/><text fill="#222222" font-family="Verdana" font-size="15.625" lengthAdjust="spacing" textLength="72.9167" x="769.7917" y="802.5186">&#171;include&#187;</text></g><!--link Consulter un Rapport D?taill? to RunAnalysis--><g id="link_Consulter un Rapport D&#233;taill&#233;_RunAnalysis"><path d="M698.9792,1164.9347 C760.6354,1164.9347 820.3438,1164.9347 878.9167,1164.9347 " fill="none" id="Consulter un Rapport D&#233;taill&#233;-to-RunAnalysis" style="stroke:#005F73;stroke-width:3.125;stroke-dasharray:7.0,7.0;"/><polygon fill="#005F73" points="885.1667,1164.9347,875.7917,1160.768,879.9583,1164.9347,875.7917,1169.1014,885.1667,1164.9347" style="stroke:#005F73;stroke-width:3.125;"/><text fill="#222222" font-family="Verdana" font-size="15.625" lengthAdjust="spacing" textLength="72.9167" x="769.7917" y="1150.4353">&#171;include&#187;</text></g><!--link ValidateReport to Consulter un Rapport D?taill?--><g id="link_ValidateReport_Consulter un Rapport D&#233;taill&#233;"><path d="M472.9167,1290.1326 C472.9167,1267.1014 472.9167,1243.8305 472.9167,1219.2472 " fill="none" id="ValidateReport-to-Consulter un Rapport D&#233;taill&#233;" style="stroke:#005F73;stroke-width:3.125;stroke-dasharray:7.0,7.0;"/><polygon fill="#005F73" points="472.9167,1212.9972,468.75,1222.3722,472.9167,1218.2055,477.0833,1222.3722,472.9167,1212.9972" style="stroke:#005F73;stroke-width:3.125;"/><text fill="#222222" font-family="Verdana" font-size="15.625" lengthAdjust="spacing" textLength="73.9583" x="411.9792" y="1257.9874">&#171;extend&#187;</text></g><!--link G?rer les Sessions d'Entretien to N1--><g id="link_G&#233;rer les Sessions d'Entretien_N1"><path d="M564.0417,1495.5284 C646.7188,1535.3409 773.0625,1594.4764 885.4167,1639.9347 C905.5104,1648.0701 927.125,1656.1951 948.0938,1663.768 " fill="none" id="G&#233;rer les Sessions d'Entretien-N1" style="stroke:#005F73;stroke-width:3.125;stroke-dasharray:7.0,7.0;"/></g><!--link Consulter son Feedback to N2--><g id="link_Consulter son Feedback_N2"><path d="M660.125,432.5701 C685.9271,442.4347 709.5625,457.0597 727.0833,478.4764 C789.7917,555.1118 722.1458,1276.9347 758.3333,1369.1014 C789.8854,1449.4451 813.9688,1467.5389 885.4167,1515.9764 C898.75,1525.018 913.5521,1532.8618 928.75,1539.6222 " fill="none" id="Consulter son Feedback-N2" style="stroke:#005F73;stroke-width:3.125;stroke-dasharray:7.0,7.0;"/></g><text fill="#FFFFFF" font-family="Verdana" font-size="31.25" lengthAdjust="spacing" textLength="858.3333" x="201.5625" y="1811.1337">Vue fonctionnelle d&#233;taill&#233;e des interactions utilisateur</text><!--SRC=[bLRDRjiu4BxhAQRUW-i0Bj8KtGMARW3LJWi3RPgravnwOQMnJPGcLVwapIxsNVPOFuTUR8UKOakov2W-61BduymtCz-GUcRNk47OC8kQioWQmf_zVeGiVzDP_64UV_fq0TCBcCGBc0vlhcSVPuluUlRviiJTeZPSIPWehVagtoAWXVTA9fPM9Gg1JmXDqF5u30jxBz0_HUORbndJR0EMMu7aroxutmXdPnLJmZ8VR6TyTLenIcNtsrw-hbXOOfNUctwlc9p1X9cESB7MwaUxos2QAA4q_7Pw-dhvnwkgqSTxftIAkWjoKyHj0qMX071oCkLiHLZgROemOGRIuOtbWXlcYm1Zk1BKywNI7Z6C9HFtnZzTIAlHSfJcv2GgImQt3c5PRHQa-TOoBeJlP8e6k2G1iG0muCf0w7GK2LnQi0gexMiBATSOK0zDdERR9PSyXF6EA7tQPa9RG-c9l4nvocpvEiT4k-2wU8_J3UqtLfVnCfPyOok4mUBUsFpN1WVmJ-Gb6FwAe9-bJo341K51oqOQC8peCy5PGS3lA6taRnWxcXPf-PAZ7jID7_AjHWs6ihZIQid5O1zp1xfYnX38ITXLkU5cGkLpmfQUtYEcNocTDbzbGCz-WSQ4kbUwr-cNWizPbYbjVUdB7dOam-0T_oguiklyrtSNbFINGnEQ_0Ydcxq4p26N9L-v1sHHBWEpk85Rk0pr7VSLkrREDufE3vAPT8FU_RIOh2KdxjJQV4lJasytrC73vdvaCl64TfD0T81KC7UoME6clk6ML9BMwXdmOPdIdgDVYlvzaFaS1Ik6en0uZC_Rff9eFSYTNk1vYs96TKIxOXgW0tKsx7LfZw9eDsJLxLrQ6pNWZuXjrExzgDgwzbGIgWCECgeV4ysqgd8TjM4xHTkAxfRkw0YHQZPjJfifDPMLXcCvGvbwCSFpjs-vJ8HByVny5AGrz8CYE8OKag0-Lr4VZGTPA9fKT5kgJIReZaRVPM-Y1seC3LNKgafuyUByW2EyWGg9g4kilVO-9i8d4cYNvbEO71ViKtEgAR1lBXsIxBNzY4Rxx3zGdr2hug3rIkjNwChXsl1UFqR1qtdKe_U0Foc1T4_laZxh3E3FJF24UDwLzFpN7br4s384WOFz8iSmeSiYH4CmXU3ywiBnE-qd28nbrXMd_kNBNlhqk7wnRnNtbz6QJW2bVLdzOfma-TRVEVb_81Xe5FGfHVs7EqvphmecPyUcp9l_1m00]--></g></svg>