<?xml version="1.0" encoding="us-ascii" standalone="no"?><svg xmlns="http://www.w3.org/2000/svg" xmlns:xlink="http://www.w3.org/1999/xlink" contentStyleType="text/css" height="2498.9583px" preserveAspectRatio="none" style="width:3200px;height:2498px;" version="1.1" viewBox="0 0 3200 2498" width="3200px" zoomAndPan="magnify"><defs><linearGradient id="g59qyo86vmpj20" x1="50%" x2="50%" y1="0%" y2="100%"><stop offset="0%" stop-color="#FFFFFF"/><stop offset="100%" stop-color="#FFFFFF"/></linearGradient><linearGradient id="g59qyo86vmpj21" x1="50%" x2="50%" y1="0%" y2="100%"><stop offset="0%" stop-color="#4DABF5"/><stop offset="100%" stop-color="#2196F3"/></linearGradient><linearGradient id="g59qyo86vmpj22" x1="50%" x2="50%" y1="0%" y2="100%"><stop offset="0%" stop-color="#2196F3"/><stop offset="100%" stop-color="#1A78C2"/></linearGradient></defs><g><rect fill="url(#g59qyo86vmpj20)" height="102.9617" id="_title" rx="4.1667" ry="4.1667" style="stroke:#CCCCCC;stroke-width:1.0416666666666667;" width="764.5833" x="1213.0208" y="20.8333"/><text fill="#2196F3" font-family="Verdana" font-size="57.2917" font-weight="bold" lengthAdjust="spacing" textLength="731.25" x="1229.6875" y="95.0994">Diagramme de Classes</text><!--cluster Tables de R?sultats d'Analyse--><g id="cluster_Tables de R&#233;sultats d'Analyse"><path d="M20.8333,1664.4201 L742.7083,1664.4201 A6.25,6.25 0 0 1 746.875,1668.5867 L754.1667,1742.1422 L3183.3333,1742.1422 A4.1667,4.1667 0 0 1 3187.5,1746.3089 L3187.5,2358.1701 A4.1667,4.1667 0 0 1 3183.3333,2362.3367 L20.8333,2362.3367 A4.1667,4.1667 0 0 1 16.6667,2358.1701 L16.6667,1668.5867 A4.1667,4.1667 0 0 1 20.8333,1664.4201 " fill="url(#g59qyo86vmpj20)" style="stroke:#2196F3;stroke-width:2.0833333333333335;"/><line style="stroke:#2196F3;stroke-width:2.0833333333333335;" x1="16.6667" x2="754.1667" y1="1742.1422" y2="1742.1422"/><text fill="#FFFFFF" font-family="Verdana" font-size="41.6667" font-weight="bold" lengthAdjust="spacing" textLength="703.125" x="31.25" y="1718.8105">Tables de R&#233;sultats d'Analyse</text></g><!--class reports--><g id="elem_reports"><rect codeLine="72" fill="url(#g59qyo86vmpj21)" height="447.583" id="reports" rx="4.1667" ry="4.1667" style="stroke:#2196F3;stroke-width:1.0416666666666667;" width="864.5833" x="2306.25" y="1826.3992"/><rect fill="url(#g59qyo86vmpj22)" height="153.361" rx="4.1667" ry="4.1667" style="stroke:url(#g59qyo86vmpj22);stroke-width:1.0416666666666667;" width="864.5833" x="2306.25" y="1826.3992"/><rect fill="url(#g59qyo86vmpj22)" height="4.1667" style="stroke:url(#g59qyo86vmpj22);stroke-width:1.0416666666666667;" width="864.5833" x="2306.25" y="1975.5936"/><rect codeLine="72" fill="none" height="447.583" id="reports" rx="4.1667" ry="4.1667" style="stroke:#2196F3;stroke-width:1.0416666666666667;" width="864.5833" x="2306.25" y="1826.3992"/><ellipse cx="2539.8438" cy="1903.0797" fill="none" rx="19.7917" ry="19.7917" style="stroke:#1A78C2;stroke-width:1.0416666666666667;"/><path d="M2542.4967,1914.4404 Q2538.1999,1914.4404 2535.4167,1912.6338 Q2532.6497,1910.8109 2531.2988,1907.5068 Q2529.9479,1904.1865 2529.9479,1899.7594 Q2529.9479,1894.8115 2531.543,1891.247 Q2533.1543,1887.6826 2536.2956,1885.7783 Q2539.4531,1883.8577 2544.0267,1883.8577 Q2546.1914,1883.8577 2547.8353,1884.2972 Q2549.4954,1884.7204 2551.2044,1885.5667 L2549.2025,1890.5146 Q2547.6563,1889.7334 2546.3379,1889.4404 Q2545.0358,1889.1474 2543.8151,1889.1474 Q2540.9505,1889.1474 2539.2415,1890.4332 Q2537.5326,1891.7191 2536.8001,1894.0628 Q2536.0677,1896.3903 2536.0677,1899.5153 Q2536.0677,1904.4306 2537.8092,1906.7907 Q2539.5671,1909.1344 2543.4896,1909.1344 Q2544.9544,1909.1344 2546.4681,1908.7601 Q2547.9818,1908.3857 2550.0326,1907.4743 L2550.0326,1912.8942 Q2548.2422,1913.6917 2546.3053,1914.0661 Q2544.3685,1914.4404 2542.4967,1914.4404 Z " fill="#FFFFFF"/><text fill="#222222" font-family="Verdana" font-size="41.6667" font-style="italic" lengthAdjust="spacing" textLength="367.7083" x="2582.0313" y="1883.9147">&#171;R&#233;sum&#233; Global&#187;</text><text fill="#FFFFFF" font-family="Verdana" font-size="41.6667" lengthAdjust="spacing" textLength="150" x="2690.8854" y="1955.3869">reports</text><line style="stroke:#2196F3;stroke-width:1.0416666666666667;" x1="2307.2917" x2="3169.7917" y1="1979.7602" y2="1979.7602"/><text fill="#FFFFFF" font-family="Verdana" font-size="41.6667" lengthAdjust="spacing" textLength="831.25" x="2322.9167" y="2036.234">#session_id: INTEGER &#171;FK&#187; &#171;UNIQUE&#187;</text><text fill="#FFFFFF" font-family="Verdana" font-size="41.6667" lengthAdjust="spacing" textLength="444.7917" x="2322.9167" y="2107.7062">+note_globale: REAL</text><text fill="#FFFFFF" font-family="Verdana" font-size="41.6667" lengthAdjust="spacing" textLength="519.7917" x="2322.9167" y="2179.1784">+commentaire_rh: TEXT</text><text fill="#FFFFFF" font-family="Verdana" font-size="41.6667" lengthAdjust="spacing" textLength="462.5" x="2322.9167" y="2250.6505">+validated: BOOLEAN</text></g><!--class answers--><g id="elem_answers"><rect codeLine="79" fill="url(#g59qyo86vmpj21)" height="590.5273" id="answers" rx="4.1667" ry="4.1667" style="stroke:#2196F3;stroke-width:1.0416666666666667;" width="665.625" x="33.8542" y="1755.0451"/><rect fill="url(#g59qyo86vmpj22)" height="153.361" rx="4.1667" ry="4.1667" style="stroke:url(#g59qyo86vmpj22);stroke-width:1.0416666666666667;" width="665.625" x="33.8542" y="1755.0451"/><rect fill="url(#g59qyo86vmpj22)" height="4.1667" style="stroke:url(#g59qyo86vmpj22);stroke-width:1.0416666666666667;" width="665.625" x="33.8542" y="1904.2394"/><rect codeLine="79" fill="none" height="590.5273" id="answers" rx="4.1667" ry="4.1667" style="stroke:#2196F3;stroke-width:1.0416666666666667;" width="665.625" x="33.8542" y="1755.0451"/><ellipse cx="125.7813" cy="1831.7256" fill="none" rx="19.7917" ry="19.7917" style="stroke:#1A78C2;stroke-width:1.0416666666666667;"/><path d="M128.4342,1843.0862 Q124.1374,1843.0862 121.3542,1841.2796 Q118.5872,1839.4567 117.2363,1836.1526 Q115.8854,1832.8323 115.8854,1828.4053 Q115.8854,1823.4573 117.4805,1819.8929 Q119.0918,1816.3284 122.2331,1814.4241 Q125.3906,1812.5036 129.9642,1812.5036 Q132.1289,1812.5036 133.7728,1812.943 Q135.4329,1813.3662 137.1419,1814.2125 L135.14,1819.1605 Q133.5938,1818.3792 132.2754,1818.0862 Q130.9733,1817.7933 129.7526,1817.7933 Q126.888,1817.7933 125.179,1819.0791 Q123.4701,1820.3649 122.7376,1822.7086 Q122.0052,1825.0361 122.0052,1828.1611 Q122.0052,1833.0765 123.7467,1835.4365 Q125.5046,1837.7803 129.4271,1837.7803 Q130.8919,1837.7803 132.4056,1837.4059 Q133.9193,1837.0316 135.9701,1836.1201 L135.9701,1841.54 Q134.1797,1842.3375 132.2428,1842.7119 Q130.306,1843.0862 128.4342,1843.0862 Z " fill="#FFFFFF"/><text fill="#222222" font-family="Verdana" font-size="41.6667" font-style="italic" lengthAdjust="spacing" textLength="452.0833" x="167.9688" y="1812.5605">&#171;D&#233;tail par R&#233;ponse&#187;</text><text fill="#FFFFFF" font-family="Verdana" font-size="41.6667" lengthAdjust="spacing" textLength="171.875" x="308.0729" y="1884.0327">answers</text><line style="stroke:#2196F3;stroke-width:1.0416666666666667;" x1="34.8958" x2="698.4375" y1="1908.4061" y2="1908.4061"/><text fill="#FFFFFF" font-family="Verdana" font-size="41.6667" lengthAdjust="spacing" textLength="595.8333" x="50.5208" y="1964.8799">#session_id: INTEGER &#171;FK&#187;</text><text fill="#FFFFFF" font-family="Verdana" font-size="41.6667" lengthAdjust="spacing" textLength="620.8333" x="50.5208" y="2036.352">#question_id: INTEGER &#171;FK&#187;</text><text fill="#FFFFFF" font-family="Verdana" font-size="41.6667" lengthAdjust="spacing" textLength="632.2917" x="50.5208" y="2107.8242">+transcription_reponse: TEXT</text><text fill="#FFFFFF" font-family="Verdana" font-size="41.6667" lengthAdjust="spacing" textLength="533.3333" x="50.5208" y="2179.2964">+score_pertinence: REAL</text><text fill="#FFFFFF" font-family="Verdana" font-size="41.6667" lengthAdjust="spacing" textLength="541.6667" x="50.5208" y="2250.7685">+score_grammaire: REAL</text><text fill="#FFFFFF" font-family="Verdana" font-size="41.6667" lengthAdjust="spacing" textLength="457.2917" x="50.5208" y="2322.2407">+speech_rate: FLOAT</text></g><!--class audio_features--><g id="elem_audio_features"><rect codeLine="88" fill="url(#g59qyo86vmpj21)" height="161.6943" id="audio_features" rx="4.1667" ry="4.1667" style="stroke:#2196F3;stroke-width:1.0416666666666667;" width="434.375" x="735.9375" y="1969.6284"/><rect fill="url(#g59qyo86vmpj22)" height="153.361" rx="4.1667" ry="4.1667" style="stroke:url(#g59qyo86vmpj22);stroke-width:1.0416666666666667;" width="434.375" x="735.9375" y="1969.6284"/><rect fill="url(#g59qyo86vmpj22)" height="4.1667" style="stroke:url(#g59qyo86vmpj22);stroke-width:1.0416666666666667;" width="434.375" x="735.9375" y="2118.8227"/><rect codeLine="88" fill="none" height="161.6943" id="audio_features" rx="4.1667" ry="4.1667" style="stroke:#2196F3;stroke-width:1.0416666666666667;" width="434.375" x="735.9375" y="1969.6284"/><ellipse cx="759.8958" cy="2046.3089" fill="none" rx="19.7917" ry="19.7917" style="stroke:#1A78C2;stroke-width:1.0416666666666667;"/><path d="M762.5488,2057.6696 Q758.252,2057.6696 755.4688,2055.8629 Q752.7018,2054.04 751.3509,2050.736 Q750,2047.4157 750,2042.9886 Q750,2038.0407 751.5951,2034.4762 Q753.2064,2030.9118 756.3477,2029.0075 Q759.5052,2027.0869 764.0788,2027.0869 Q766.2435,2027.0869 767.8874,2027.5263 Q769.5475,2027.9495 771.2565,2028.7959 L769.2546,2033.7438 Q767.7083,2032.9625 766.39,2032.6696 Q765.0879,2032.3766 763.8672,2032.3766 Q761.0026,2032.3766 759.2936,2033.6624 Q757.5846,2034.9482 756.8522,2037.292 Q756.1198,2039.6194 756.1198,2042.7444 Q756.1198,2047.6598 757.8613,2050.0198 Q759.6191,2052.3636 763.5417,2052.3636 Q765.0065,2052.3636 766.5202,2051.9892 Q768.0339,2051.6149 770.0846,2050.7034 L770.0846,2056.1234 Q768.2943,2056.9209 766.3574,2057.2952 Q764.4206,2057.6696 762.5488,2057.6696 Z " fill="#FFFFFF"/><text fill="#222222" font-family="Verdana" font-size="41.6667" font-style="italic" lengthAdjust="spacing" textLength="367.7083" x="791.1458" y="2027.1439">&#171;Analyse Vocale&#187;</text><text fill="#FFFFFF" font-family="Verdana" font-size="41.6667" lengthAdjust="spacing" textLength="312.5" x="818.75" y="2098.616">audio_features</text><line style="stroke:#2196F3;stroke-width:1.0416666666666667;" x1="736.9792" x2="1169.2708" y1="2122.9894" y2="2122.9894"/></g><!--class emotion_scores--><g id="elem_emotion_scores"><rect codeLine="89" fill="url(#g59qyo86vmpj21)" height="161.6943" id="emotion_scores" rx="4.1667" ry="4.1667" style="stroke:#2196F3;stroke-width:1.0416666666666667;" width="567.7083" x="1206.7708" y="1969.6284"/><rect fill="url(#g59qyo86vmpj22)" height="153.361" rx="4.1667" ry="4.1667" style="stroke:url(#g59qyo86vmpj22);stroke-width:1.0416666666666667;" width="567.7083" x="1206.7708" y="1969.6284"/><rect fill="url(#g59qyo86vmpj22)" height="4.1667" style="stroke:url(#g59qyo86vmpj22);stroke-width:1.0416666666666667;" width="567.7083" x="1206.7708" y="2118.8227"/><rect codeLine="89" fill="none" height="161.6943" id="emotion_scores" rx="4.1667" ry="4.1667" style="stroke:#2196F3;stroke-width:1.0416666666666667;" width="567.7083" x="1206.7708" y="1969.6284"/><ellipse cx="1230.7292" cy="2046.3089" fill="none" rx="19.7917" ry="19.7917" style="stroke:#1A78C2;stroke-width:1.0416666666666667;"/><path d="M1233.3822,2057.6696 Q1229.0853,2057.6696 1226.3021,2055.8629 Q1223.5352,2054.04 1222.1842,2050.736 Q1220.8333,2047.4157 1220.8333,2042.9886 Q1220.8333,2038.0407 1222.4284,2034.4762 Q1224.0397,2030.9118 1227.181,2029.0075 Q1230.3385,2027.0869 1234.9121,2027.0869 Q1237.0768,2027.0869 1238.7207,2027.5263 Q1240.3809,2027.9495 1242.0898,2028.7959 L1240.0879,2033.7438 Q1238.5417,2032.9625 1237.2233,2032.6696 Q1235.9212,2032.3766 1234.7005,2032.3766 Q1231.8359,2032.3766 1230.127,2033.6624 Q1228.418,2034.9482 1227.6855,2037.292 Q1226.9531,2039.6194 1226.9531,2042.7444 Q1226.9531,2047.6598 1228.6947,2050.0198 Q1230.4525,2052.3636 1234.375,2052.3636 Q1235.8398,2052.3636 1237.3535,2051.9892 Q1238.8672,2051.6149 1240.918,2050.7034 L1240.918,2056.1234 Q1239.1276,2056.9209 1237.1908,2057.2952 Q1235.2539,2057.6696 1233.3822,2057.6696 Z " fill="#FFFFFF"/><text fill="#222222" font-family="Verdana" font-size="41.6667" font-style="italic" lengthAdjust="spacing" textLength="501.0417" x="1261.9792" y="2027.1439">&#171;Analyse &#201;motionnelle&#187;</text><text fill="#FFFFFF" font-family="Verdana" font-size="41.6667" lengthAdjust="spacing" textLength="330.2083" x="1347.3958" y="2098.616">emotion_scores</text><line style="stroke:#2196F3;stroke-width:1.0416666666666667;" x1="1207.8125" x2="1773.4375" y1="2122.9894" y2="2122.9894"/></g><!--class facial_features--><g id="elem_facial_features"><rect codeLine="90" fill="url(#g59qyo86vmpj21)" height="161.6943" id="facial_features" rx="4.1667" ry="4.1667" style="stroke:#2196F3;stroke-width:1.0416666666666667;" width="458.3333" x="1811.4583" y="1969.6284"/><rect fill="url(#g59qyo86vmpj22)" height="153.361" rx="4.1667" ry="4.1667" style="stroke:url(#g59qyo86vmpj22);stroke-width:1.0416666666666667;" width="458.3333" x="1811.4583" y="1969.6284"/><rect fill="url(#g59qyo86vmpj22)" height="4.1667" style="stroke:url(#g59qyo86vmpj22);stroke-width:1.0416666666666667;" width="458.3333" x="1811.4583" y="2118.8227"/><rect codeLine="90" fill="none" height="161.6943" id="facial_features" rx="4.1667" ry="4.1667" style="stroke:#2196F3;stroke-width:1.0416666666666667;" width="458.3333" x="1811.4583" y="1969.6284"/><ellipse cx="1835.4167" cy="2046.3089" fill="none" rx="19.7917" ry="19.7917" style="stroke:#1A78C2;stroke-width:1.0416666666666667;"/><path d="M1838.0697,2057.6696 Q1833.7728,2057.6696 1830.9896,2055.8629 Q1828.2227,2054.04 1826.8717,2050.736 Q1825.5208,2047.4157 1825.5208,2042.9886 Q1825.5208,2038.0407 1827.1159,2034.4762 Q1828.7272,2030.9118 1831.8685,2029.0075 Q1835.026,2027.0869 1839.5996,2027.0869 Q1841.7643,2027.0869 1843.4082,2027.5263 Q1845.0684,2027.9495 1846.7773,2028.7959 L1844.7754,2033.7438 Q1843.2292,2032.9625 1841.9108,2032.6696 Q1840.6087,2032.3766 1839.388,2032.3766 Q1836.5234,2032.3766 1834.8145,2033.6624 Q1833.1055,2034.9482 1832.373,2037.292 Q1831.6406,2039.6194 1831.6406,2042.7444 Q1831.6406,2047.6598 1833.3822,2050.0198 Q1835.14,2052.3636 1839.0625,2052.3636 Q1840.5273,2052.3636 1842.041,2051.9892 Q1843.5547,2051.6149 1845.6055,2050.7034 L1845.6055,2056.1234 Q1843.8151,2056.9209 1841.8783,2057.2952 Q1839.9414,2057.6696 1838.0697,2057.6696 Z " fill="#FFFFFF"/><text fill="#222222" font-family="Verdana" font-size="41.6667" font-style="italic" lengthAdjust="spacing" textLength="391.6667" x="1866.6667" y="2027.1439">&#171;Analyse Visuelle&#187;</text><text fill="#FFFFFF" font-family="Verdana" font-size="41.6667" lengthAdjust="spacing" textLength="309.375" x="1907.8125" y="2098.616">facial_features</text><line style="stroke:#2196F3;stroke-width:1.0416666666666667;" x1="1812.5" x2="2268.75" y1="2122.9894" y2="2122.9894"/></g><!--class Role--><g id="elem_Role"><rect codeLine="19" fill="url(#g59qyo86vmpj21)" height="304.6387" id="Role" rx="4.1667" ry="4.1667" style="stroke:#2196F3;stroke-width:1.0416666666666667;" width="227.0833" x="275" y="218.5867"/><rect fill="url(#g59qyo86vmpj22)" height="81.8888" rx="4.1667" ry="4.1667" style="stroke:url(#g59qyo86vmpj22);stroke-width:1.0416666666666667;" width="227.0833" x="275" y="218.5867"/><rect fill="url(#g59qyo86vmpj22)" height="4.1667" style="stroke:url(#g59qyo86vmpj22);stroke-width:1.0416666666666667;" width="227.0833" x="275" y="296.3089"/><rect codeLine="19" fill="none" height="304.6387" id="Role" rx="4.1667" ry="4.1667" style="stroke:#2196F3;stroke-width:1.0416666666666667;" width="227.0833" x="275" y="218.5867"/><ellipse cx="328.0208" cy="259.5311" fill="none" rx="19.7917" ry="19.7917" style="stroke:#1A78C2;stroke-width:1.0416666666666667;"/><path d="M319.3783,269.9478 L319.3783,240.1952 L338.1283,240.1952 L338.1283,245.4035 L325.2051,245.4035 L325.2051,251.914 L337.4935,251.914 L337.4935,257.1223 L325.2051,257.1223 L325.2051,264.7395 L338.1283,264.7395 L338.1283,269.9478 L319.3783,269.9478 Z " fill="#FFFFFF"/><text fill="#FFFFFF" font-family="Verdana" font-size="41.6667" lengthAdjust="spacing" textLength="91.6667" x="367.8125" y="276.1022">Role</text><line style="stroke:#2196F3;stroke-width:1.0416666666666667;" x1="276.0417" x2="501.0417" y1="300.4756" y2="300.4756"/><text fill="#FFFFFF" font-family="Verdana" font-size="41.6667" lengthAdjust="spacing" textLength="130.2083" x="291.6667" y="356.9494">admin</text><text fill="#FFFFFF" font-family="Verdana" font-size="41.6667" lengthAdjust="spacing" textLength="179.1667" x="291.6667" y="428.4215">candidat</text><text fill="#FFFFFF" font-family="Verdana" font-size="41.6667" lengthAdjust="spacing" textLength="193.75" x="291.6667" y="499.8937">recruteur</text></g><!--class users--><g id="elem_users"><rect codeLine="26" fill="url(#g59qyo86vmpj21)" height="455.9163" id="users" rx="4.1667" ry="4.1667" style="stroke:#2196F3;stroke-width:1.0416666666666667;" width="770.8333" x="538.5417" y="142.5451"/><rect fill="url(#g59qyo86vmpj22)" height="81.8888" rx="4.1667" ry="4.1667" style="stroke:url(#g59qyo86vmpj22);stroke-width:1.0416666666666667;" width="770.8333" x="538.5417" y="142.5451"/><rect fill="url(#g59qyo86vmpj22)" height="4.1667" style="stroke:url(#g59qyo86vmpj22);stroke-width:1.0416666666666667;" width="770.8333" x="538.5417" y="220.2672"/><rect codeLine="26" fill="none" height="455.9163" id="users" rx="4.1667" ry="4.1667" style="stroke:#2196F3;stroke-width:1.0416666666666667;" width="770.8333" x="538.5417" y="142.5451"/><ellipse cx="850.7813" cy="183.4895" fill="none" rx="19.7917" ry="19.7917" style="stroke:#1A78C2;stroke-width:1.0416666666666667;"/><path d="M853.4342,194.8502 Q849.1374,194.8502 846.3542,193.0435 Q843.5872,191.2206 842.2363,187.9166 Q840.8854,184.5963 840.8854,180.1692 Q840.8854,175.2213 842.4805,171.6568 Q844.0918,168.0923 847.2331,166.188 Q850.3906,164.2675 854.9642,164.2675 Q857.1289,164.2675 858.7728,164.7069 Q860.4329,165.1301 862.1419,165.9765 L860.14,170.9244 Q858.5938,170.1431 857.2754,169.8502 Q855.9733,169.5572 854.7526,169.5572 Q851.888,169.5572 850.179,170.843 Q848.4701,172.1288 847.7376,174.4726 Q847.0052,176.8 847.0052,179.925 Q847.0052,184.8404 848.7467,187.2004 Q850.5046,189.5442 854.4271,189.5442 Q855.8919,189.5442 857.4056,189.1698 Q858.9193,188.7955 860.9701,187.884 L860.9701,193.3039 Q859.1797,194.1015 857.2428,194.4758 Q855.306,194.8502 853.4342,194.8502 Z " fill="#FFFFFF"/><text fill="#FFFFFF" font-family="Verdana" font-size="41.6667" lengthAdjust="spacing" textLength="112.5" x="895.0521" y="200.0605">users</text><line style="stroke:#2196F3;stroke-width:1.0416666666666667;" x1="539.5833" x2="1308.3333" y1="224.4339" y2="224.4339"/><text fill="#FFFFFF" font-family="Verdana" font-size="41.6667" lengthAdjust="spacing" textLength="380.2083" x="555.2083" y="280.9077">+id: SERIAL &#171;PK&#187;</text><text fill="#FFFFFF" font-family="Verdana" font-size="41.6667" lengthAdjust="spacing" textLength="239.5833" x="555.2083" y="352.3799">+role: Role</text><text fill="#FFFFFF" font-family="Verdana" font-size="41.6667" lengthAdjust="spacing" textLength="661.4583" x="555.2083" y="423.852">+doit_changer_mdp: BOOLEAN</text><line style="stroke:#2196F3;stroke-width:1.0416666666666667;" x1="539.5833" x2="1308.3333" y1="447.1837" y2="447.1837"/><text fill="#FFFFFF" font-family="Verdana" font-size="41.6667" lengthAdjust="spacing" textLength="478.125" x="555.2083" y="503.6575">+nom: VARCHAR(100)</text><text fill="#FFFFFF" font-family="Verdana" font-size="41.6667" lengthAdjust="spacing" textLength="737.5" x="555.2083" y="575.1297">+email: VARCHAR(100) &#171;UNIQUE&#187;</text></g><!--class sessions--><g id="elem_sessions"><rect codeLine="34" fill="url(#g59qyo86vmpj21)" height="809.1105" id="sessions" rx="4.1667" ry="4.1667" style="stroke:#2196F3;stroke-width:1.0416666666666667;" width="860.4167" x="1022.9167" y="734.2117"/><rect fill="url(#g59qyo86vmpj22)" height="81.8888" rx="4.1667" ry="4.1667" style="stroke:url(#g59qyo86vmpj22);stroke-width:1.0416666666666667;" width="860.4167" x="1022.9167" y="734.2117"/><rect fill="url(#g59qyo86vmpj22)" height="4.1667" style="stroke:url(#g59qyo86vmpj22);stroke-width:1.0416666666666667;" width="860.4167" x="1022.9167" y="811.9339"/><rect codeLine="34" fill="none" height="809.1105" id="sessions" rx="4.1667" ry="4.1667" style="stroke:#2196F3;stroke-width:1.0416666666666667;" width="860.4167" x="1022.9167" y="734.2117"/><ellipse cx="1348.1771" cy="775.1561" fill="none" rx="19.7917" ry="19.7917" style="stroke:#1A78C2;stroke-width:1.0416666666666667;"/><path d="M1350.8301,786.5168 Q1346.5332,786.5168 1343.75,784.7102 Q1340.9831,782.8873 1339.6322,779.5832 Q1338.2813,776.2629 1338.2813,771.8358 Q1338.2813,766.8879 1339.8763,763.3235 Q1341.4876,759.759 1344.6289,757.8547 Q1347.7865,755.9341 1352.36,755.9341 Q1354.5247,755.9341 1356.1686,756.3736 Q1357.8288,756.7968 1359.5378,757.6431 L1357.5358,762.591 Q1355.9896,761.8098 1354.6712,761.5168 Q1353.3691,761.2239 1352.1484,761.2239 Q1349.2839,761.2239 1347.5749,762.5097 Q1345.8659,763.7955 1345.1335,766.1392 Q1344.401,768.4667 1344.401,771.5917 Q1344.401,776.5071 1346.1426,778.8671 Q1347.9004,781.2108 1351.8229,781.2108 Q1353.2878,781.2108 1354.8014,780.8365 Q1356.3151,780.4621 1358.3659,779.5507 L1358.3659,784.9706 Q1356.5755,785.7681 1354.6387,786.1425 Q1352.7018,786.5168 1350.8301,786.5168 Z " fill="#FFFFFF"/><text fill="#FFFFFF" font-family="Verdana" font-size="41.6667" lengthAdjust="spacing" textLength="176.0417" x="1392.4479" y="791.7272">sessions</text><line style="stroke:#2196F3;stroke-width:1.0416666666666667;" x1="1023.9583" x2="1882.2917" y1="816.1006" y2="816.1006"/><text fill="#FFFFFF" font-family="Verdana" font-size="41.6667" lengthAdjust="spacing" textLength="380.2083" x="1039.5833" y="872.5744">+id: SERIAL &#171;PK&#187;</text><text fill="#FFFFFF" font-family="Verdana" font-size="41.6667" lengthAdjust="spacing" textLength="611.4583" x="1039.5833" y="944.0465">+poste_vise: VARCHAR(255)</text><text fill="#FFFFFF" font-family="Verdana" font-size="41.6667" lengthAdjust="spacing" textLength="483.3333" x="1039.5833" y="1015.5187">+statut: VARCHAR(20)</text><text fill="#FFFFFF" font-family="Verdana" font-size="41.6667" lengthAdjust="spacing" textLength="678.125" x="1039.5833" y="1086.9909">+tentatives_realisees: INTEGER</text><text fill="#FFFFFF" font-family="Verdana" font-size="41.6667" lengthAdjust="spacing" textLength="542.7083" x="1039.5833" y="1158.463">+events_timeline: JSONB</text><text fill="#FFFFFF" font-family="Verdana" font-size="41.6667" lengthAdjust="spacing" textLength="580.2083" x="1039.5833" y="1229.9352">+questions_ids: INTEGER[]</text><text fill="#FFFFFF" font-family="Verdana" font-size="41.6667" lengthAdjust="spacing" textLength="532.2917" x="1039.5833" y="1377.0462">#user_id: INTEGER &#171;FK&#187;</text><text fill="#FFFFFF" font-family="Verdana" font-size="41.6667" lengthAdjust="spacing" textLength="635.4167" x="1039.5833" y="1448.5184">#recruteur_id: INTEGER &#171;FK&#187;</text><text fill="#FFFFFF" font-family="Verdana" font-size="41.6667" lengthAdjust="spacing" textLength="827.0833" x="1039.5833" y="1519.9905">#profil_ponderation_id: INTEGER &#171;FK&#187;</text><line style="stroke:#2196F3;stroke-width:1.0416666666666667;" x1="1023.9583" x2="1277.6042" y1="1289.003" y2="1289.003"/><text fill="#FFFFFF" font-family="Verdana" font-size="41.6667" lengthAdjust="spacing" textLength="330.2083" x="1288.0208" y="1305.0532">Cl&#233;s &#201;trang&#232;res</text><line style="stroke:#2196F3;stroke-width:1.0416666666666667;" x1="1628.6458" x2="1882.2917" y1="1289.003" y2="1289.003"/></g><!--class questions--><g id="elem_questions"><rect codeLine="47" fill="url(#g59qyo86vmpj21)" height="523.2218" id="questions" rx="4.1667" ry="4.1667" style="stroke:#2196F3;stroke-width:1.0416666666666667;" width="715.625" x="232.8125" y="877.4409"/><rect fill="url(#g59qyo86vmpj22)" height="81.8888" rx="4.1667" ry="4.1667" style="stroke:url(#g59qyo86vmpj22);stroke-width:1.0416666666666667;" width="715.625" x="232.8125" y="877.4409"/><rect fill="url(#g59qyo86vmpj22)" height="4.1667" style="stroke:url(#g59qyo86vmpj22);stroke-width:1.0416666666666667;" width="715.625" x="232.8125" y="955.1631"/><rect codeLine="47" fill="none" height="523.2218" id="questions" rx="4.1667" ry="4.1667" style="stroke:#2196F3;stroke-width:1.0416666666666667;" width="715.625" x="232.8125" y="877.4409"/><ellipse cx="473.1771" cy="918.3853" fill="none" rx="19.7917" ry="19.7917" style="stroke:#1A78C2;stroke-width:1.0416666666666667;"/><path d="M475.8301,929.746 Q471.5332,929.746 468.75,927.9394 Q465.9831,926.1164 464.6322,922.8124 Q463.2813,919.4921 463.2813,915.065 Q463.2813,910.1171 464.8763,906.5526 Q466.4876,902.9882 469.6289,901.0839 Q472.7865,899.1633 477.36,899.1633 Q479.5247,899.1633 481.1686,899.6028 Q482.8288,900.0259 484.5378,900.8723 L482.5358,905.8202 Q480.9896,905.039 479.6712,904.746 Q478.3691,904.453 477.1484,904.453 Q474.2839,904.453 472.5749,905.7388 Q470.8659,907.0246 470.1335,909.3684 Q469.401,911.6959 469.401,914.8209 Q469.401,919.7362 471.1426,922.0963 Q472.9004,924.44 476.8229,924.44 Q478.2878,924.44 479.8014,924.0657 Q481.3151,923.6913 483.3659,922.7798 L483.3659,928.1998 Q481.5755,928.9973 479.6387,929.3716 Q477.7018,929.746 475.8301,929.746 Z " fill="#FFFFFF"/><text fill="#FFFFFF" font-family="Verdana" font-size="41.6667" lengthAdjust="spacing" textLength="201.0417" x="517.4479" y="934.9564">questions</text><line style="stroke:#2196F3;stroke-width:1.0416666666666667;" x1="233.8542" x2="947.3958" y1="959.3297" y2="959.3297"/><text fill="#FFFFFF" font-family="Verdana" font-size="41.6667" lengthAdjust="spacing" textLength="380.2083" x="249.4792" y="1015.8035">+id: SERIAL &#171;PK&#187;</text><text fill="#FFFFFF" font-family="Verdana" font-size="41.6667" lengthAdjust="spacing" textLength="321.875" x="249.4792" y="1087.2757">+intitule: TEXT</text><text fill="#FFFFFF" font-family="Verdana" font-size="41.6667" lengthAdjust="spacing" textLength="568.75" x="249.4792" y="1158.7479">+category: VARCHAR(100)</text><text fill="#FFFFFF" font-family="Verdana" font-size="41.6667" lengthAdjust="spacing" textLength="682.2917" x="249.4792" y="1230.22">+signalement_admin: BOOLEAN</text><text fill="#FFFFFF" font-family="Verdana" font-size="41.6667" lengthAdjust="spacing" textLength="635.4167" x="249.4792" y="1377.331">#recruteur_id: INTEGER &#171;FK&#187;</text><line style="stroke:#2196F3;stroke-width:1.0416666666666667;" x1="233.8542" x2="415.1042" y1="1289.2878" y2="1289.2878"/><text fill="#FFFFFF" font-family="Verdana" font-size="41.6667" lengthAdjust="spacing" textLength="330.2083" x="425.5208" y="1305.338">Cl&#233;s &#201;trang&#232;res</text><line style="stroke:#2196F3;stroke-width:1.0416666666666667;" x1="766.1458" x2="947.3958" y1="1289.2878" y2="1289.2878"/></g><!--class profils_ponderation--><g id="elem_profils_ponderation"><rect codeLine="57" fill="url(#g59qyo86vmpj21)" height="384.4442" id="profils_ponderation" rx="4.1667" ry="4.1667" style="stroke:#2196F3;stroke-width:1.0416666666666667;" width="881.25" x="1345.8333" y="178.4826"/><rect fill="url(#g59qyo86vmpj22)" height="81.8888" rx="4.1667" ry="4.1667" style="stroke:url(#g59qyo86vmpj22);stroke-width:1.0416666666666667;" width="881.25" x="1345.8333" y="178.4826"/><rect fill="url(#g59qyo86vmpj22)" height="4.1667" style="stroke:url(#g59qyo86vmpj22);stroke-width:1.0416666666666667;" width="881.25" x="1345.8333" y="256.2047"/><rect codeLine="57" fill="none" height="384.4442" id="profils_ponderation" rx="4.1667" ry="4.1667" style="stroke:#2196F3;stroke-width:1.0416666666666667;" width="881.25" x="1345.8333" y="178.4826"/><ellipse cx="1565.8854" cy="219.427" fill="none" rx="19.7917" ry="19.7917" style="stroke:#1A78C2;stroke-width:1.0416666666666667;"/><path d="M1568.5384,230.7877 Q1564.2415,230.7877 1561.4583,228.981 Q1558.6914,227.1581 1557.3405,223.8541 Q1555.9896,220.5338 1555.9896,216.1067 Q1555.9896,211.1588 1557.5846,207.5943 Q1559.196,204.0298 1562.3372,202.1255 Q1565.4948,200.205 1570.0684,200.205 Q1572.2331,200.205 1573.877,200.6444 Q1575.5371,201.0676 1577.2461,201.914 L1575.2441,206.8619 Q1573.6979,206.0806 1572.3796,205.7877 Q1571.0775,205.4947 1569.8568,205.4947 Q1566.9922,205.4947 1565.2832,206.7805 Q1563.5742,208.0663 1562.8418,210.4101 Q1562.1094,212.7375 1562.1094,215.8625 Q1562.1094,220.7779 1563.8509,223.1379 Q1565.6087,225.4817 1569.5313,225.4817 Q1570.9961,225.4817 1572.5098,225.1073 Q1574.0234,224.733 1576.0742,223.8215 L1576.0742,229.2414 Q1574.2839,230.039 1572.347,230.4133 Q1570.4102,230.7877 1568.5384,230.7877 Z " fill="#FFFFFF"/><text fill="#FFFFFF" font-family="Verdana" font-size="41.6667" lengthAdjust="spacing" textLength="407.2917" x="1610.1563" y="235.998">profils_ponderation</text><line style="stroke:#2196F3;stroke-width:1.0416666666666667;" x1="1346.875" x2="2226.0417" y1="260.3714" y2="260.3714"/><text fill="#FFFFFF" font-family="Verdana" font-size="41.6667" lengthAdjust="spacing" textLength="380.2083" x="1362.5" y="316.8452">+id: SERIAL &#171;PK&#187;</text><text fill="#FFFFFF" font-family="Verdana" font-size="41.6667" lengthAdjust="spacing" textLength="405.2083" x="1362.5" y="388.3174">+description: TEXT</text><text fill="#FFFFFF" font-family="Verdana" font-size="41.6667" lengthAdjust="spacing" textLength="317.7083" x="1362.5" y="459.7895">+poids: JSONB</text><line style="stroke:#2196F3;stroke-width:1.0416666666666667;" x1="1346.875" x2="2226.0417" y1="483.1212" y2="483.1212"/><text fill="#FFFFFF" font-family="Verdana" font-size="41.6667" lengthAdjust="spacing" textLength="847.9167" x="1362.5" y="539.595">+nom_profil: VARCHAR(100) &#171;UNIQUE&#187;</text></g><!--class configurations--><g id="elem_configurations"><rect codeLine="64" fill="url(#g59qyo86vmpj21)" height="312.972" id="configurations" rx="4.1667" ry="4.1667" style="stroke:#2196F3;stroke-width:1.0416666666666667;" width="714.5833" x="2263.5417" y="214.4201"/><rect fill="url(#g59qyo86vmpj22)" height="81.8888" rx="4.1667" ry="4.1667" style="stroke:url(#g59qyo86vmpj22);stroke-width:1.0416666666666667;" width="714.5833" x="2263.5417" y="214.4201"/><rect fill="url(#g59qyo86vmpj22)" height="4.1667" style="stroke:url(#g59qyo86vmpj22);stroke-width:1.0416666666666667;" width="714.5833" x="2263.5417" y="292.1422"/><rect codeLine="64" fill="none" height="312.972" id="configurations" rx="4.1667" ry="4.1667" style="stroke:#2196F3;stroke-width:1.0416666666666667;" width="714.5833" x="2263.5417" y="214.4201"/><ellipse cx="2455.4688" cy="255.3645" fill="none" rx="19.7917" ry="19.7917" style="stroke:#1A78C2;stroke-width:1.0416666666666667;"/><path d="M2458.1217,266.7252 Q2453.8249,266.7252 2451.0417,264.9185 Q2448.2747,263.0956 2446.9238,259.7916 Q2445.5729,256.4713 2445.5729,252.0442 Q2445.5729,247.0963 2447.168,243.5318 Q2448.7793,239.9673 2451.9206,238.063 Q2455.0781,236.1425 2459.6517,236.1425 Q2461.8164,236.1425 2463.4603,236.5819 Q2465.1204,237.0051 2466.8294,237.8515 L2464.8275,242.7994 Q2463.2813,242.0181 2461.9629,241.7252 Q2460.6608,241.4322 2459.4401,241.4322 Q2456.5755,241.4322 2454.8665,242.718 Q2453.1576,244.0038 2452.4251,246.3476 Q2451.6927,248.675 2451.6927,251.8 Q2451.6927,256.7154 2453.4342,259.0754 Q2455.1921,261.4192 2459.1146,261.4192 Q2460.5794,261.4192 2462.0931,261.0448 Q2463.6068,260.6705 2465.6576,259.759 L2465.6576,265.1789 Q2463.8672,265.9765 2461.9303,266.3508 Q2459.9935,266.7252 2458.1217,266.7252 Z " fill="#FFFFFF"/><text fill="#FFFFFF" font-family="Verdana" font-size="41.6667" lengthAdjust="spacing" textLength="296.875" x="2499.7396" y="271.9355">configurations</text><line style="stroke:#2196F3;stroke-width:1.0416666666666667;" x1="2264.5833" x2="2977.0833" y1="296.3089" y2="296.3089"/><text fill="#FFFFFF" font-family="Verdana" font-size="41.6667" lengthAdjust="spacing" textLength="380.2083" x="2280.2083" y="352.7827">+id: SERIAL &#171;PK&#187;</text><text fill="#FFFFFF" font-family="Verdana" font-size="41.6667" lengthAdjust="spacing" textLength="305.2083" x="2280.2083" y="424.2549">+valeur: TEXT</text><line style="stroke:#2196F3;stroke-width:1.0416666666666667;" x1="2264.5833" x2="2977.0833" y1="447.5866" y2="447.5866"/><text fill="#FFFFFF" font-family="Verdana" font-size="41.6667" lengthAdjust="spacing" textLength="681.25" x="2280.2083" y="504.0604">+cle: VARCHAR(100) &#171;UNIQUE&#187;</text></g><!--link users to sessions--><g id="link_users_sessions"><path codeLine="95" d="M1286.6771,599.0659 C1295.4479,609.0867 1303.75,619.4096 1311.4583,630.0451 C1334.5,661.8159 1353.7917,697.1805 1369.9479,734.0659 " fill="none" id="users-sessions" style="stroke:#2196F3;stroke-width:3.125;"/><text fill="#222222" font-family="Verdana" font-size="41.6667" lengthAdjust="spacing" textLength="309.375" x="1359.375" y="683.3939">est le candidat</text><text fill="#222222" font-family="Verdana" font-size="41.6667" lengthAdjust="spacing" textLength="26.0417" x="1308.5578" y="659.2194">1</text><text fill="#222222" font-family="Verdana" font-size="41.6667" lengthAdjust="spacing" textLength="83.3333" x="1379.733" y="706.6063">0..*</text></g><!--link users to sessions--><g id="link_users_sessions"><path codeLine="96" d="M923.2813,599.1805 C929.5521,635.2326 939.8854,671.0971 956.25,702.9617 C974.6458,738.7846 997.3542,772.9513 1022.8333,805.2638 " fill="none" id="users-sessions-1" style="stroke:#2196F3;stroke-width:3.125;"/><text fill="#222222" font-family="Verdana" font-size="41.6667" lengthAdjust="spacing" textLength="323.9583" x="967.7083" y="683.3939">est le recruteur</text><text fill="#222222" font-family="Verdana" font-size="41.6667" lengthAdjust="spacing" textLength="26.0417" x="922.307" y="659.3374">1</text><text fill="#222222" font-family="Verdana" font-size="41.6667" lengthAdjust="spacing" textLength="83.3333" x="920.7925" y="780.4023">0..*</text></g><!--link users to questions--><g id="link_users_questions"><path codeLine="97" d="M813.0938,598.8576 C808.2604,609.3784 803.5313,619.8055 798.9583,630.0451 C763.3542,709.7742 726.5521,797.4721 693.9688,877.243 " fill="none" id="users-questions" style="stroke:#2196F3;stroke-width:3.125;"/><text fill="#222222" font-family="Verdana" font-size="41.6667" lengthAdjust="spacing" textLength="89.5833" x="810.4167" y="683.3939">cr&#233;e</text><text fill="#222222" font-family="Verdana" font-size="41.6667" lengthAdjust="spacing" textLength="26.0417" x="772.6483" y="659.0049">1</text><text fill="#222222" font-family="Verdana" font-size="41.6667" lengthAdjust="spacing" textLength="83.3333" x="601.7405" y="849.9024">0..*</text></g><!--link sessions to reports--><g id="link_sessions_reports"><path codeLine="100" d="M1883.5417,1387.2117 C2016.4167,1468.4513 2161.2292,1562.1284 2288.5417,1656.0867 C2358.9792,1708.0659 2431.8646,1768.5034 2497.9375,1826.1701 " fill="none" id="sessions-reports" style="stroke:#2196F3;stroke-width:3.125;"/><text fill="#222222" font-family="Verdana" font-size="41.6667" lengthAdjust="spacing" textLength="25" x="2278.125" y="1628.1855">a</text><text fill="#222222" font-family="Verdana" font-size="41.6667" lengthAdjust="spacing" textLength="26.0417" x="1901.759" y="1372.3524">1</text><text fill="#222222" font-family="Verdana" font-size="41.6667" lengthAdjust="spacing" textLength="83.3333" x="2394.5837" y="1799.1416">0..1</text></g><!--link sessions to answers--><g id="link_sessions_answers"><path codeLine="101" d="M1037.3438,1543.6388 C977.8958,1593.1388 923.9479,1631.9305 885.4167,1647.7534 C850.8958,1661.9305 751.375,1639.993 717.7083,1656.0867 C667.1354,1680.2534 620.6667,1715.368 579.2292,1754.8055 " fill="none" id="sessions-answers" style="stroke:#2196F3;stroke-width:3.125;"/><text fill="#222222" font-family="Verdana" font-size="41.6667" lengthAdjust="spacing" textLength="169.7917" x="1003.125" y="1628.1855">contient</text><text fill="#222222" font-family="Verdana" font-size="41.6667" lengthAdjust="spacing" textLength="26.0417" x="978.2382" y="1544.1791">1</text><text fill="#222222" font-family="Verdana" font-size="41.6667" lengthAdjust="spacing" textLength="83.3333" x="489.7419" y="1727.4977">0..*</text></g><!--link sessions to audio_features--><g id="link_sessions_audio_features"><path codeLine="102" d="M1291.9583,1543.7221 C1267.0938,1581.5346 1238.9583,1617.0971 1207.2917,1647.7534 C1200.7396,1654.0971 1195.3646,1650.0451 1188.5417,1656.0867 C1089.9583,1743.3888 1020.4479,1882.1596 983.625,1969.368 " fill="none" id="sessions-audio_features" style="stroke:#2196F3;stroke-width:3.125;"/><text fill="#222222" font-family="Verdana" font-size="41.6667" lengthAdjust="spacing" textLength="26.0417" x="1252.3271" y="1603.6037">1</text><text fill="#222222" font-family="Verdana" font-size="41.6667" lengthAdjust="spacing" textLength="83.3333" x="888.29" y="1942.308">0..1</text></g><!--link sessions to emotion_scores--><g id="link_sessions_emotion_scores"><path codeLine="103" d="M1469.7813,1543.7742 C1476.3958,1704.1701 1483.3542,1873.1076 1487.3333,1969.4096 " fill="none" id="sessions-emotion_scores" style="stroke:#2196F3;stroke-width:3.125;"/><text fill="#222222" font-family="Verdana" font-size="41.6667" lengthAdjust="spacing" textLength="26.0417" x="1433.2064" y="1603.6566">1</text><text fill="#222222" font-family="Verdana" font-size="41.6667" lengthAdjust="spacing" textLength="83.3333" x="1389.3437" y="1941.9897">0..1</text></g><!--link sessions to facial_features--><g id="link_sessions_facial_features"><path codeLine="104" d="M1719.8958,1543.7846 C1744.6042,1581.6805 1769.1875,1619.5659 1792.7083,1656.0867 C1862.3021,1764.1388 1941.25,1889.9201 1990.9792,1969.5659 " fill="none" id="sessions-facial_features" style="stroke:#2196F3;stroke-width:3.125;"/><text fill="#222222" font-family="Verdana" font-size="41.6667" lengthAdjust="spacing" textLength="26.0417" x="1687.6198" y="1603.6672">1</text><text fill="#222222" font-family="Verdana" font-size="41.6667" lengthAdjust="spacing" textLength="83.3333" x="1889.4405" y="1942.1579">0..1</text></g><!--link profils_ponderation to sessions--><g id="link_profils_ponderation_sessions"><path codeLine="106" d="M1760.5938,562.9201 C1751.0208,609.6596 1738.1146,658.8888 1720.8333,702.9617 C1716.7917,713.2846 1712.5,723.6284 1708,733.9721 " fill="none" id="profils_ponderation-sessions" style="stroke:#2196F3;stroke-width:3.125;"/><text fill="#222222" font-family="Verdana" font-size="41.6667" lengthAdjust="spacing" textLength="442.7083" x="1755.2083" y="683.3939">d&#233;finit les poids pour</text><text fill="#222222" font-family="Verdana" font-size="41.6667" lengthAdjust="spacing" textLength="26.0417" x="1722.3636" y="623.4192">1</text><text fill="#222222" font-family="Verdana" font-size="41.6667" lengthAdjust="spacing" textLength="83.3333" x="1724.6518" y="706.5106">0..*</text></g><!--link questions to answers--><g id="link_questions_answers"><path codeLine="107" d="M526.4479,1400.5346 C499.2083,1511.1388 467.3229,1640.618 439.2292,1754.6909 " fill="none" id="questions-answers" style="stroke:#2196F3;stroke-width:3.125;"/><text fill="#222222" font-family="Verdana" font-size="41.6667" lengthAdjust="spacing" textLength="375" x="490.625" y="1628.1855">est la question de</text><text fill="#222222" font-family="Verdana" font-size="41.6667" lengthAdjust="spacing" textLength="26.0417" x="487.3885" y="1461.6655">1</text><text fill="#222222" font-family="Verdana" font-size="41.6667" lengthAdjust="spacing" textLength="83.3333" x="346.0231" y="1727.3801">0..*</text></g><text fill="#FFFFFF" font-family="Verdana" font-size="52.0833" lengthAdjust="spacing" textLength="1400" x="895.3125" y="2448.0331">Structure des tables PostgreSQL et de leurs relations</text><!--SRC=[ZLR1Zjis4BthArZbuCJ51fkYUp4M2oXURUB6i1FR6nGe2e5BZMKY5AcGr0RR8X-mVz5ZVCyVwCSof6HPRcGd1qCoPuRpvitmKR_O3UH0Scf1Sne4vWEN1TKq9zUmfgMmDqhQ9Vy7oE_d7UEAMm6jwUAYOnhJmd8bzyPkt4nPwBT4p2hTRxermAWvY0ki0q26msjEC_J14b8WOq6D0JCS1gm6GPPMbyoMsfaDiVHEuEEjCZRJi7mt9M1Td81I6w91K1TaWc10pixECFW1S-1R1mjpAI9hDRyhBKoOaXvI5wxPq5HzuZ8ZQoeC11kEAI0lx0F9mMvKsYQ8PPbNM-spaaALcZXuklhg7ayrh4NrnJfuPFmw7hyXcCrOJRcqppmim7YoK6Z_Do24fZcN-6HKfZob5byrC8qmInrytkT4wgejig2vPBoWBfVRp5T6IWD8XTlkLyBJ4Ld6Yqaq9PUNRzzSNVbLgV8HUHyjng-ZnTCNv-VF_2hab8l3TGowdKtUtSPDe4QW8m_N_qqLjmdRK9c1JlAq696Ny_aqZcOEQmq6UsbSGqxYAR2RaDnp0_lqlrrSrB2CfRQq7KC3ru942xy7asYW0eF1ZCXajefVnOkwe7jqCOdbEGWkSUy_blFPIs_wM8BnWvBmT1_rrzzeH8B7mh5RFMAZP5PzqPvUD3tnt2QkY2O2gxYfgtYoxzGnXqAhDHT9eMGAzSJqURRKjHXFSiVTC9IkBQlupvLVOgW4cT8FFJqsF9CuBZaIa_XXsxVi1vMVhExxqNH7MSarpyhcRDJ7T5aMXTAsCwqrAQRBoezcDwbZJeygYWNJt4j8Xvf2-NxNWz0opRf8JzFD19pEUq-T53KfUtbPu1DLcLeK2C6hBN9S_KS49SlwhDJ2K53sWMP0mbMjU8U1wI32FZuO23tQkWmDZbk3YBmdwX9v9TGT5LTNtikriJcFFKqyBAIc6azbvdTmfpwEfes1gTnD4EKQ4hrfwMtATy85QNUmFkElHKcb-UG4wlBokjhY7eAWvhhQS08C_1JKnc5tG8vve4RW6BTZa3X-f843l8OfBA80RL4X93kiipRwoydLUcWh0DWcmPd1zPlfF5fzLsYPSfMiWRhBozNRj8oyLmmPzI1hJyYL1-ZpTJshnzeYGHm4h2dZLFJkpKtPEBV3TrqztancazLaFYFNyHAhc4Rkpz8Fse0iThScuNaX-CUIIai6_XeP1FLj4hu8dJo4vy-V3yEzg8z8Y2rmjzlknWf_Dg3La_w8lVXX2DDuIiBWADJTzeEWJTJP3Tzs9mFtec6l4wRS3QPBYDyf72SyFBRXOM-FUHtszPZN_veP17sIU9pFjDgkkUJMVtXuVVFV8M6mf_1edRuNj2KRHGPP3hu1]--></g></svg>