<?xml version="1.0" encoding="us-ascii" standalone="no"?><svg xmlns="http://www.w3.org/2000/svg" xmlns:xlink="http://www.w3.org/1999/xlink" contentStyleType="text/css" height="1607.2917px" preserveAspectRatio="none" style="width:3744px;height:1607px;" version="1.1" viewBox="0 0 3744 1607" width="3744.7917px" zoomAndPan="magnify"><defs><linearGradient id="gk7y4icyz5ml90" x1="50%" x2="50%" y1="0%" y2="100%"><stop offset="0%" stop-color="#FFFFFF"/><stop offset="100%" stop-color="#FFFFFF"/></linearGradient><filter height="300%" id="fk7y4icyz5ml9" width="300%" x="-1" y="-1"><feGaussianBlur result="blurOut" stdDeviation="2.0833333333333335"/><feColorMatrix in="blurOut" result="blurOut2" type="matrix" values="0 0 0 0 0 0 0 0 0 0 0 0 0 0 0 0 0 0 .4 0"/><feOffset dx="4.166666666666667" dy="4.166666666666667" in="blurOut2" result="blurOut3"/><feBlend in="SourceGraphic" in2="blurOut3" mode="normal"/></filter><linearGradient id="gk7y4icyz5ml91" x1="50%" x2="50%" y1="0%" y2="100%"><stop offset="0%" stop-color="#4DABF5"/><stop offset="100%" stop-color="#2196F3"/></linearGradient></defs><g><rect fill="url(#gk7y4icyz5ml90)" height="102.9617" id="_title" rx="4.1667" ry="4.1667" style="stroke:#CCCCCC;stroke-width:1.0416666666666667;" width="1933.3333" x="901.0417" y="20.8333"/><text fill="#2196F3" font-family="Verdana" font-size="57.2917" font-weight="bold" lengthAdjust="spacing" textLength="1900" x="917.7083" y="95.0994">Diagramme de Composants - Architecture de la Plateforme</text><!--cluster ClientNode--><g id="cluster_ClientNode"><polygon fill="url(#gk7y4icyz5ml90)" filter="url(#fk7y4icyz5ml9)" points="2040.625,151.9201,2051.0417,141.5034,2744.7917,141.5034,2744.7917,417.5451,2734.375,427.9617,2040.625,427.9617,2040.625,151.9201" style="stroke:#2196F3;stroke-width:1.0416666666666667;"/><line style="stroke:#2196F3;stroke-width:1.0416666666666667;" x1="2734.375" x2="2744.7917" y1="151.9201" y2="141.5034"/><line style="stroke:#2196F3;stroke-width:1.0416666666666667;" x1="2040.625" x2="2734.375" y1="151.9201" y2="151.9201"/><line style="stroke:#2196F3;stroke-width:1.0416666666666667;" x1="2734.375" x2="2734.375" y1="151.9201" y2="427.9617"/><text fill="#222222" font-family="Verdana" font-size="41.6667" font-weight="bold" lengthAdjust="spacing" textLength="604.1667" x="2086.4583" y="207.3522">Navigateur Web du Client</text></g><!--cluster ServerNode--><g id="cluster_ServerNode"><polygon fill="url(#gk7y4icyz5ml90)" filter="url(#fk7y4icyz5ml9)" points="1456.25,863.3784,1466.6667,852.9617,3721.875,852.9617,3721.875,1574.8367,3711.4583,1585.2534,1456.25,1585.2534,1456.25,863.3784" style="stroke:#2196F3;stroke-width:1.0416666666666667;"/><line style="stroke:#2196F3;stroke-width:1.0416666666666667;" x1="3711.4583" x2="3721.875" y1="863.3784" y2="852.9617"/><line style="stroke:#2196F3;stroke-width:1.0416666666666667;" x1="1456.25" x2="3711.4583" y1="863.3784" y2="863.3784"/><line style="stroke:#2196F3;stroke-width:1.0416666666666667;" x1="3711.4583" x2="3711.4583" y1="863.3784" y2="1585.2534"/><text fill="#222222" font-family="Verdana" font-size="41.6667" font-weight="bold" lengthAdjust="spacing" textLength="398.9583" x="2385.4167" y="918.8105">Serveur Backend</text></g><!--cluster Biblioth?que d'Agents IA--><g id="cluster_Biblioth&#232;que d'Agents IA"><path d="M1946.875,957.1284 L2553.125,957.1284 A6.25,6.25 0 0 1 2557.2917,961.2951 L2564.5833,1034.8506 L3692.7083,1034.8506 A4.1667,4.1667 0 0 1 3696.875,1039.0172 L3696.875,1235.2534 A4.1667,4.1667 0 0 1 3692.7083,1239.4201 L1946.875,1239.4201 A4.1667,4.1667 0 0 1 1942.7083,1235.2534 L1942.7083,961.2951 A4.1667,4.1667 0 0 1 1946.875,957.1284 " fill="url(#gk7y4icyz5ml90)" filter="url(#fk7y4icyz5ml9)" style="stroke:#2196F3;stroke-width:2.0833333333333335;"/><line style="stroke:#2196F3;stroke-width:2.0833333333333335;" x1="1942.7083" x2="2564.5833" y1="1034.8506" y2="1034.8506"/><text fill="#FFFFFF" font-family="Verdana" font-size="41.6667" font-weight="bold" lengthAdjust="spacing" textLength="587.5" x="1957.2917" y="1011.5189">Biblioth&#232;que d'Agents IA</text><text fill="#FFFFFF" font-family="Verdana" font-size="41.6667" font-style="italic" lengthAdjust="spacing" textLength="235.4167" x="2706.25" y="1089.241">&#171;(Python)&#187;</text></g><!--cluster Storage--><g id="cluster_Storage"><path d="M2680.2083,1307.1284 L3434.375,1307.1284 A6.25,6.25 0 0 1 3438.5417,1311.2951 L3445.8333,1384.8506 L3444.7917,1384.8506 A4.1667,4.1667 0 0 1 3448.9583,1389.0172 L3448.9583,1556.0867 A4.1667,4.1667 0 0 1 3444.7917,1560.2534 L2680.2083,1560.2534 A4.1667,4.1667 0 0 1 2676.0417,1556.0867 L2676.0417,1311.2951 A4.1667,4.1667 0 0 1 2680.2083,1307.1284 " fill="url(#gk7y4icyz5ml90)" filter="url(#fk7y4icyz5ml9)" style="stroke:#FF9800;stroke-width:2.0833333333333335;"/><line style="stroke:#FF9800;stroke-width:2.0833333333333335;" x1="2676.0417" x2="3445.8333" y1="1384.8506" y2="1384.8506"/><text fill="#FF9800" font-family="Verdana" font-size="41.6667" font-weight="bold" lengthAdjust="spacing" textLength="735.4167" x="2690.625" y="1361.5189">Artefacts IA (Stockage Disque)</text></g><!--cluster InfraNode--><g id="cluster_InfraNode"><polygon fill="url(#gk7y4icyz5ml90)" filter="url(#fk7y4icyz5ml9)" points="27.0833,472.7534,37.5,462.3367,1431.25,462.3367,1431.25,1527.9617,1420.8333,1538.3784,27.0833,1538.3784,27.0833,472.7534" style="stroke:#2196F3;stroke-width:1.0416666666666667;"/><line style="stroke:#2196F3;stroke-width:1.0416666666666667;" x1="1420.8333" x2="1431.25" y1="472.7534" y2="462.3367"/><line style="stroke:#2196F3;stroke-width:1.0416666666666667;" x1="27.0833" x2="1420.8333" y1="472.7534" y2="472.7534"/><line style="stroke:#2196F3;stroke-width:1.0416666666666667;" x1="1420.8333" x2="1420.8333" y1="472.7534" y2="1538.3784"/><text fill="#222222" font-family="Verdana" font-size="41.6667" font-weight="bold" lengthAdjust="spacing" textLength="858.3333" x="295.8333" y="528.1855">Infrastructure de T&#226;ches &amp; Donn&#233;es</text></g><!--entity FE--><g id="elem_FE"><rect fill="url(#gk7y4icyz5ml91)" filter="url(#fk7y4icyz5ml9)" height="174.1943" rx="4.1667" ry="4.1667" style="stroke:#2196F3;stroke-width:1.0416666666666667;" width="482.2917" x="2151.5625" y="237.3367"/><rect fill="url(#gk7y4icyz5ml91)" height="10.4167" style="stroke:#2196F3;stroke-width:1.0416666666666667;" width="15.625" x="2613.0208" y="242.5451"/><rect fill="url(#gk7y4icyz5ml91)" height="2.0833" style="stroke:#2196F3;stroke-width:1.0416666666666667;" width="4.1667" x="2610.9375" y="244.6284"/><rect fill="url(#gk7y4icyz5ml91)" height="2.0833" style="stroke:#2196F3;stroke-width:1.0416666666666667;" width="4.1667" x="2610.9375" y="248.7951"/><text fill="#FFFFFF" font-family="Verdana" font-size="41.6667" font-style="italic" lengthAdjust="spacing" textLength="283.3333" x="2245.8333" y="310.4772">&#171;Application&#187;</text><text fill="#FFFFFF" font-family="Verdana" font-size="41.6667" font-weight="bold" lengthAdjust="spacing" textLength="419.7917" x="2177.6042" y="381.9494">Frontend (Vue.js)</text></g><!--entity API--><g id="elem_API"><rect fill="url(#gk7y4icyz5ml91)" filter="url(#fk7y4icyz5ml9)" height="174.1943" rx="4.1667" ry="4.1667" style="stroke:#2196F3;stroke-width:1.0416666666666667;" width="450" x="1472.9167" y="1084.2117"/><rect fill="url(#gk7y4icyz5ml91)" height="10.4167" style="stroke:#2196F3;stroke-width:1.0416666666666667;" width="15.625" x="1902.0833" y="1089.4201"/><rect fill="url(#gk7y4icyz5ml91)" height="2.0833" style="stroke:#2196F3;stroke-width:1.0416666666666667;" width="4.1667" x="1900" y="1091.5034"/><rect fill="url(#gk7y4icyz5ml91)" height="2.0833" style="stroke:#2196F3;stroke-width:1.0416666666666667;" width="4.1667" x="1900" y="1095.6701"/><text fill="#FFFFFF" font-family="Verdana" font-size="41.6667" font-style="italic" lengthAdjust="spacing" textLength="367.7083" x="1508.8542" y="1157.3522">&#171;Interface REST&#187;</text><text fill="#FFFFFF" font-family="Verdana" font-size="41.6667" font-weight="bold" lengthAdjust="spacing" textLength="387.5" x="1498.9583" y="1228.8244">API Web (Flask)</text></g><!--entity NLPAgent--><g id="elem_NLPAgent"><rect fill="url(#gk7y4icyz5ml91)" filter="url(#fk7y4icyz5ml9)" height="102.7222" rx="4.1667" ry="4.1667" style="stroke:#2196F3;stroke-width:1.0416666666666667;" width="263.5417" x="3416.1458" y="1119.6284"/><rect fill="url(#gk7y4icyz5ml91)" height="10.4167" style="stroke:#2196F3;stroke-width:1.0416666666666667;" width="15.625" x="3658.8542" y="1124.8367"/><rect fill="url(#gk7y4icyz5ml91)" height="2.0833" style="stroke:#2196F3;stroke-width:1.0416666666666667;" width="4.1667" x="3656.7708" y="1126.9201"/><rect fill="url(#gk7y4icyz5ml91)" height="2.0833" style="stroke:#2196F3;stroke-width:1.0416666666666667;" width="4.1667" x="3656.7708" y="1131.0867"/><text fill="#FFFFFF" font-family="Verdana" font-size="41.6667" lengthAdjust="spacing" textLength="201.0417" x="3442.1875" y="1192.7689">NLPAgent</text></g><!--entity AudioAgent--><g id="elem_AudioAgent"><rect fill="url(#gk7y4icyz5ml91)" filter="url(#fk7y4icyz5ml9)" height="102.7222" rx="4.1667" ry="4.1667" style="stroke:#2196F3;stroke-width:1.0416666666666667;" width="302.0833" x="1959.375" y="1119.6284"/><rect fill="url(#gk7y4icyz5ml91)" height="10.4167" style="stroke:#2196F3;stroke-width:1.0416666666666667;" width="15.625" x="2240.625" y="1124.8367"/><rect fill="url(#gk7y4icyz5ml91)" height="2.0833" style="stroke:#2196F3;stroke-width:1.0416666666666667;" width="4.1667" x="2238.5417" y="1126.9201"/><rect fill="url(#gk7y4icyz5ml91)" height="2.0833" style="stroke:#2196F3;stroke-width:1.0416666666666667;" width="4.1667" x="2238.5417" y="1131.0867"/><text fill="#FFFFFF" font-family="Verdana" font-size="41.6667" lengthAdjust="spacing" textLength="239.5833" x="1985.4167" y="1192.7689">AudioAgent</text></g><!--entity VideoAgent--><g id="elem_VideoAgent"><rect fill="url(#gk7y4icyz5ml91)" filter="url(#fk7y4icyz5ml9)" height="102.7222" rx="4.1667" ry="4.1667" style="stroke:#2196F3;stroke-width:1.0416666666666667;" width="301.0417" x="2298.4375" y="1119.6284"/><rect fill="url(#gk7y4icyz5ml91)" height="10.4167" style="stroke:#2196F3;stroke-width:1.0416666666666667;" width="15.625" x="2578.6458" y="1124.8367"/><rect fill="url(#gk7y4icyz5ml91)" height="2.0833" style="stroke:#2196F3;stroke-width:1.0416666666666667;" width="4.1667" x="2576.5625" y="1126.9201"/><rect fill="url(#gk7y4icyz5ml91)" height="2.0833" style="stroke:#2196F3;stroke-width:1.0416666666666667;" width="4.1667" x="2576.5625" y="1131.0867"/><text fill="#FFFFFF" font-family="Verdana" font-size="41.6667" lengthAdjust="spacing" textLength="238.5417" x="2324.4792" y="1192.7689">VideoAgent</text></g><!--entity EmotionAgent--><g id="elem_EmotionAgent"><rect fill="url(#gk7y4icyz5ml91)" filter="url(#fk7y4icyz5ml9)" height="102.7222" rx="4.1667" ry="4.1667" style="stroke:#2196F3;stroke-width:1.0416666666666667;" width="356.25" x="2636.4583" y="1119.6284"/><rect fill="url(#gk7y4icyz5ml91)" height="10.4167" style="stroke:#2196F3;stroke-width:1.0416666666666667;" width="15.625" x="2971.875" y="1124.8367"/><rect fill="url(#gk7y4icyz5ml91)" height="2.0833" style="stroke:#2196F3;stroke-width:1.0416666666666667;" width="4.1667" x="2969.7917" y="1126.9201"/><rect fill="url(#gk7y4icyz5ml91)" height="2.0833" style="stroke:#2196F3;stroke-width:1.0416666666666667;" width="4.1667" x="2969.7917" y="1131.0867"/><text fill="#FFFFFF" font-family="Verdana" font-size="41.6667" lengthAdjust="spacing" textLength="293.75" x="2662.5" y="1192.7689">EmotionAgent</text></g><!--entity RapportAgent--><g id="elem_RapportAgent"><rect fill="url(#gk7y4icyz5ml91)" filter="url(#fk7y4icyz5ml9)" height="102.7222" rx="4.1667" ry="4.1667" style="stroke:#2196F3;stroke-width:1.0416666666666667;" width="350" x="3029.1667" y="1119.6284"/><rect fill="url(#gk7y4icyz5ml91)" height="10.4167" style="stroke:#2196F3;stroke-width:1.0416666666666667;" width="15.625" x="3358.3333" y="1124.8367"/><rect fill="url(#gk7y4icyz5ml91)" height="2.0833" style="stroke:#2196F3;stroke-width:1.0416666666666667;" width="4.1667" x="3356.25" y="1126.9201"/><rect fill="url(#gk7y4icyz5ml91)" height="2.0833" style="stroke:#2196F3;stroke-width:1.0416666666666667;" width="4.1667" x="3356.25" y="1131.0867"/><text fill="#FFFFFF" font-family="Verdana" font-size="41.6667" lengthAdjust="spacing" textLength="287.5" x="3055.2083" y="1192.7689">RapportAgent</text></g><!--entity Models--><g id="elem_Models"><rect fill="url(#gk7y4icyz5ml90)" filter="url(#fk7y4icyz5ml9)" height="146.0693" rx="4.1667" ry="4.1667" style="stroke:#666666;stroke-width:1.0416666666666667;" width="519.7917" x="2802.6042" y="1397.7534"/><polygon fill="url(#gk7y4icyz5ml90)" points="3304.6875,1402.9617,3304.6875,1417.5451,3317.1875,1417.5451,3317.1875,1409.2117,3310.9375,1402.9617,3304.6875,1402.9617" style="stroke:#666666;stroke-width:1.0416666666666667;"/><line style="stroke:#666666;stroke-width:1.0416666666666667;" x1="3310.9375" x2="3310.9375" y1="1402.9617" y2="1409.2117"/><line style="stroke:#666666;stroke-width:1.0416666666666667;" x1="3317.1875" x2="3310.9375" y1="1409.2117" y2="1409.2117"/><text fill="#666666" font-family="Verdana" font-size="41.6667" lengthAdjust="spacing" textLength="467.7083" x="2823.4375" y="1463.6022">Mod&#232;les Pr&#233;-entra&#238;n&#233;s</text><text fill="#666666" font-family="Verdana" font-size="41.6667" lengthAdjust="spacing" textLength="291.6667" x="2823.4375" y="1514.241">(.h5, .pkl, ...)</text></g><!--entity Worker--><g id="elem_Worker"><rect fill="url(#gk7y4icyz5ml91)" filter="url(#fk7y4icyz5ml9)" height="174.1943" rx="4.1667" ry="4.1667" style="stroke:#2196F3;stroke-width:1.0416666666666667;" width="695.8333" x="718.75" y="558.1701"/><rect fill="url(#gk7y4icyz5ml91)" height="10.4167" style="stroke:#2196F3;stroke-width:1.0416666666666667;" width="15.625" x="1393.75" y="563.3784"/><rect fill="url(#gk7y4icyz5ml91)" height="2.0833" style="stroke:#2196F3;stroke-width:1.0416666666666667;" width="4.1667" x="1391.6667" y="565.4617"/><rect fill="url(#gk7y4icyz5ml91)" height="2.0833" style="stroke:#2196F3;stroke-width:1.0416666666666667;" width="4.1667" x="1391.6667" y="569.6284"/><text fill="#FFFFFF" font-family="Verdana" font-size="41.6667" font-style="italic" lengthAdjust="spacing" textLength="260.4167" x="931.25" y="631.3105">&#171;Processus&#187;</text><text fill="#FFFFFF" font-family="Verdana" font-size="41.6667" font-weight="bold" lengthAdjust="spacing" textLength="633.3333" x="744.7917" y="702.7827">Worker de T&#226;ches (Celery)</text></g><!--entity Broker--><g id="elem_Broker"><path d="M49.4792,604.0034 L385.9375,604.0034 C391.1458,604.0034 391.1458,644.9478 391.1458,644.9478 C391.1458,644.9478 391.1458,685.8922 385.9375,685.8922 L49.4792,685.8922 C44.2708,685.8922 44.2708,644.9478 44.2708,644.9478 C44.2708,644.9478 44.2708,604.0034 49.4792,604.0034 " fill="url(#gk7y4icyz5ml91)" filter="url(#fk7y4icyz5ml9)" style="stroke:#2196F3;stroke-width:1.0416666666666667;"/><path d="M385.9375,604.0034 C380.7292,604.0034 380.7292,644.9478 380.7292,644.9478 C380.7292,685.8922 385.9375,685.8922 385.9375,685.8922 " fill="none" style="stroke:#2196F3;stroke-width:1.0416666666666667;"/><text fill="#FFFFFF" font-family="Verdana" font-size="41.6667" lengthAdjust="spacing" textLength="305.2083" x="59.8958" y="661.5189">Broker (Redis)</text></g><!--entity DB--><g id="elem_DB"><path d="M718.75,1430.0451 C718.75,1419.6284 1066.6667,1419.6284 1066.6667,1419.6284 C1066.6667,1419.6284 1414.5833,1419.6284 1414.5833,1430.0451 L1414.5833,1510.8922 C1414.5833,1521.3089 1066.6667,1521.3089 1066.6667,1521.3089 C1066.6667,1521.3089 718.75,1521.3089 718.75,1510.8922 L718.75,1430.0451 " fill="url(#gk7y4icyz5ml91)" filter="url(#fk7y4icyz5ml9)" style="stroke:#2196F3;stroke-width:1.0416666666666667;"/><path d="M718.75,1430.0451 C718.75,1440.4617 1066.6667,1440.4617 1066.6667,1440.4617 C1066.6667,1440.4617 1414.5833,1440.4617 1414.5833,1430.0451 " fill="none" style="stroke:#2196F3;stroke-width:1.0416666666666667;"/><text fill="#222222" font-family="Verdana" font-size="41.6667" lengthAdjust="spacing" textLength="654.1667" x="739.5833" y="1496.9355">Base de Donn&#233;es (PostgreSQL)</text></g><!--link FE to API--><g id="link_FE_API"><path d="M2420.0417,411.4096 C2450.4688,526.0451 2481.8438,727.0451 2369.7917,836.2951 C2352.8021,852.8576 1963.8333,833.8263 1942.7083,844.6284 C1844.0313,895.0971 1774.4167,1005.8055 1735.2708,1084.0659 " fill="none" id="FE-API" style="stroke:#2196F3;stroke-width:3.125;"/><text fill="#222222" font-family="Verdana" font-size="41.6667" lengthAdjust="spacing" textLength="382.2917" x="2466.6667" y="662.0397">API REST (HTTPS)</text><path d="M2165.0693,850.0835 A10.4167,10.4167 0 0 0 2165.2624 835.3534" fill="none" style="stroke:#2196F3;stroke-width:1.5625;"/><ellipse cx="2157.8008" cy="842.6219" fill="none" rx="6.25" ry="6.25" style="stroke:#2196F3;stroke-width:1.5625;"/></g><!--link API to DB--><g id="link_API_DB"><path d="M1515.3333,1258.2534 C1404.2708,1310.5763 1266.3125,1375.5659 1172.9167,1419.5659 " fill="none" id="API-DB" style="stroke:#2196F3;stroke-width:3.125;"/><path d="M1347.3024,1345.555 A10.4167,10.4167 0 0 0 1341.0243 1332.2284" fill="none" style="stroke:#2196F3;stroke-width:1.5625;"/><ellipse cx="1337.5" cy="1342.0307" fill="none" rx="6.25" ry="6.25" style="stroke:#2196F3;stroke-width:1.5625;"/></g><!--link API to Broker--><g id="link_API_Broker"><path d="M1472.7708,1090.4513 C1151.8125,976.8367 580.5688,774.6412 336.9855,688.412 " fill="none" id="API-to-Broker" style="stroke:#2196F3;stroke-width:3.125;stroke-dasharray:7.0,7.0;"/><polygon fill="#2196F3" points="331.0938,686.3263,338.5409,693.3827,336.0035,688.0644,341.3218,685.527,331.0938,686.3263" style="stroke:#2196F3;stroke-width:3.125;"/><text fill="#222222" font-family="Verdana" font-size="41.6667" lengthAdjust="spacing" textLength="278.125" x="750" y="816.7272">Envoie T&#226;che</text></g><!--reverse link Broker to Worker--><g id="link_Broker_Worker"><path d="M397.8021,645.1492 C492.1563,645.1492 606,645.1492 718.6667,645.1492 " fill="none" id="Broker-backto-Worker" style="stroke:#2196F3;stroke-width:3.125;stroke-dasharray:7.0,7.0;"/><polygon fill="#2196F3" points="391.5521,645.1492,400.9271,649.3159,396.7604,645.1492,400.9271,640.9826,391.5521,645.1492" style="stroke:#2196F3;stroke-width:3.125;"/><text fill="#222222" font-family="Verdana" font-size="41.6667" lengthAdjust="spacing" textLength="268.75" x="420.5729" y="622.4564">Re&#231;oit T&#226;che</text></g><!--link Worker to DB--><g id="link_Worker_DB"><path d="M1066.6667,732.368 C1066.6667,903.7326 1066.6667,1282.5034 1066.6667,1419.1909 " fill="none" id="Worker-DB" style="stroke:#2196F3;stroke-width:3.125;"/><path d="M1074.0324,1081.4176 A10.4167,10.4167 0 0 0 1059.301 1081.4176" fill="none" style="stroke:#2196F3;stroke-width:1.5625;"/><ellipse cx="1066.6667" cy="1088.7833" fill="none" rx="6.25" ry="6.25" style="stroke:#2196F3;stroke-width:1.5625;"/></g><!--link Worker to NLPAgent--><g id="link_Worker_NLPAgent"><path d="M1414.6875,671.3055 C2054.8438,718.118 3357.8333,816.5034 3397.9167,844.6284 C3490.1042,909.3263 3525.7838,1039.1173 3539.4401,1113.2111 " fill="none" id="Worker-to-NLPAgent" style="stroke:#2196F3;stroke-width:3.125;stroke-dasharray:7.0,7.0;"/><polygon fill="#2196F3" points="3540.5729,1119.3576,3542.9713,1109.3826,3539.6289,1114.2355,3534.776,1110.8931,3540.5729,1119.3576" style="stroke:#2196F3;stroke-width:3.125;"/><text fill="#222222" font-family="Verdana" font-size="41.6667" lengthAdjust="spacing" textLength="127.0833" x="3355.2083" y="816.7272">utilise</text></g><!--link Worker to AudioAgent--><g id="link_Worker_AudioAgent"><path d="M1368.5,732.2221 C1383.7188,741.5659 1398.1771,751.9201 1411.4583,763.3784 C1439.0521,787.1805 1418.0104,817.0555 1448.9583,836.2951 C1472.8438,851.1492 1931.5417,829.4201 1955.2083,844.6284 C2050.9375,906.1492 2087.8214,1038.245 2101.8318,1113.2659 " fill="none" id="Worker-to-AudioAgent" style="stroke:#2196F3;stroke-width:3.125;stroke-dasharray:7.0,7.0;"/><polygon fill="#2196F3" points="2102.9792,1119.4096,2105.354,1109.4291,2102.023,1114.2898,2097.1623,1110.9589,2102.9792,1119.4096" style="stroke:#2196F3;stroke-width:3.125;"/><text fill="#222222" font-family="Verdana" font-size="41.6667" lengthAdjust="spacing" textLength="127.0833" x="1460.4167" y="816.7272">utilise</text></g><!--link Worker to VideoAgent--><g id="link_Worker_VideoAgent"><path d="M1414.625,698.5555 C1496.7188,716.1596 1570.0104,737.9201 1603.125,763.3784 C1632.0208,785.5867 1609.6458,817.1076 1640.625,836.2951 C1670.8333,855.0034 2249.9688,825.9721 2280.2083,844.6284 C2378.8125,905.4617 2421.1202,1038.2305 2438.1411,1113.4284 " fill="none" id="Worker-to-VideoAgent" style="stroke:#2196F3;stroke-width:3.125;stroke-dasharray:7.0,7.0;"/><polygon fill="#2196F3" points="2439.5208,1119.5242,2441.515,1109.4607,2438.371,1114.4444,2433.3873,1111.3004,2439.5208,1119.5242" style="stroke:#2196F3;stroke-width:3.125;"/><text fill="#222222" font-family="Verdana" font-size="41.6667" lengthAdjust="spacing" textLength="127.0833" x="1652.0833" y="816.7272">utilise</text></g><!--link Worker to EmotionAgent--><g id="link_Worker_EmotionAgent"><path d="M1414.6146,672.3471 C1570.4375,689.993 1732.9375,718.493 1794.7917,763.3784 C1824.2917,784.7846 1801.2813,817.1492 1832.2917,836.2951 C1869.4167,859.2221 2579.8125,822.993 2617.7083,844.6284 C2722.2396,904.3055 2775.877,1038.0205 2799.1687,1113.5518 " fill="none" id="Worker-to-EmotionAgent" style="stroke:#2196F3;stroke-width:3.125;stroke-dasharray:7.0,7.0;"/><polygon fill="#2196F3" points="2801.0104,1119.5242,2802.2295,1109.3377,2799.4756,1114.5472,2794.2662,1111.7933,2801.0104,1119.5242" style="stroke:#2196F3;stroke-width:3.125;"/><text fill="#222222" font-family="Verdana" font-size="41.6667" lengthAdjust="spacing" textLength="127.0833" x="1843.75" y="816.7272">utilise</text></g><!--link Worker to RapportAgent--><g id="link_Worker_RapportAgent"><path d="M1414.8021,657.3055 C1635.3229,670.5555 1895.5,699.6284 1986.4583,763.3784 C2016.3021,784.2951 1992.9271,817.1805 2023.9583,836.2951 C2047.3125,850.6805 2987.6875,830.9409 3011.4583,844.6284 C3115.1875,904.3471 3167.1234,1038.0204 3189.4568,1113.5412 " fill="none" id="Worker-to-RapportAgent" style="stroke:#2196F3;stroke-width:3.125;stroke-dasharray:7.0,7.0;"/><polygon fill="#2196F3" points="3191.2292,1119.5346,3192.5662,1109.3629,3189.7522,1114.5401,3184.575,1111.7261,3191.2292,1119.5346" style="stroke:#2196F3;stroke-width:3.125;"/><text fill="#222222" font-family="Verdana" font-size="41.6667" lengthAdjust="spacing" textLength="127.0833" x="2035.4167" y="816.7272">utilise</text></g><!--link NLPAgent to Models--><g id="link_NLPAgent_Models"><path d="M3465.3021,1222.8471 C3386.9479,1270.8471 3273.7568,1340.2076 3185.5276,1394.2493 " fill="none" id="NLPAgent-to-Models" style="stroke:#2196F3;stroke-width:3.125;stroke-dasharray:7.0,7.0;"/><polygon fill="#2196F3" points="3180.1979,1397.5138,3190.3688,1396.1702,3184.6393,1394.7934,3186.0161,1389.0639,3180.1979,1397.5138" style="stroke:#2196F3;stroke-width:3.125;"/></g><!--link EmotionAgent to Models--><g id="link_EmotionAgent_Models"><path d="M2856.9167,1223.0138 C2896.9583,1271.0451 2953.4458,1338.807 2998.4562,1392.7966 " fill="none" id="EmotionAgent-to-Models" style="stroke:#2196F3;stroke-width:3.125;stroke-dasharray:7.0,7.0;"/><polygon fill="#2196F3" points="3002.4583,1397.5971,2999.6555,1387.7282,2999.1232,1393.5967,2993.2547,1393.0644,3002.4583,1397.5971" style="stroke:#2196F3;stroke-width:3.125;"/></g><!--SRC=[TLJDRfj04Bxp55iV6emAYghcKbcMy9zgARMexIQ7DeSDZCtM2qjt5qjfbPVffScbBy6BTNR1DkJ71uHdlf-PtHdUw1Go81dL81brr8xb1PKq8nFOq9BhcSZrYlq2yk6ybLmppU6OkhXefSQqq4pafsIRjn0QNiw4iHRovTHN1J5L7PwZJG74yoQCRX637IH0nY8hXAAvLiGdeOnJfY7MfRH9Jad4iSkDa1budjCoY0ql1vJNTwXQPlozupYvG5PlGVTiYxHIacku9Kb9nfmXj4UeQbuN1lZR8VZxvdapYNL2dX3tgeJWX-fxtet1pgPaC0YBWhEOcWCQ3ftxWyaAvDuuZ6YyGwhLjZ7PrGwZkQt2dN6gTWTb4nqCvkWgDpG6ifokrgXkEFPHe2hTeis8tN8cT5ez_2pnJCx2BPYpceSzvBlHdKv5tXyE6p_hkRYCBEhc50hBX8cdmIkMmBFWD1EcqwVX9IqA8NKhV7ygTYDu0fBqGebNHMDR7d5NMjGzJ9Z2sllr2U74cDYnN2erCnpI-ooIwe638f6i7dtqaRJwbrUFwdlk1kd5En8KEuxF8AYb40zSDRKShsMURoHLMfR78LfNV-8KPT-IYSXH3vIbMs3tggw5t64VBOux1Wxoxd1h3M0mYAI8GQbIDNU6_PNcigGmUNS92LDrbNN8WXAgwIqk1UBC4sqE1H4t4afl9Qo-NDQqoSYqT4PytoTBu7RwbALKZmME6yrnQ40t6vILUJEXXc1ubq2EGntN03C_T0ynuMSuVGxEjk-xvxuTnO_sQOQGk9_MwsZLjo86-9nEoMWoCUQuTqrx1bUhOU7cJo3PDjN1i06WmJJV2tOusQR4vZoVEHnqhOcrSnfem67JaLr2zLSmVT1jOCTQEZwbPfpXoPiXetQFZh8eUTeRb6sWdNnhYLv1j3Rg5KHdlLx1T7QjXR6zuAUZ_WB4APNcpNQJDRlZj9emMisEFB5jPHpdFm00]--></g></svg>