<?xml version="1.0" encoding="us-ascii" standalone="no"?><svg xmlns="http://www.w3.org/2000/svg" xmlns:xlink="http://www.w3.org/1999/xlink" contentStyleType="text/css" height="1748.9583px" preserveAspectRatio="none" style="width:5026px;height:1748px;" version="1.1" viewBox="0 0 5026 1748" width="5026.0417px" zoomAndPan="magnify"><defs><linearGradient id="gwyypa088fphf0" x1="50%" x2="50%" y1="0%" y2="100%"><stop offset="0%" stop-color="#FFFFFF"/><stop offset="100%" stop-color="#FFFFFF"/></linearGradient><filter height="300%" id="fwyypa088fphf" width="300%" x="-1" y="-1"><feGaussianBlur result="blurOut" stdDeviation="2.0833333333333335"/><feColorMatrix in="blurOut" result="blurOut2" type="matrix" values="0 0 0 0 0 0 0 0 0 0 0 0 0 0 0 0 0 0 .4 0"/><feOffset dx="4.166666666666667" dy="4.166666666666667" in="blurOut2" result="blurOut3"/><feBlend in="SourceGraphic" in2="blurOut3" mode="normal"/></filter><linearGradient id="gwyypa088fphf1" x1="50%" x2="50%" y1="0%" y2="100%"><stop offset="0%" stop-color="#4DABF5"/><stop offset="100%" stop-color="#2196F3"/></linearGradient></defs><g><rect fill="url(#gwyypa088fphf0)" height="102.9617" id="_title" rx="4.1667" ry="4.1667" style="stroke:#CCCCCC;stroke-width:1.0416666666666667;" width="2204.1667" x="1420.3125" y="20.8333"/><text fill="#2196F3" font-family="Verdana" font-size="57.2917" font-weight="bold" lengthAdjust="spacing" textLength="2170.8333" x="1436.9792" y="95.0994">Diagramme de S&#233;quence - Cr&#233;ation d'une Session par un Recruteur</text><rect fill="#FFFFFF" filter="url(#fwyypa088fphf)" height="1059.7493" style="stroke:#0A9396;stroke-width:1.0416666666666667;" width="10.4167" x="1258.8542" y="479.4754"/><rect fill="#FFFFFF" filter="url(#fwyypa088fphf)" height="801.5828" style="stroke:#0A9396;stroke-width:1.0416666666666667;" width="10.4167" x="2228.6458" y="565.5309"/><rect fill="#FFFFFF" filter="url(#fwyypa088fphf)" height="629.4718" style="stroke:#0A9396;stroke-width:1.0416666666666667;" width="10.4167" x="3110.9375" y="651.5864"/><rect fill="#87CEFA" filter="url(#fwyypa088fphf)" height="269.6248" style="stroke:#0A9396;stroke-width:1.0416666666666667;" width="10.4167" x="3116.1458" y="745.9752"/><rect fill="#FFFFFF" filter="url(#fwyypa088fphf)" height="86.0555" style="stroke:#0A9396;stroke-width:1.0416666666666667;" width="10.4167" x="4830.7292" y="837.2391"/><rect fill="#FFFFFF" filter="url(#fwyypa088fphf)" height="86.0555" style="stroke:#0A9396;stroke-width:1.0416666666666667;" width="10.4167" x="4830.7292" y="1108.9472"/><line style="stroke:#0A9396;stroke-width:1.0416666666666667;stroke-dasharray:5.0,5.0;" x1="157.2917" x2="157.2917" y1="305.2811" y2="1557.9748"/><line style="stroke:#0A9396;stroke-width:1.0416666666666667;stroke-dasharray:5.0,5.0;" x1="1264.0625" x2="1264.0625" y1="305.2811" y2="1557.9748"/><line style="stroke:#0A9396;stroke-width:1.0416666666666667;stroke-dasharray:5.0,5.0;" x1="2233.3333" x2="2233.3333" y1="305.2811" y2="1557.9748"/><line style="stroke:#0A9396;stroke-width:1.0416666666666667;stroke-dasharray:5.0,5.0;" x1="3115.625" x2="3115.625" y1="305.2811" y2="1557.9748"/><line style="stroke:#0A9396;stroke-width:1.0416666666666667;stroke-dasharray:5.0,5.0;" x1="4835.4167" x2="4835.4167" y1="305.2811" y2="1557.9748"/><text fill="#222222" font-family="Verdana" font-size="52.0833" lengthAdjust="spacing" textLength="257.2917" x="26.0417" y="283.9289">Recruteur</text><ellipse cx="157.8125" cy="163.8575" fill="url(#gwyypa088fphf1)" filter="url(#fwyypa088fphf)" rx="8.3333" ry="8.3333" style="stroke:#005F73;stroke-width:1.0416666666666667;"/><path d="M157.8125,172.1909 L157.8125,200.3159 M144.2708,180.5242 L171.3542,180.5242 M157.8125,200.3159 L144.2708,215.9409 M157.8125,200.3159 L171.3542,215.9409 " fill="none" filter="url(#fwyypa088fphf)" style="stroke:#005F73;stroke-width:1.0416666666666667;"/><text fill="#222222" font-family="Verdana" font-size="52.0833" lengthAdjust="spacing" textLength="257.2917" x="26.0417" y="1619.7128">Recruteur</text><ellipse cx="157.8125" cy="1650.44" fill="url(#gwyypa088fphf1)" filter="url(#fwyypa088fphf)" rx="8.3333" ry="8.3333" style="stroke:#005F73;stroke-width:1.0416666666666667;"/><path d="M157.8125,1658.7733 L157.8125,1686.8983 M144.2708,1667.1066 L171.3542,1667.1066 M157.8125,1686.8983 L144.2708,1702.5233 M157.8125,1686.8983 L171.3542,1702.5233 " fill="none" filter="url(#fwyypa088fphf)" style="stroke:#005F73;stroke-width:1.0416666666666667;"/><rect fill="url(#gwyypa088fphf1)" filter="url(#fwyypa088fphf)" height="136.6943" rx="4.1667" ry="4.1667" style="stroke:#005F73;stroke-width:1.0416666666666667;" width="563.5417" x="980.7292" y="164.4201"/><text fill="#FFFFFF" font-family="Verdana" font-size="41.6667" lengthAdjust="spacing" textLength="186.4583" x="1169.2708" y="224.0189">Frontend</text><text fill="#FFFFFF" font-family="Verdana" font-size="41.6667" lengthAdjust="spacing" textLength="528.125" x="998.4375" y="274.6577">(CreateSessionView.vue)</text><rect fill="url(#gwyypa088fphf1)" filter="url(#fwyypa088fphf)" height="136.6943" rx="4.1667" ry="4.1667" style="stroke:#005F73;stroke-width:1.0416666666666667;" width="563.5417" x="980.7292" y="1556.9331"/><text fill="#FFFFFF" font-family="Verdana" font-size="41.6667" lengthAdjust="spacing" textLength="186.4583" x="1169.2708" y="1616.5319">Frontend</text><text fill="#FFFFFF" font-family="Verdana" font-size="41.6667" lengthAdjust="spacing" textLength="528.125" x="998.4375" y="1667.1707">(CreateSessionView.vue)</text><rect fill="url(#gwyypa088fphf1)" filter="url(#fwyypa088fphf)" height="136.6943" rx="4.1667" ry="4.1667" style="stroke:#005F73;stroke-width:1.0416666666666667;" width="212.5" x="2126.0417" y="164.4201"/><text fill="#FFFFFF" font-family="Verdana" font-size="41.6667" lengthAdjust="spacing" textLength="177.0833" x="2143.75" y="224.0189">API Web</text><text fill="#FFFFFF" font-family="Verdana" font-size="41.6667" lengthAdjust="spacing" textLength="145.8333" x="2159.375" y="274.6577">(Flask)</text><rect fill="url(#gwyypa088fphf1)" filter="url(#fwyypa088fphf)" height="136.6943" rx="4.1667" ry="4.1667" style="stroke:#005F73;stroke-width:1.0416666666666667;" width="212.5" x="2126.0417" y="1556.9331"/><text fill="#FFFFFF" font-family="Verdana" font-size="41.6667" lengthAdjust="spacing" textLength="177.0833" x="2143.75" y="1616.5319">API Web</text><text fill="#FFFFFF" font-family="Verdana" font-size="41.6667" lengthAdjust="spacing" textLength="145.8333" x="2159.375" y="1667.1707">(Flask)</text><rect fill="url(#gwyypa088fphf1)" filter="url(#fwyypa088fphf)" height="136.6943" rx="4.1667" ry="4.1667" style="stroke:#005F73;stroke-width:1.0416666666666667;" width="468.75" x="2880.2083" y="164.4201"/><text fill="#FFFFFF" font-family="Verdana" font-size="41.6667" lengthAdjust="spacing" textLength="155.2083" x="3036.9792" y="224.0189">Service</text><text fill="#FFFFFF" font-family="Verdana" font-size="41.6667" lengthAdjust="spacing" textLength="433.3333" x="2897.9167" y="274.6577">(session_service.py)</text><rect fill="url(#gwyypa088fphf1)" filter="url(#fwyypa088fphf)" height="136.6943" rx="4.1667" ry="4.1667" style="stroke:#005F73;stroke-width:1.0416666666666667;" width="468.75" x="2880.2083" y="1556.9331"/><text fill="#FFFFFF" font-family="Verdana" font-size="41.6667" lengthAdjust="spacing" textLength="155.2083" x="3036.9792" y="1616.5319">Service</text><text fill="#FFFFFF" font-family="Verdana" font-size="41.6667" lengthAdjust="spacing" textLength="433.3333" x="2897.9167" y="1667.1707">(session_service.py)</text><text fill="#222222" font-family="Verdana" font-size="41.6667" lengthAdjust="spacing" textLength="361.4583" x="4652.0833" y="235.4772">Base de Donn&#233;es</text><text fill="#222222" font-family="Verdana" font-size="41.6667" lengthAdjust="spacing" textLength="278.125" x="4693.75" y="286.116">(PostgreSQL)</text><path d="M4817.1875,145.6701 C4817.1875,135.2534 4835.9375,135.2534 4835.9375,135.2534 C4835.9375,135.2534 4854.6875,135.2534 4854.6875,145.6701 L4854.6875,172.7534 C4854.6875,183.1701 4835.9375,183.1701 4835.9375,183.1701 C4835.9375,183.1701 4817.1875,183.1701 4817.1875,172.7534 L4817.1875,145.6701 " fill="url(#gwyypa088fphf1)" filter="url(#fwyypa088fphf)" style="stroke:#2196F3;stroke-width:1.5625;"/><path d="M4817.1875,145.6701 C4817.1875,156.0867 4835.9375,156.0867 4835.9375,156.0867 C4835.9375,156.0867 4854.6875,156.0867 4854.6875,145.6701 " fill="none" style="stroke:#2196F3;stroke-width:1.5625;"/><text fill="#222222" font-family="Verdana" font-size="41.6667" lengthAdjust="spacing" textLength="361.4583" x="4652.0833" y="1609.2402">Base de Donn&#233;es</text><text fill="#222222" font-family="Verdana" font-size="41.6667" lengthAdjust="spacing" textLength="278.125" x="4693.75" y="1659.879">(PostgreSQL)</text><path d="M4817.1875,1689.4608 C4817.1875,1679.0441 4835.9375,1679.0441 4835.9375,1679.0441 C4835.9375,1679.0441 4854.6875,1679.0441 4854.6875,1689.4608 L4854.6875,1716.5441 C4854.6875,1726.9608 4835.9375,1726.9608 4835.9375,1726.9608 C4835.9375,1726.9608 4817.1875,1726.9608 4817.1875,1716.5441 L4817.1875,1689.4608 " fill="url(#gwyypa088fphf1)" filter="url(#fwyypa088fphf)" style="stroke:#2196F3;stroke-width:1.5625;"/><path d="M4817.1875,1689.4608 C4817.1875,1699.8774 4835.9375,1699.8774 4835.9375,1699.8774 C4835.9375,1699.8774 4854.6875,1699.8774 4854.6875,1689.4608 " fill="none" style="stroke:#2196F3;stroke-width:1.5625;"/><rect fill="#FFFFFF" filter="url(#fwyypa088fphf)" height="1059.7493" style="stroke:#0A9396;stroke-width:1.0416666666666667;" width="10.4167" x="1258.8542" y="479.4754"/><rect fill="#FFFFFF" filter="url(#fwyypa088fphf)" height="801.5828" style="stroke:#0A9396;stroke-width:1.0416666666666667;" width="10.4167" x="2228.6458" y="565.5309"/><rect fill="#FFFFFF" filter="url(#fwyypa088fphf)" height="629.4718" style="stroke:#0A9396;stroke-width:1.0416666666666667;" width="10.4167" x="3110.9375" y="651.5864"/><rect fill="#87CEFA" filter="url(#fwyypa088fphf)" height="269.6248" style="stroke:#0A9396;stroke-width:1.0416666666666667;" width="10.4167" x="3116.1458" y="745.9752"/><rect fill="#FFFFFF" filter="url(#fwyypa088fphf)" height="86.0555" style="stroke:#0A9396;stroke-width:1.0416666666666667;" width="10.4167" x="4830.7292" y="837.2391"/><rect fill="#FFFFFF" filter="url(#fwyypa088fphf)" height="86.0555" style="stroke:#0A9396;stroke-width:1.0416666666666667;" width="10.4167" x="4830.7292" y="1108.9472"/><polygon fill="#212529" points="1251.5625,389.2532,1261.9792,393.4199,1251.5625,397.5866,1255.7292,393.4199" style="stroke:#212529;stroke-width:1.0416666666666667;"/><line style="stroke:#212529;stroke-width:3.125;" x1="157.8125" x2="1257.8125" y1="393.4199" y2="393.4199"/><text fill="#222222" font-family="Verdana" font-size="41.6667" font-weight="bold" lengthAdjust="spacing" textLength="75" x="175.5208" y="372.1715">[1]</text><text fill="#222222" font-family="Verdana" font-size="41.6667" lengthAdjust="spacing" textLength="960.4167" x="275.5208" y="372.1715">Remplit le formulaire (candidat, poste, profil)</text><polygon fill="#212529" points="1246.3542,475.3087,1256.7708,479.4754,1246.3542,483.6421,1250.5208,479.4754" style="stroke:#212529;stroke-width:1.0416666666666667;"/><line style="stroke:#212529;stroke-width:3.125;" x1="157.8125" x2="1252.6042" y1="479.4754" y2="479.4754"/><text fill="#222222" font-family="Verdana" font-size="41.6667" font-weight="bold" lengthAdjust="spacing" textLength="75" x="175.5208" y="458.227">[2]</text><text fill="#222222" font-family="Verdana" font-size="41.6667" lengthAdjust="spacing" textLength="598.9583" x="275.5208" y="458.227">Clique sur "Cr&#233;er la session"</text><polygon fill="#212529" points="2216.1458,561.3642,2226.5625,565.5309,2216.1458,569.6976,2220.3125,565.5309" style="stroke:#212529;stroke-width:1.0416666666666667;"/><line style="stroke:#212529;stroke-width:3.125;" x1="1269.2708" x2="2222.3958" y1="565.5309" y2="565.5309"/><text fill="#222222" font-family="Verdana" font-size="41.6667" font-weight="bold" lengthAdjust="spacing" textLength="75" x="1286.9792" y="544.2825">[3]</text><text fill="#222222" font-family="Verdana" font-size="41.6667" lengthAdjust="spacing" textLength="531.25" x="1386.9792" y="544.2825">POST /api/session/create</text><polygon fill="#212529" points="3098.4375,647.4197,3108.8542,651.5864,3098.4375,655.7531,3102.6042,651.5864" style="stroke:#212529;stroke-width:1.0416666666666667;"/><line style="stroke:#212529;stroke-width:3.125;" x1="2239.0625" x2="3104.6875" y1="651.5864" y2="651.5864"/><text fill="#222222" font-family="Verdana" font-size="41.6667" font-weight="bold" lengthAdjust="spacing" textLength="75" x="2256.7708" y="630.338">[4]</text><text fill="#222222" font-family="Verdana" font-size="41.6667" lengthAdjust="spacing" textLength="731.25" x="2356.7708" y="630.338">create_session_for_recruiter(data)</text><line style="stroke:#212529;stroke-width:3.125;" x1="3121.3542" x2="3170.3125" y1="732.4336" y2="732.4336"/><line style="stroke:#212529;stroke-width:3.125;" x1="3170.3125" x2="3170.3125" y1="732.4336" y2="745.9752"/><line style="stroke:#212529;stroke-width:3.125;" x1="3127.6042" x2="3170.3125" y1="745.9752" y2="745.9752"/><polygon fill="#212529" points="3138.0208,741.8086,3127.6042,745.9752,3138.0208,750.1419,3133.8542,745.9752" style="stroke:#212529;stroke-width:1.0416666666666667;"/><text fill="#222222" font-family="Verdana" font-size="41.6667" font-weight="bold" lengthAdjust="spacing" textLength="75" x="3144.2708" y="711.1852">[5]</text><text fill="#222222" font-family="Verdana" font-size="41.6667" lengthAdjust="spacing" textLength="651.0417" x="3244.2708" y="711.1852">select_questions_for_session()</text><polygon fill="#212529" points="4818.2292,833.0724,4828.6458,837.2391,4818.2292,841.4057,4822.3958,837.2391" style="stroke:#212529;stroke-width:1.0416666666666667;"/><line style="stroke:#212529;stroke-width:3.125;" x1="3126.5625" x2="4824.4792" y1="837.2391" y2="837.2391"/><text fill="#222222" font-family="Verdana" font-size="41.6667" font-weight="bold" lengthAdjust="spacing" textLength="75" x="3144.2708" y="815.9907">[6]</text><text fill="#222222" font-family="Verdana" font-size="41.6667" lengthAdjust="spacing" textLength="823.9583" x="3244.2708" y="815.9907">SELECT * FROM Questions WHERE (...)</text><polygon fill="#212529" points="3138.0208,919.1279,3127.6042,923.2946,3138.0208,927.4612,3133.8542,923.2946" style="stroke:#212529;stroke-width:1.0416666666666667;"/><line style="stroke:#212529;stroke-width:3.125;stroke-dasharray:2.0,2.0;" x1="3131.7708" x2="4834.8958" y1="923.2946" y2="923.2946"/><text fill="#222222" font-family="Verdana" font-size="41.6667" font-weight="bold" lengthAdjust="spacing" textLength="75" x="3154.6875" y="902.0462">[7]</text><text fill="#222222" font-family="Verdana" font-size="41.6667" lengthAdjust="spacing" textLength="633.3333" x="3254.6875" y="902.0462">Liste de questions pertinentes</text><line style="stroke:#212529;stroke-width:3.125;stroke-dasharray:2.0,2.0;" x1="3126.5625" x2="3170.3125" y1="1014.5584" y2="1014.5584"/><line style="stroke:#212529;stroke-width:3.125;stroke-dasharray:2.0,2.0;" x1="3170.3125" x2="3170.3125" y1="1014.5584" y2="1028.1001"/><line style="stroke:#212529;stroke-width:3.125;stroke-dasharray:2.0,2.0;" x1="3121.3542" x2="3170.3125" y1="1028.1001" y2="1028.1001"/><polygon fill="#212529" points="3131.7708,1023.9334,3121.3542,1028.1001,3131.7708,1032.2667,3127.6042,1028.1001" style="stroke:#212529;stroke-width:1.0416666666666667;"/><text fill="#222222" font-family="Verdana" font-size="41.6667" font-weight="bold" lengthAdjust="spacing" textLength="75" x="3144.2708" y="993.31">[8]</text><text fill="#222222" font-family="Verdana" font-size="41.6667" lengthAdjust="spacing" textLength="721.875" x="3244.2708" y="993.31">S&#233;lectionne 5 questions au hasard</text><polygon fill="#212529" points="4818.2292,1104.7806,4828.6458,1108.9472,4818.2292,1113.1139,4822.3958,1108.9472" style="stroke:#212529;stroke-width:1.0416666666666667;"/><line style="stroke:#212529;stroke-width:3.125;" x1="3121.3542" x2="4824.4792" y1="1108.9472" y2="1108.9472"/><text fill="#222222" font-family="Verdana" font-size="41.6667" font-weight="bold" lengthAdjust="spacing" textLength="75" x="3139.0625" y="1087.6989">[9]</text><text fill="#222222" font-family="Verdana" font-size="41.6667" lengthAdjust="spacing" textLength="1568.75" x="3239.0625" y="1087.6989">INSERT INTO Sessions (user_id, recruteur_id, profil_id, questions_ids, ...)</text><polygon fill="#212529" points="3132.8125,1190.8361,3122.3958,1195.0027,3132.8125,1199.1694,3128.6458,1195.0027" style="stroke:#212529;stroke-width:1.0416666666666667;"/><line style="stroke:#212529;stroke-width:3.125;stroke-dasharray:2.0,2.0;" x1="3126.5625" x2="4834.8958" y1="1195.0027" y2="1195.0027"/><text fill="#222222" font-family="Verdana" font-size="41.6667" font-weight="bold" lengthAdjust="spacing" textLength="104.1667" x="3149.4792" y="1173.7544">[10]</text><text fill="#222222" font-family="Verdana" font-size="41.6667" lengthAdjust="spacing" textLength="657.2917" x="3278.6458" y="1173.7544">Nouvelle Session (avec son ID)</text><polygon fill="#212529" points="2250.5208,1276.8916,2240.1042,1281.0582,2250.5208,1285.2249,2246.3542,1281.0582" style="stroke:#212529;stroke-width:1.0416666666666667;"/><line style="stroke:#212529;stroke-width:3.125;stroke-dasharray:2.0,2.0;" x1="2244.2708" x2="3115.1042" y1="1281.0582" y2="1281.0582"/><text fill="#222222" font-family="Verdana" font-size="41.6667" font-weight="bold" lengthAdjust="spacing" textLength="104.1667" x="2267.1875" y="1259.8099">[11]</text><text fill="#222222" font-family="Verdana" font-size="41.6667" lengthAdjust="spacing" textLength="289.5833" x="2396.3542" y="1259.8099">Session cr&#233;&#233;e</text><polygon fill="#212529" points="1280.7292,1362.9471,1270.3125,1367.1137,1280.7292,1371.2804,1276.5625,1367.1137" style="stroke:#212529;stroke-width:1.0416666666666667;"/><line style="stroke:#212529;stroke-width:3.125;stroke-dasharray:2.0,2.0;" x1="1274.4792" x2="2232.8125" y1="1367.1137" y2="1367.1137"/><text fill="#222222" font-family="Verdana" font-size="41.6667" font-weight="bold" lengthAdjust="spacing" textLength="104.1667" x="1297.3958" y="1345.8654">[12]</text><text fill="#222222" font-family="Verdana" font-size="41.6667" font-weight="bold" lengthAdjust="spacing" textLength="285.4167" x="1426.5625" y="1345.8654">201 Created</text><text fill="#222222" font-family="Verdana" font-size="41.6667" lengthAdjust="spacing" textLength="484.375" x="1726.5625" y="1345.8654">(avec ID de la session)</text><polygon fill="#212529" points="169.2708,1449.0026,158.8542,1453.1693,169.2708,1457.3359,165.1042,1453.1693" style="stroke:#212529;stroke-width:1.0416666666666667;"/><line style="stroke:#212529;stroke-width:3.125;" x1="163.0208" x2="1257.8125" y1="1453.1693" y2="1453.1693"/><text fill="#222222" font-family="Verdana" font-size="41.6667" font-weight="bold" lengthAdjust="spacing" textLength="104.1667" x="185.9375" y="1431.9209">[13]</text><text fill="#222222" font-family="Verdana" font-size="41.6667" lengthAdjust="spacing" textLength="748.9583" x="315.1042" y="1431.9209">Affiche "Session cr&#233;&#233;e avec succ&#232;s"</text><polygon fill="#212529" points="169.2708,1535.0581,158.8542,1539.2248,169.2708,1543.3914,165.1042,1539.2248" style="stroke:#212529;stroke-width:1.0416666666666667;"/><line style="stroke:#212529;stroke-width:3.125;" x1="163.0208" x2="1263.0208" y1="1539.2248" y2="1539.2248"/><text fill="#222222" font-family="Verdana" font-size="41.6667" font-weight="bold" lengthAdjust="spacing" textLength="104.1667" x="185.9375" y="1517.9764">[14]</text><text fill="#222222" font-family="Verdana" font-size="41.6667" lengthAdjust="spacing" textLength="569.7917" x="315.1042" y="1517.9764">Redirige vers le Dashboard</text><!--SRC=[XLJRRjf047ttLqoTXuAL449Agw0gKeoXGQ89iMdpq5PeiGTOnTZkxfeehVe_pNVmOvsr3RPJglA0BpFdxCoPCtwbLhX6M3E5WZF3a0yyIfXWQt1mmT9G3UD8UVm7mfjs9JZbAiHzgDkjXFeiKJoEoc0LTnChF1ovybKi3eS-IVIPhE4CfGi0ot8uMr8EjH0WUDldxob6Fi89zCNscUb287YTHXH3AVKJKK8QWOk-I1Mcmh8CWwKgZjBr70MOx-UNNzhVpChn4WlIdmRGBolKZaM0eX-7iO2ZThkxU7UU1ITCAExpX4NgNobZli0nZx0UPnVd5szpVY7Yn-9rvwpJxLnahp-8E4skaH562r7d_KKzwBBAje19S8saB0VCeI0SHi7NgD4NI0Cl9FdCyR6rIR5fQj1mK4TTJKPmZtC23KCc7_8a-qMIXsB3VQGacNFEPFwcbJpbY2B329XYSneccBR-fw4vSHHjdr4IU19BjHJetOrpa6CRXWidbrHKZrfR9o5NG6DVn6ATXemBX8RFee0Jwp4aX4QwY7Z1msO9x8US1WYIH36rAsZA8OEYK5CBnpUaXkxS60uqoYRKvDQRmYbB-6cHUUfdefNv989XP_b5Spt8KsOx4QZEcT0JuRHT3TrwiuJl536AcngHn11zDQEwfVQmpAWAsiRV970qvikLyXwUx32jKpfs3xp1UD2VWWL3z_OZtEr8uVvwu0wWqMgrAfGakcF3IRMQCITbzQpszK22DFu8oL3I2B0AtfzTPQ3Dr0qHb5QnM-5XAQoOP2AeiXoIHlSnkl46xfGkqzlTFajefEIr6G-EGUpCdptbFiXkInbv88_Xl_tUnEa6mx3yQ3JO1dsGT3TocY_whJMidRC3-UGrSjl1nhHl2djQLgTz1lb61fPLd3LojDwbJskdsdkdkZsuMYoulqAzXBLp8QyvzVtjRscM-Iu6NF0bmWQ5rDlaCBcQnoz6GClm1m00]--></g></svg>