<?xml version="1.0" encoding="us-ascii" standalone="no"?><svg xmlns="http://www.w3.org/2000/svg" xmlns:xlink="http://www.w3.org/1999/xlink" contentStyleType="text/css" height="3028.125px" preserveAspectRatio="none" style="width:7726px;height:3028px;" version="1.1" viewBox="0 0 7726 3028" width="7726.0417px" zoomAndPan="magnify"><defs><linearGradient id="g194ekrv8rv3oy0" x1="50%" x2="50%" y1="0%" y2="100%"><stop offset="0%" stop-color="#FFFFFF"/><stop offset="100%" stop-color="#FFFFFF"/></linearGradient><filter height="300%" id="f194ekrv8rv3oy" width="300%" x="-1" y="-1"><feGaussianBlur result="blurOut" stdDeviation="2.0833333333333335"/><feColorMatrix in="blurOut" result="blurOut2" type="matrix" values="0 0 0 0 0 0 0 0 0 0 0 0 0 0 0 0 0 0 .4 0"/><feOffset dx="4.166666666666667" dy="4.166666666666667" in="blurOut2" result="blurOut3"/><feBlend in="SourceGraphic" in2="blurOut3" mode="normal"/></filter><linearGradient id="g194ekrv8rv3oy1" x1="50%" x2="50%" y1="0%" y2="100%"><stop offset="0%" stop-color="#4DABF5"/><stop offset="100%" stop-color="#2196F3"/></linearGradient></defs><g><rect fill="url(#g194ekrv8rv3oy0)" height="102.9617" id="_title" rx="4.1667" ry="4.1667" style="stroke:#CCCCCC;stroke-width:1.0416666666666667;" width="1766.6667" x="2989.3229" y="20.8333"/><text fill="#2196F3" font-family="Verdana" font-size="57.2917" font-weight="bold" lengthAdjust="spacing" textLength="1733.3333" x="3005.9896" y="95.0994">Diagramme de S&#233;quence - Flux d'Analyse Asynchrone</text><rect fill="#FFFFFF" filter="url(#f194ekrv8rv3oy)" height="779.6244" style="stroke:#0A9396;stroke-width:1.0416666666666667;" width="10.4167" x="1463.0208" y="469.3782"/><rect fill="#FFFFFF" filter="url(#f194ekrv8rv3oy)" height="556.8746" style="stroke:#0A9396;stroke-width:1.0416666666666667;" width="10.4167" x="2677.6042" y="580.7531"/><rect fill="#FFFFFF" filter="url(#f194ekrv8rv3oy)" height="111.3749" style="stroke:#0A9396;stroke-width:1.0416666666666667;" width="10.4167" x="4125.5208" y="914.8778"/><rect fill="#FFFFFF" filter="url(#f194ekrv8rv3oy)" height="1281.3741" style="stroke:#0A9396;stroke-width:1.0416666666666667;" width="10.4167" x="5653.6458" y="1486.3358"/><rect fill="#FFFFFF" filter="url(#f194ekrv8rv3oy)" height="111.3749" style="stroke:#0A9396;stroke-width:1.0416666666666667;" width="10.4167" x="7441.1458" y="692.128"/><rect fill="#FFFFFF" filter="url(#f194ekrv8rv3oy)" height="111.3749" style="stroke:#0A9396;stroke-width:1.0416666666666667;" width="10.4167" x="7441.1458" y="1597.7107"/><rect fill="#FFFFFF" filter="url(#f194ekrv8rv3oy)" height="111.3749" style="stroke:#0A9396;stroke-width:1.0416666666666667;" width="10.4167" x="7441.1458" y="2433.5851"/><rect fill="#FFFFFF" filter="url(#f194ekrv8rv3oy)" height="111.3749" style="stroke:#0A9396;stroke-width:1.0416666666666667;" width="10.4167" x="7441.1458" y="2656.3349"/><rect fill="url(#g194ekrv8rv3oy0)" filter="url(#f194ekrv8rv3oy)" height="598.5413" rx="4.1667" ry="4.1667" style="stroke:#2196F3;stroke-width:1.0416666666666667;" width="1642.1875" x="5459.375" y="1724.7106"/><line style="stroke:#0A9396;stroke-width:1.0416666666666667;stroke-dasharray:5.0,5.0;" x1="382.2917" x2="382.2917" y1="355.9199" y2="1257.3359"/><line style="stroke:#0A9396;stroke-width:1.0416666666666667;stroke-dasharray:1.0,4.0;" x1="382.2917" x2="382.2917" y1="1257.3359" y2="1383.2942"/><line style="stroke:#0A9396;stroke-width:1.0416666666666667;stroke-dasharray:5.0,5.0;" x1="382.2917" x2="382.2917" y1="1383.2942" y2="2786.4599"/><line style="stroke:#0A9396;stroke-width:1.0416666666666667;stroke-dasharray:5.0,5.0;" x1="1468.2292" x2="1468.2292" y1="355.9199" y2="1257.3359"/><line style="stroke:#0A9396;stroke-width:1.0416666666666667;stroke-dasharray:1.0,4.0;" x1="1468.2292" x2="1468.2292" y1="1257.3359" y2="1383.2942"/><line style="stroke:#0A9396;stroke-width:1.0416666666666667;stroke-dasharray:5.0,5.0;" x1="1468.2292" x2="1468.2292" y1="1383.2942" y2="2786.4599"/><line style="stroke:#0A9396;stroke-width:1.0416666666666667;stroke-dasharray:5.0,5.0;" x1="2682.2917" x2="2682.2917" y1="355.9199" y2="1257.3359"/><line style="stroke:#0A9396;stroke-width:1.0416666666666667;stroke-dasharray:1.0,4.0;" x1="2682.2917" x2="2682.2917" y1="1257.3359" y2="1383.2942"/><line style="stroke:#0A9396;stroke-width:1.0416666666666667;stroke-dasharray:5.0,5.0;" x1="2682.2917" x2="2682.2917" y1="1383.2942" y2="2786.4599"/><line style="stroke:#0A9396;stroke-width:1.0416666666666667;stroke-dasharray:5.0,5.0;" x1="4130.2083" x2="4130.2083" y1="355.9199" y2="1257.3359"/><line style="stroke:#0A9396;stroke-width:1.0416666666666667;stroke-dasharray:1.0,4.0;" x1="4130.2083" x2="4130.2083" y1="1257.3359" y2="1383.2942"/><line style="stroke:#0A9396;stroke-width:1.0416666666666667;stroke-dasharray:5.0,5.0;" x1="4130.2083" x2="4130.2083" y1="1383.2942" y2="2786.4599"/><line style="stroke:#0A9396;stroke-width:1.0416666666666667;stroke-dasharray:5.0,5.0;" x1="5658.3333" x2="5658.3333" y1="355.9199" y2="1257.3359"/><line style="stroke:#0A9396;stroke-width:1.0416666666666667;stroke-dasharray:1.0,4.0;" x1="5658.3333" x2="5658.3333" y1="1257.3359" y2="1383.2942"/><line style="stroke:#0A9396;stroke-width:1.0416666666666667;stroke-dasharray:5.0,5.0;" x1="5658.3333" x2="5658.3333" y1="1383.2942" y2="2786.4599"/><line style="stroke:#0A9396;stroke-width:1.0416666666666667;stroke-dasharray:5.0,5.0;" x1="7446.3542" x2="7446.3542" y1="355.9199" y2="1257.3359"/><line style="stroke:#0A9396;stroke-width:1.0416666666666667;stroke-dasharray:1.0,4.0;" x1="7446.3542" x2="7446.3542" y1="1257.3359" y2="1383.2942"/><line style="stroke:#0A9396;stroke-width:1.0416666666666667;stroke-dasharray:5.0,5.0;" x1="7446.3542" x2="7446.3542" y1="1383.2942" y2="2786.4599"/><text fill="#222222" font-family="Verdana" font-size="62.5" lengthAdjust="spacing" textLength="707.2917" x="26.0417" y="332.3807">Utilisateur (Recruteur)</text><ellipse cx="382.8125" cy="201.8366" fill="url(#g194ekrv8rv3oy1)" filter="url(#f194ekrv8rv3oy)" rx="8.3333" ry="8.3333" style="stroke:#005F73;stroke-width:1.0416666666666667;"/><path d="M382.8125,210.17 L382.8125,238.295 M369.2708,218.5033 L396.3542,218.5033 M382.8125,238.295 L369.2708,253.92 M382.8125,238.295 L396.3542,253.92 " fill="none" filter="url(#f194ekrv8rv3oy)" style="stroke:#005F73;stroke-width:1.0416666666666667;"/><text fill="#222222" font-family="Verdana" font-size="62.5" lengthAdjust="spacing" textLength="707.2917" x="26.0417" y="2858.6706">Utilisateur (Recruteur)</text><ellipse cx="382.8125" cy="2891.5848" fill="url(#g194ekrv8rv3oy1)" filter="url(#f194ekrv8rv3oy)" rx="8.3333" ry="8.3333" style="stroke:#005F73;stroke-width:1.0416666666666667;"/><path d="M382.8125,2899.9181 L382.8125,2928.0431 M369.2708,2908.2514 L396.3542,2908.2514 M382.8125,2928.0431 L369.2708,2943.6681 M382.8125,2928.0431 L396.3542,2943.6681 " fill="none" filter="url(#f194ekrv8rv3oy)" style="stroke:#005F73;stroke-width:1.0416666666666667;"/><rect fill="url(#g194ekrv8rv3oy1)" filter="url(#f194ekrv8rv3oy)" height="187.3332" rx="4.1667" ry="4.1667" style="stroke:#005F73;stroke-width:1.0416666666666667;" width="315.625" x="1308.8542" y="164.4201"/><text fill="#FFFFFF" font-family="Verdana" font-size="62.5" lengthAdjust="spacing" textLength="280.2083" x="1326.5625" y="244.9641">Frontend</text><text fill="#FFFFFF" font-family="Verdana" font-size="62.5" lengthAdjust="spacing" textLength="253.125" x="1340.1042" y="320.9223">(Vue.js)</text><rect fill="url(#g194ekrv8rv3oy1)" filter="url(#f194ekrv8rv3oy)" height="187.3332" rx="4.1667" ry="4.1667" style="stroke:#005F73;stroke-width:1.0416666666666667;" width="315.625" x="1308.8542" y="2785.4182"/><text fill="#FFFFFF" font-family="Verdana" font-size="62.5" lengthAdjust="spacing" textLength="280.2083" x="1326.5625" y="2865.9622">Frontend</text><text fill="#FFFFFF" font-family="Verdana" font-size="62.5" lengthAdjust="spacing" textLength="253.125" x="1340.1042" y="2941.9205">(Vue.js)</text><rect fill="url(#g194ekrv8rv3oy1)" filter="url(#f194ekrv8rv3oy)" height="187.3332" rx="4.1667" ry="4.1667" style="stroke:#005F73;stroke-width:1.0416666666666667;" width="302.0833" x="2530.2083" y="164.4201"/><text fill="#FFFFFF" font-family="Verdana" font-size="62.5" lengthAdjust="spacing" textLength="266.6667" x="2547.9167" y="244.9641">API Web</text><text fill="#FFFFFF" font-family="Verdana" font-size="62.5" lengthAdjust="spacing" textLength="215.625" x="2573.4375" y="320.9223">(Flask)</text><rect fill="url(#g194ekrv8rv3oy1)" filter="url(#f194ekrv8rv3oy)" height="187.3332" rx="4.1667" ry="4.1667" style="stroke:#005F73;stroke-width:1.0416666666666667;" width="302.0833" x="2530.2083" y="2785.4182"/><text fill="#FFFFFF" font-family="Verdana" font-size="62.5" lengthAdjust="spacing" textLength="266.6667" x="2547.9167" y="2865.9622">API Web</text><text fill="#FFFFFF" font-family="Verdana" font-size="62.5" lengthAdjust="spacing" textLength="215.625" x="2573.4375" y="2941.9205">(Flask)</text><rect fill="url(#g194ekrv8rv3oy1)" filter="url(#f194ekrv8rv3oy)" height="187.3332" rx="4.1667" ry="4.1667" style="stroke:#005F73;stroke-width:1.0416666666666667;" width="260.4167" x="3998.9583" y="164.4201"/><text fill="#FFFFFF" font-family="Verdana" font-size="62.5" lengthAdjust="spacing" textLength="209.375" x="4024.4792" y="244.9641">Broker</text><text fill="#FFFFFF" font-family="Verdana" font-size="62.5" lengthAdjust="spacing" textLength="225" x="4016.6667" y="320.9223">(Redis)</text><rect fill="url(#g194ekrv8rv3oy1)" filter="url(#f194ekrv8rv3oy)" height="187.3332" rx="4.1667" ry="4.1667" style="stroke:#005F73;stroke-width:1.0416666666666667;" width="260.4167" x="3998.9583" y="2785.4182"/><text fill="#FFFFFF" font-family="Verdana" font-size="62.5" lengthAdjust="spacing" textLength="209.375" x="4024.4792" y="2865.9622">Broker</text><text fill="#FFFFFF" font-family="Verdana" font-size="62.5" lengthAdjust="spacing" textLength="225" x="4016.6667" y="2941.9205">(Redis)</text><rect fill="url(#g194ekrv8rv3oy1)" filter="url(#f194ekrv8rv3oy)" height="187.3332" rx="4.1667" ry="4.1667" style="stroke:#005F73;stroke-width:1.0416666666666667;" width="291.6667" x="5511.4583" y="164.4201"/><text fill="#FFFFFF" font-family="Verdana" font-size="62.5" lengthAdjust="spacing" textLength="228.125" x="5543.2292" y="244.9641">Worker</text><text fill="#FFFFFF" font-family="Verdana" font-size="62.5" lengthAdjust="spacing" textLength="256.25" x="5529.1667" y="320.9223">(Celery)</text><rect fill="url(#g194ekrv8rv3oy1)" filter="url(#f194ekrv8rv3oy)" height="187.3332" rx="4.1667" ry="4.1667" style="stroke:#005F73;stroke-width:1.0416666666666667;" width="291.6667" x="5511.4583" y="2785.4182"/><text fill="#FFFFFF" font-family="Verdana" font-size="62.5" lengthAdjust="spacing" textLength="228.125" x="5543.2292" y="2865.9622">Worker</text><text fill="#FFFFFF" font-family="Verdana" font-size="62.5" lengthAdjust="spacing" textLength="256.25" x="5529.1667" y="2941.9205">(Celery)</text><text fill="#222222" font-family="Verdana" font-size="62.5" lengthAdjust="spacing" textLength="541.6667" x="7172.3958" y="256.4224">Base de Donn&#233;es</text><text fill="#222222" font-family="Verdana" font-size="62.5" lengthAdjust="spacing" textLength="417.7083" x="7234.375" y="332.3807">(PostgreSQL)</text><path d="M7427.6042,145.6701 C7427.6042,135.2534 7446.3542,135.2534 7446.3542,135.2534 C7446.3542,135.2534 7465.1042,135.2534 7465.1042,145.6701 L7465.1042,172.7534 C7465.1042,183.1701 7446.3542,183.1701 7446.3542,183.1701 C7446.3542,183.1701 7427.6042,183.1701 7427.6042,172.7534 L7427.6042,145.6701 " fill="url(#g194ekrv8rv3oy1)" filter="url(#f194ekrv8rv3oy)" style="stroke:#2196F3;stroke-width:1.5625;"/><path d="M7427.6042,145.6701 C7427.6042,156.0867 7446.3542,156.0867 7446.3542,156.0867 C7446.3542,156.0867 7465.1042,156.0867 7465.1042,145.6701 " fill="none" style="stroke:#2196F3;stroke-width:1.5625;"/><text fill="#222222" font-family="Verdana" font-size="62.5" lengthAdjust="spacing" textLength="541.6667" x="7172.3958" y="2858.6706">Base de Donn&#233;es</text><text fill="#222222" font-family="Verdana" font-size="62.5" lengthAdjust="spacing" textLength="417.7083" x="7234.375" y="2934.6288">(PostgreSQL)</text><path d="M7427.6042,2968.5847 C7427.6042,2958.168 7446.3542,2958.168 7446.3542,2958.168 C7446.3542,2958.168 7465.1042,2958.168 7465.1042,2968.5847 L7465.1042,2995.668 C7465.1042,3006.0847 7446.3542,3006.0847 7446.3542,3006.0847 C7446.3542,3006.0847 7427.6042,3006.0847 7427.6042,2995.668 L7427.6042,2968.5847 " fill="url(#g194ekrv8rv3oy1)" filter="url(#f194ekrv8rv3oy)" style="stroke:#2196F3;stroke-width:1.5625;"/><path d="M7427.6042,2968.5847 C7427.6042,2979.0014 7446.3542,2979.0014 7446.3542,2979.0014 C7446.3542,2979.0014 7465.1042,2979.0014 7465.1042,2968.5847 " fill="none" style="stroke:#2196F3;stroke-width:1.5625;"/><rect fill="#FFFFFF" filter="url(#f194ekrv8rv3oy)" height="779.6244" style="stroke:#0A9396;stroke-width:1.0416666666666667;" width="10.4167" x="1463.0208" y="469.3782"/><rect fill="#FFFFFF" filter="url(#f194ekrv8rv3oy)" height="556.8746" style="stroke:#0A9396;stroke-width:1.0416666666666667;" width="10.4167" x="2677.6042" y="580.7531"/><rect fill="#FFFFFF" filter="url(#f194ekrv8rv3oy)" height="111.3749" style="stroke:#0A9396;stroke-width:1.0416666666666667;" width="10.4167" x="4125.5208" y="914.8778"/><rect fill="#FFFFFF" filter="url(#f194ekrv8rv3oy)" height="1281.3741" style="stroke:#0A9396;stroke-width:1.0416666666666667;" width="10.4167" x="5653.6458" y="1486.3358"/><rect fill="#FFFFFF" filter="url(#f194ekrv8rv3oy)" height="111.3749" style="stroke:#0A9396;stroke-width:1.0416666666666667;" width="10.4167" x="7441.1458" y="692.128"/><rect fill="#FFFFFF" filter="url(#f194ekrv8rv3oy)" height="111.3749" style="stroke:#0A9396;stroke-width:1.0416666666666667;" width="10.4167" x="7441.1458" y="1597.7107"/><rect fill="#FFFFFF" filter="url(#f194ekrv8rv3oy)" height="111.3749" style="stroke:#0A9396;stroke-width:1.0416666666666667;" width="10.4167" x="7441.1458" y="2433.5851"/><rect fill="#FFFFFF" filter="url(#f194ekrv8rv3oy)" height="111.3749" style="stroke:#0A9396;stroke-width:1.0416666666666667;" width="10.4167" x="7441.1458" y="2656.3349"/><polygon fill="#212529" points="1450.5208,465.2115,1460.9375,469.3782,1450.5208,473.5448,1454.6875,469.3782" style="stroke:#212529;stroke-width:1.0416666666666667;"/><line style="stroke:#212529;stroke-width:3.125;" x1="382.8125" x2="1456.7708" y1="469.3782" y2="469.3782"/><text fill="#222222" font-family="Verdana" font-size="62.5" font-weight="bold" lengthAdjust="spacing" textLength="113.5417" x="400.5208" y="443.7556">[1]</text><text fill="#222222" font-family="Verdana" font-size="62.5" lengthAdjust="spacing" textLength="901.0417" x="539.0625" y="443.7556">Clique sur "Lancer l'Analyse"</text><polygon fill="#212529" points="2665.1042,576.5864,2675.5208,580.7531,2665.1042,584.9197,2669.2708,580.7531" style="stroke:#212529;stroke-width:1.0416666666666667;"/><line style="stroke:#212529;stroke-width:3.125;" x1="1473.4375" x2="2671.3542" y1="580.7531" y2="580.7531"/><text fill="#222222" font-family="Verdana" font-size="62.5" font-weight="bold" lengthAdjust="spacing" textLength="113.5417" x="1491.1458" y="555.1305">[2]</text><text fill="#222222" font-family="Verdana" font-size="62.5" lengthAdjust="spacing" textLength="1025" x="1629.6875" y="555.1305">POST /api/report/generate/&lt;id&gt;</text><polygon fill="#212529" points="7428.6458,687.9613,7439.0625,692.128,7428.6458,696.2947,7432.8125,692.128" style="stroke:#212529;stroke-width:1.0416666666666667;"/><line style="stroke:#212529;stroke-width:3.125;" x1="2688.0208" x2="7434.8958" y1="692.128" y2="692.128"/><text fill="#222222" font-family="Verdana" font-size="62.5" font-weight="bold" lengthAdjust="spacing" textLength="113.5417" x="2705.7292" y="666.5054">[3]</text><text fill="#222222" font-family="Verdana" font-size="62.5" lengthAdjust="spacing" textLength="1275" x="2844.2708" y="666.5054">UPDATE Sessions SET statut='analyzing'</text><polygon fill="#212529" points="2699.4792,799.3362,2689.0625,803.5029,2699.4792,807.6696,2695.3125,803.5029" style="stroke:#212529;stroke-width:1.0416666666666667;"/><line style="stroke:#212529;stroke-width:3.125;stroke-dasharray:2.0,2.0;" x1="2693.2292" x2="7445.3125" y1="803.5029" y2="803.5029"/><text fill="#222222" font-family="Verdana" font-size="62.5" font-weight="bold" lengthAdjust="spacing" textLength="113.5417" x="2716.1458" y="777.8804">[4]</text><text fill="#222222" font-family="Verdana" font-size="62.5" lengthAdjust="spacing" textLength="216.6667" x="2854.6875" y="777.8804">Succ&#232;s</text><polygon fill="#212529" points="4113.0208,910.7112,4123.4375,914.8778,4113.0208,919.0445,4117.1875,914.8778" style="stroke:#212529;stroke-width:1.0416666666666667;"/><line style="stroke:#212529;stroke-width:3.125;" x1="2688.0208" x2="4119.2708" y1="914.8778" y2="914.8778"/><text fill="#222222" font-family="Verdana" font-size="62.5" font-weight="bold" lengthAdjust="spacing" textLength="113.5417" x="2705.7292" y="889.2553">[5]</text><text fill="#222222" font-family="Verdana" font-size="62.5" lengthAdjust="spacing" textLength="1258.3333" x="2844.2708" y="889.2553">Envoie la t&#226;che `run_analysis_task(id)`</text><polygon fill="#212529" points="2699.4792,1022.0861,2689.0625,1026.2527,2699.4792,1030.4194,2695.3125,1026.2527" style="stroke:#212529;stroke-width:1.0416666666666667;"/><line style="stroke:#212529;stroke-width:3.125;stroke-dasharray:2.0,2.0;" x1="2693.2292" x2="4129.6875" y1="1026.2527" y2="1026.2527"/><text fill="#222222" font-family="Verdana" font-size="62.5" font-weight="bold" lengthAdjust="spacing" textLength="113.5417" x="2716.1458" y="1000.6302">[6]</text><text fill="#222222" font-family="Verdana" font-size="62.5" lengthAdjust="spacing" textLength="740.625" x="2854.6875" y="1000.6302">Acquittement (Task ID)</text><polygon fill="#212529" points="1484.8958,1133.461,1474.4792,1137.6277,1484.8958,1141.7943,1480.7292,1137.6277" style="stroke:#212529;stroke-width:1.0416666666666667;"/><line style="stroke:#212529;stroke-width:3.125;stroke-dasharray:2.0,2.0;" x1="1478.6458" x2="2681.7708" y1="1137.6277" y2="1137.6277"/><text fill="#222222" font-family="Verdana" font-size="62.5" font-weight="bold" lengthAdjust="spacing" textLength="113.5417" x="1501.5625" y="1112.0051">[7]</text><text fill="#222222" font-family="Verdana" font-size="62.5" font-weight="bold" lengthAdjust="spacing" textLength="477.0833" x="1640.1042" y="1112.0051">202 Accepted</text><polygon fill="#212529" points="394.2708,1244.8359,383.8542,1249.0026,394.2708,1253.1693,390.1042,1249.0026" style="stroke:#212529;stroke-width:1.0416666666666667;"/><line style="stroke:#212529;stroke-width:3.125;" x1="388.0208" x2="1467.1875" y1="1249.0026" y2="1249.0026"/><text fill="#222222" font-family="Verdana" font-size="62.5" font-weight="bold" lengthAdjust="spacing" textLength="113.5417" x="410.9375" y="1223.38">[8]</text><text fill="#222222" font-family="Verdana" font-size="62.5" lengthAdjust="spacing" textLength="894.7917" x="549.4792" y="1223.38">Affiche "Analyse en cours..."</text><text fill="#FFFFFF" font-family="Verdana" font-size="62.5" lengthAdjust="spacing" textLength="647.9167" x="3590.625" y="1345.1716">5 secondes plus tard</text><polygon fill="#212529" points="4142.1875,1482.1691,4131.7708,1486.3358,4142.1875,1490.5024,4138.0208,1486.3358" style="stroke:#212529;stroke-width:1.0416666666666667;"/><line style="stroke:#212529;stroke-width:3.125;" x1="4135.9375" x2="5652.6042" y1="1486.3358" y2="1486.3358"/><text fill="#222222" font-family="Verdana" font-size="62.5" font-weight="bold" lengthAdjust="spacing" textLength="113.5417" x="4158.8542" y="1460.7132">[9]</text><text fill="#222222" font-family="Verdana" font-size="62.5" lengthAdjust="spacing" textLength="1343.75" x="4297.3958" y="1460.7132">R&#233;cup&#232;re la t&#226;che `run_analysis_task(id)`</text><polygon fill="#212529" points="7428.6458,1593.544,7439.0625,1597.7107,7428.6458,1601.8773,7432.8125,1597.7107" style="stroke:#212529;stroke-width:1.0416666666666667;"/><line style="stroke:#212529;stroke-width:3.125;" x1="5664.0625" x2="7434.8958" y1="1597.7107" y2="1597.7107"/><text fill="#222222" font-family="Verdana" font-size="62.5" font-weight="bold" lengthAdjust="spacing" textLength="158.3333" x="5681.7708" y="1572.0881">[10]</text><text fill="#222222" font-family="Verdana" font-size="62.5" lengthAdjust="spacing" textLength="904.1667" x="5865.1042" y="1572.0881">GET Session, Questions, etc.</text><polygon fill="#212529" points="5675.5208,1704.9189,5665.1042,1709.0856,5675.5208,1713.2523,5671.3542,1709.0856" style="stroke:#212529;stroke-width:1.0416666666666667;"/><line style="stroke:#212529;stroke-width:3.125;stroke-dasharray:2.0,2.0;" x1="5669.2708" x2="7445.3125" y1="1709.0856" y2="1709.0856"/><text fill="#222222" font-family="Verdana" font-size="62.5" font-weight="bold" lengthAdjust="spacing" textLength="158.3333" x="5692.1875" y="1683.463">[11]</text><text fill="#222222" font-family="Verdana" font-size="62.5" lengthAdjust="spacing" textLength="656.25" x="5875.5208" y="1683.463">Donn&#233;es n&#233;cessaires</text><path d="M5463.5417,1724.7106 L6629.1667,1724.7106 L6629.1667,1813.1688 L6618.75,1823.5855 L5459.375,1823.5855 L5459.375,1728.8773 A4.1667,4.1667 0 0 1 5463.5417,1724.7106 " fill="#FFFFFF" style="stroke:#666666;stroke-width:1.0416666666666667;"/><rect fill="none" height="598.5413" rx="4.1667" ry="4.1667" style="stroke:#2196F3;stroke-width:1.0416666666666667;" width="1642.1875" x="5459.375" y="1724.7106"/><text fill="#005F73" font-family="Verdana" font-size="62.5" font-weight="bold" lengthAdjust="spacing" textLength="1102.0833" x="5485.4167" y="1799.0046">Pipeline d'Analyse Multimodale</text><line style="stroke:#212529;stroke-width:3.125;" x1="5664.0625" x2="5707.8125" y1="1926.6271" y2="1926.6271"/><line style="stroke:#212529;stroke-width:3.125;" x1="5707.8125" x2="5707.8125" y1="1926.6271" y2="1940.1688"/><line style="stroke:#212529;stroke-width:3.125;" x1="5665.1042" x2="5707.8125" y1="1940.1688" y2="1940.1688"/><polygon fill="#212529" points="5675.5208,1936.0021,5665.1042,1940.1688,5675.5208,1944.3354,5671.3542,1940.1688" style="stroke:#212529;stroke-width:1.0416666666666667;"/><text fill="#222222" font-family="Verdana" font-size="62.5" font-weight="bold" lengthAdjust="spacing" textLength="158.3333" x="5681.7708" y="1901.0045">[12]</text><text fill="#222222" font-family="Verdana" font-size="62.5" font-weight="bold" lengthAdjust="spacing" textLength="405.2083" x="5865.1042" y="1901.0045">VideoAgent</text><text fill="#222222" font-family="Verdana" font-size="62.5" lengthAdjust="spacing" textLength="621.875" x="6270.3125" y="1901.0045">: Analyse du regard</text><line style="stroke:#212529;stroke-width:3.125;" x1="5664.0625" x2="5707.8125" y1="2051.5437" y2="2051.5437"/><line style="stroke:#212529;stroke-width:3.125;" x1="5707.8125" x2="5707.8125" y1="2051.5437" y2="2065.0853"/><line style="stroke:#212529;stroke-width:3.125;" x1="5665.1042" x2="5707.8125" y1="2065.0853" y2="2065.0853"/><polygon fill="#212529" points="5675.5208,2060.9187,5665.1042,2065.0853,5675.5208,2069.252,5671.3542,2065.0853" style="stroke:#212529;stroke-width:1.0416666666666667;"/><text fill="#222222" font-family="Verdana" font-size="62.5" font-weight="bold" lengthAdjust="spacing" textLength="158.3333" x="5681.7708" y="2025.9211">[13]</text><text fill="#222222" font-family="Verdana" font-size="62.5" font-weight="bold" lengthAdjust="spacing" textLength="345.8333" x="5865.1042" y="2025.9211">NLPAgent</text><text fill="#222222" font-family="Verdana" font-size="62.5" lengthAdjust="spacing" textLength="458.3333" x="6210.9375" y="2025.9211">: Transcription</text><line style="stroke:#212529;stroke-width:3.125;" x1="5664.0625" x2="5707.8125" y1="2176.4603" y2="2176.4603"/><line style="stroke:#212529;stroke-width:3.125;" x1="5707.8125" x2="5707.8125" y1="2176.4603" y2="2190.0019"/><line style="stroke:#212529;stroke-width:3.125;" x1="5665.1042" x2="5707.8125" y1="2190.0019" y2="2190.0019"/><polygon fill="#212529" points="5675.5208,2185.8353,5665.1042,2190.0019,5675.5208,2194.1686,5671.3542,2190.0019" style="stroke:#212529;stroke-width:1.0416666666666667;"/><text fill="#222222" font-family="Verdana" font-size="62.5" font-weight="bold" lengthAdjust="spacing" textLength="158.3333" x="5681.7708" y="2150.8377">[14]</text><text fill="#222222" font-family="Verdana" font-size="62.5" font-weight="bold" lengthAdjust="spacing" textLength="409.375" x="5865.1042" y="2150.8377">AudioAgent</text><text fill="#222222" font-family="Verdana" font-size="62.5" lengthAdjust="spacing" textLength="514.5833" x="6274.4792" y="2150.8377">: Analyse vocale</text><line style="stroke:#212529;stroke-width:3.125;" x1="5664.0625" x2="5707.8125" y1="2301.3769" y2="2301.3769"/><line style="stroke:#212529;stroke-width:3.125;" x1="5707.8125" x2="5707.8125" y1="2301.3769" y2="2314.9185"/><line style="stroke:#212529;stroke-width:3.125;" x1="5665.1042" x2="5707.8125" y1="2314.9185" y2="2314.9185"/><polygon fill="#212529" points="5675.5208,2310.7519,5665.1042,2314.9185,5675.5208,2319.0852,5671.3542,2314.9185" style="stroke:#212529;stroke-width:1.0416666666666667;"/><text fill="#222222" font-family="Verdana" font-size="62.5" font-weight="bold" lengthAdjust="spacing" textLength="158.3333" x="5681.7708" y="2275.7543">[15]</text><text fill="#222222" font-family="Verdana" font-size="62.5" font-weight="bold" lengthAdjust="spacing" textLength="495.8333" x="5865.1042" y="2275.7543">EmotionAgent</text><text fill="#222222" font-family="Verdana" font-size="62.5" lengthAdjust="spacing" textLength="717.7083" x="6360.9375" y="2275.7543">: Analyse &#233;motionnelle</text><polygon fill="#212529" points="7428.6458,2429.4184,7439.0625,2433.5851,7428.6458,2437.7518,7432.8125,2433.5851" style="stroke:#212529;stroke-width:1.0416666666666667;"/><line style="stroke:#212529;stroke-width:3.125;" x1="5664.0625" x2="7434.8958" y1="2433.5851" y2="2433.5851"/><text fill="#222222" font-family="Verdana" font-size="62.5" font-weight="bold" lengthAdjust="spacing" textLength="158.3333" x="5681.7708" y="2407.9625">[16]</text><text fill="#222222" font-family="Verdana" font-size="62.5" lengthAdjust="spacing" textLength="1252.0833" x="5865.1042" y="2407.9625">INSERT/UPDATE Answers, Reports, etc.</text><polygon fill="#212529" points="5675.5208,2540.7934,5665.1042,2544.96,5675.5208,2549.1267,5671.3542,2544.96" style="stroke:#212529;stroke-width:1.0416666666666667;"/><line style="stroke:#212529;stroke-width:3.125;stroke-dasharray:2.0,2.0;" x1="5669.2708" x2="7445.3125" y1="2544.96" y2="2544.96"/><text fill="#222222" font-family="Verdana" font-size="62.5" font-weight="bold" lengthAdjust="spacing" textLength="158.3333" x="5692.1875" y="2519.3375">[17]</text><text fill="#222222" font-family="Verdana" font-size="62.5" lengthAdjust="spacing" textLength="216.6667" x="5875.5208" y="2519.3375">Succ&#232;s</text><polygon fill="#212529" points="7428.6458,2652.1683,7439.0625,2656.3349,7428.6458,2660.5016,7432.8125,2656.3349" style="stroke:#212529;stroke-width:1.0416666666666667;"/><line style="stroke:#212529;stroke-width:3.125;" x1="5664.0625" x2="7434.8958" y1="2656.3349" y2="2656.3349"/><text fill="#222222" font-family="Verdana" font-size="62.5" font-weight="bold" lengthAdjust="spacing" textLength="158.3333" x="5681.7708" y="2630.7124">[18]</text><text fill="#222222" font-family="Verdana" font-size="62.5" lengthAdjust="spacing" textLength="1553.125" x="5865.1042" y="2630.7124">UPDATE Sessions SET statut='analysis_complete'</text><polygon fill="#212529" points="5670.3125,2763.5432,5659.8958,2767.7099,5670.3125,2771.8765,5666.1458,2767.7099" style="stroke:#212529;stroke-width:1.0416666666666667;"/><line style="stroke:#212529;stroke-width:3.125;stroke-dasharray:2.0,2.0;" x1="5664.0625" x2="7445.3125" y1="2767.7099" y2="2767.7099"/><text fill="#222222" font-family="Verdana" font-size="62.5" font-weight="bold" lengthAdjust="spacing" textLength="158.3333" x="5686.9792" y="2742.0873">[19]</text><text fill="#222222" font-family="Verdana" font-size="62.5" lengthAdjust="spacing" textLength="216.6667" x="5870.3125" y="2742.0873">Succ&#232;s</text><!--SRC=[bLJDSjis4BxpARRimJOdbbHbv8uzgMSeIqeyepgo92U7jfF0u4f6JG7C0d3gPF8oESNFeHVhGgHbAhQc3G-aXFs-_Vbs5p-vArmWB8H3KYAAxBNIXI2nW1xEXC_Tm6WtKPyG3berurIv7DUcJgTcEX65KqO_pJip3f-sfD8PUjfqOL4Aky6BN4W0agIdn9mnN4A6C5dUVV2e9S8-37B_3sGxgHRvhKL8xQsMLsGq9aaK2U-CzejB98XVN1x_qVehhiMpM7dv704_gyowXZAa4vCRWfzRhSxir-ShuqYGKr8LGhjjaA6QuL1ftBIBm-U71wL_8lEnEcx_qkwq3rV7ByduuXKAveJAD_r-uHf2MX1VE9Kho-tp1BjZbEJ3pxqOX0t2KLGyP0ZnW1LmgBC_zUuRZus_RGaSz3TXwUWKtk8bemQviDSbgFiTg4lc6eanOynKvQWysyIzDLJYJZ17kYs1vM6K2ISkkRViBRovXpsZzV8EBUD7nhevuUHyM79wtIWA9S7-CMTy12UvuaQ1vShZeU264UJt3O-3Fkg6TGd5HOD-87MPD7ezcK9J5Af9M1XopJbg9COrNwZi-875rKRT5QlNFOABKI-Tzc62rl9iMvZqfs2TSDxzjYD2n4zAptSUs9nghmlxLSo9btBvpKOPrW6L-rAo8-Zh6wCGSW5k-LLU8Rmdhz-jd5jbtpdkmwxAzjxNKYp5BZ_hOAdyu9LplDKi_kwKQN3Qswl7hdYh-9MKIT9kjPagiN2OyOhKuMlzWlWSO3PJ8R_uVhTGWpIURAFHYEl483oVGOStIXgTeOKYznQSe0pO44Nb5DHL62_lf2-Mt-Y7bAYcgUOlDEqbDwdgs3CuzsZ3lMIV0JhPUAfL9VjeFOB0RybyeGWVDMyUrfDr6wa2SzxksbtpEr-RQc4oaOVB9kpoGrxtCPBaZShGf3nzBabOr8gRUI2Siq1RUMV3qPer9Q6j9BMwSRSoKf-fnv5kZEG4jvBw2nESFg8jxqg3nfpPV9Lyh_hfsQG_dZQhZKcr_OZ4eezNs_O_rD-oB9j1_dCVmw18ioXoTBZpu-5g_whP-XS0]--></g></svg>