<?xml version="1.0" encoding="us-ascii" standalone="no"?><svg xmlns="http://www.w3.org/2000/svg" xmlns:xlink="http://www.w3.org/1999/xlink" contentStyleType="text/css" height="2760.4167px" preserveAspectRatio="none" style="width:4015px;height:2760px;" version="1.1" viewBox="0 0 4015 2760" width="4015.625px" zoomAndPan="magnify"><defs><linearGradient id="g4adczdcwdehi0" x1="50%" x2="50%" y1="0%" y2="100%"><stop offset="0%" stop-color="#FFFFFF"/><stop offset="100%" stop-color="#FFFFFF"/></linearGradient><filter height="300%" id="f4adczdcwdehi" width="300%" x="-1" y="-1"><feGaussianBlur result="blurOut" stdDeviation="2.0833333333333335"/><feColorMatrix in="blurOut" result="blurOut2" type="matrix" values="0 0 0 0 0 0 0 0 0 0 0 0 0 0 0 0 0 0 .4 0"/><feOffset dx="4.166666666666667" dy="4.166666666666667" in="blurOut2" result="blurOut3"/><feBlend in="SourceGraphic" in2="blurOut3" mode="normal"/></filter><linearGradient id="g4adczdcwdehi1" x1="50%" x2="50%" y1="0%" y2="100%"><stop offset="0%" stop-color="#4DABF5"/><stop offset="100%" stop-color="#2196F3"/></linearGradient></defs><g><rect fill="url(#g4adczdcwdehi0)" height="102.9617" id="_title" rx="4.1667" ry="4.1667" style="stroke:#CCCCCC;stroke-width:1.0416666666666667;" width="2100" x="967.4479" y="20.8333"/><text fill="#2196F3" font-family="Verdana" font-size="57.2917" font-weight="bold" lengthAdjust="spacing" textLength="2066.6667" x="984.1146" y="95.0994">Diagramme de S&#233;quence - D&#233;roulement d'un Entretien Candidat</text><rect fill="#FFFFFF" filter="url(#f4adczdcwdehi)" height="2166.6097" style="stroke:#0A9396;stroke-width:1.0416666666666667;" width="10.4167" x="1363.5417" y="393.4199"/><rect fill="#87CEFA" filter="url(#f4adczdcwdehi)" height="92.3055" style="stroke:#0A9396;stroke-width:1.0416666666666667;" width="10.4167" x="1368.75" y="909.7529"/><rect fill="#87CEFA" filter="url(#f4adczdcwdehi)" height="178.361" style="stroke:#0A9396;stroke-width:1.0416666666666667;" width="10.4167" x="1368.75" y="1318.1554"/><rect fill="#FFFFFF" filter="url(#f4adczdcwdehi)" height="953.4993" style="stroke:#0A9396;stroke-width:1.0416666666666667;" width="10.4167" x="1368.75" y="1597.1553"/><rect fill="#FFFFFF" filter="url(#f4adczdcwdehi)" height="258.1665" style="stroke:#0A9396;stroke-width:1.0416666666666667;" width="10.4167" x="2530.2083" y="479.4754"/><rect fill="#FFFFFF" filter="url(#f4adczdcwdehi)" height="529.8747" style="stroke:#0A9396;stroke-width:1.0416666666666667;" width="10.4167" x="2530.2083" y="1934.7244"/><rect fill="#FFFFFF" filter="url(#f4adczdcwdehi)" height="86.0555" style="stroke:#0A9396;stroke-width:1.0416666666666667;" width="10.4167" x="3820.8333" y="565.5309"/><rect fill="#FFFFFF" filter="url(#f4adczdcwdehi)" height="86.0555" style="stroke:#0A9396;stroke-width:1.0416666666666667;" width="10.4167" x="3820.8333" y="2020.7799"/><rect fill="#FFFFFF" filter="url(#f4adczdcwdehi)" height="86.0555" style="stroke:#0A9396;stroke-width:1.0416666666666667;" width="10.4167" x="3820.8333" y="2292.4881"/><rect fill="url(#g4adczdcwdehi0)" filter="url(#f4adczdcwdehi)" height="487.1663" rx="4.1667" ry="4.1667" style="stroke:#2196F3;stroke-width:1.0416666666666667;" width="2514.5833" x="20.8333" y="1024.9751"/><line style="stroke:#0A9396;stroke-width:1.0416666666666667;stroke-dasharray:5.0,5.0;" x1="161.4583" x2="161.4583" y1="305.2811" y2="2569.4046"/><line style="stroke:#0A9396;stroke-width:1.0416666666666667;stroke-dasharray:5.0,5.0;" x1="1368.75" x2="1368.75" y1="305.2811" y2="2569.4046"/><line style="stroke:#0A9396;stroke-width:1.0416666666666667;stroke-dasharray:5.0,5.0;" x1="2534.8958" x2="2534.8958" y1="305.2811" y2="2569.4046"/><line style="stroke:#0A9396;stroke-width:1.0416666666666667;stroke-dasharray:5.0,5.0;" x1="3825.5208" x2="3825.5208" y1="305.2811" y2="2569.4046"/><text fill="#222222" font-family="Verdana" font-size="52.0833" lengthAdjust="spacing" textLength="233.3333" x="41.6667" y="283.9289">Candidat</text><ellipse cx="161.4583" cy="163.8575" fill="url(#g4adczdcwdehi1)" filter="url(#f4adczdcwdehi)" rx="8.3333" ry="8.3333" style="stroke:#005F73;stroke-width:1.0416666666666667;"/><path d="M161.4583,172.1909 L161.4583,200.3159 M147.9167,180.5242 L175,180.5242 M161.4583,200.3159 L147.9167,215.9409 M161.4583,200.3159 L175,215.9409 " fill="none" filter="url(#f4adczdcwdehi)" style="stroke:#005F73;stroke-width:1.0416666666666667;"/><text fill="#222222" font-family="Verdana" font-size="52.0833" lengthAdjust="spacing" textLength="233.3333" x="41.6667" y="2631.1427">Candidat</text><ellipse cx="161.4583" cy="2661.8698" fill="url(#g4adczdcwdehi1)" filter="url(#f4adczdcwdehi)" rx="8.3333" ry="8.3333" style="stroke:#005F73;stroke-width:1.0416666666666667;"/><path d="M161.4583,2670.2031 L161.4583,2698.3281 M147.9167,2678.5365 L175,2678.5365 M161.4583,2698.3281 L147.9167,2713.9531 M161.4583,2698.3281 L175,2713.9531 " fill="none" filter="url(#f4adczdcwdehi)" style="stroke:#005F73;stroke-width:1.0416666666666667;"/><rect fill="url(#g4adczdcwdehi1)" filter="url(#f4adczdcwdehi)" height="136.6943" rx="4.1667" ry="4.1667" style="stroke:#005F73;stroke-width:1.0416666666666667;" width="463.5417" x="1135.4167" y="164.4201"/><text fill="#FFFFFF" font-family="Verdana" font-size="41.6667" lengthAdjust="spacing" textLength="186.4583" x="1273.9583" y="224.0189">Frontend</text><text fill="#FFFFFF" font-family="Verdana" font-size="41.6667" lengthAdjust="spacing" textLength="428.125" x="1153.125" y="274.6577">(InterviewView.vue)</text><rect fill="url(#g4adczdcwdehi1)" filter="url(#f4adczdcwdehi)" height="136.6943" rx="4.1667" ry="4.1667" style="stroke:#005F73;stroke-width:1.0416666666666667;" width="463.5417" x="1135.4167" y="2568.3629"/><text fill="#FFFFFF" font-family="Verdana" font-size="41.6667" lengthAdjust="spacing" textLength="186.4583" x="1273.9583" y="2627.9617">Frontend</text><text fill="#FFFFFF" font-family="Verdana" font-size="41.6667" lengthAdjust="spacing" textLength="428.125" x="1153.125" y="2678.6006">(InterviewView.vue)</text><rect fill="url(#g4adczdcwdehi1)" filter="url(#f4adczdcwdehi)" height="136.6943" rx="4.1667" ry="4.1667" style="stroke:#005F73;stroke-width:1.0416666666666667;" width="212.5" x="2427.6042" y="164.4201"/><text fill="#FFFFFF" font-family="Verdana" font-size="41.6667" lengthAdjust="spacing" textLength="177.0833" x="2445.3125" y="224.0189">API Web</text><text fill="#FFFFFF" font-family="Verdana" font-size="41.6667" lengthAdjust="spacing" textLength="145.8333" x="2460.9375" y="274.6577">(Flask)</text><rect fill="url(#g4adczdcwdehi1)" filter="url(#f4adczdcwdehi)" height="136.6943" rx="4.1667" ry="4.1667" style="stroke:#005F73;stroke-width:1.0416666666666667;" width="212.5" x="2427.6042" y="2568.3629"/><text fill="#FFFFFF" font-family="Verdana" font-size="41.6667" lengthAdjust="spacing" textLength="177.0833" x="2445.3125" y="2627.9617">API Web</text><text fill="#FFFFFF" font-family="Verdana" font-size="41.6667" lengthAdjust="spacing" textLength="145.8333" x="2460.9375" y="2678.6006">(Flask)</text><text fill="#222222" font-family="Verdana" font-size="41.6667" lengthAdjust="spacing" textLength="361.4583" x="3642.1875" y="235.4772">Base de Donn&#233;es</text><text fill="#222222" font-family="Verdana" font-size="41.6667" lengthAdjust="spacing" textLength="278.125" x="3683.8542" y="286.116">(PostgreSQL)</text><path d="M3807.2917,145.6701 C3807.2917,135.2534 3826.0417,135.2534 3826.0417,135.2534 C3826.0417,135.2534 3844.7917,135.2534 3844.7917,145.6701 L3844.7917,172.7534 C3844.7917,183.1701 3826.0417,183.1701 3826.0417,183.1701 C3826.0417,183.1701 3807.2917,183.1701 3807.2917,172.7534 L3807.2917,145.6701 " fill="url(#g4adczdcwdehi1)" filter="url(#f4adczdcwdehi)" style="stroke:#2196F3;stroke-width:1.5625;"/><path d="M3807.2917,145.6701 C3807.2917,156.0867 3826.0417,156.0867 3826.0417,156.0867 C3826.0417,156.0867 3844.7917,156.0867 3844.7917,145.6701 " fill="none" style="stroke:#2196F3;stroke-width:1.5625;"/><text fill="#222222" font-family="Verdana" font-size="41.6667" lengthAdjust="spacing" textLength="361.4583" x="3642.1875" y="2620.6701">Base de Donn&#233;es</text><text fill="#222222" font-family="Verdana" font-size="41.6667" lengthAdjust="spacing" textLength="278.125" x="3683.8542" y="2671.3089">(PostgreSQL)</text><path d="M3807.2917,2700.8906 C3807.2917,2690.4739 3826.0417,2690.4739 3826.0417,2690.4739 C3826.0417,2690.4739 3844.7917,2690.4739 3844.7917,2700.8906 L3844.7917,2727.9739 C3844.7917,2738.3906 3826.0417,2738.3906 3826.0417,2738.3906 C3826.0417,2738.3906 3807.2917,2738.3906 3807.2917,2727.9739 L3807.2917,2700.8906 " fill="url(#g4adczdcwdehi1)" filter="url(#f4adczdcwdehi)" style="stroke:#2196F3;stroke-width:1.5625;"/><path d="M3807.2917,2700.8906 C3807.2917,2711.3073 3826.0417,2711.3073 3826.0417,2711.3073 C3826.0417,2711.3073 3844.7917,2711.3073 3844.7917,2700.8906 " fill="none" style="stroke:#2196F3;stroke-width:1.5625;"/><rect fill="#FFFFFF" filter="url(#f4adczdcwdehi)" height="2166.6097" style="stroke:#0A9396;stroke-width:1.0416666666666667;" width="10.4167" x="1363.5417" y="393.4199"/><rect fill="#87CEFA" filter="url(#f4adczdcwdehi)" height="92.3055" style="stroke:#0A9396;stroke-width:1.0416666666666667;" width="10.4167" x="1368.75" y="909.7529"/><rect fill="#87CEFA" filter="url(#f4adczdcwdehi)" height="178.361" style="stroke:#0A9396;stroke-width:1.0416666666666667;" width="10.4167" x="1368.75" y="1318.1554"/><rect fill="#FFFFFF" filter="url(#f4adczdcwdehi)" height="953.4993" style="stroke:#0A9396;stroke-width:1.0416666666666667;" width="10.4167" x="1368.75" y="1597.1553"/><rect fill="#FFFFFF" filter="url(#f4adczdcwdehi)" height="258.1665" style="stroke:#0A9396;stroke-width:1.0416666666666667;" width="10.4167" x="2530.2083" y="479.4754"/><rect fill="#FFFFFF" filter="url(#f4adczdcwdehi)" height="529.8747" style="stroke:#0A9396;stroke-width:1.0416666666666667;" width="10.4167" x="2530.2083" y="1934.7244"/><rect fill="#FFFFFF" filter="url(#f4adczdcwdehi)" height="86.0555" style="stroke:#0A9396;stroke-width:1.0416666666666667;" width="10.4167" x="3820.8333" y="565.5309"/><rect fill="#FFFFFF" filter="url(#f4adczdcwdehi)" height="86.0555" style="stroke:#0A9396;stroke-width:1.0416666666666667;" width="10.4167" x="3820.8333" y="2020.7799"/><rect fill="#FFFFFF" filter="url(#f4adczdcwdehi)" height="86.0555" style="stroke:#0A9396;stroke-width:1.0416666666666667;" width="10.4167" x="3820.8333" y="2292.4881"/><polygon fill="#212529" points="1351.0417,389.2532,1361.4583,393.4199,1351.0417,397.5866,1355.2083,393.4199" style="stroke:#212529;stroke-width:1.0416666666666667;"/><line style="stroke:#212529;stroke-width:3.125;" x1="161.4583" x2="1357.2917" y1="393.4199" y2="393.4199"/><text fill="#222222" font-family="Verdana" font-size="41.6667" font-weight="bold" lengthAdjust="spacing" textLength="75" x="179.1667" y="372.1715">[1]</text><text fill="#222222" font-family="Verdana" font-size="41.6667" lengthAdjust="spacing" textLength="729.1667" x="279.1667" y="372.1715">Arrive sur la page /interview/&lt;id&gt;</text><polygon fill="#212529" points="2517.7083,475.3087,2528.125,479.4754,2517.7083,483.6421,2521.875,479.4754" style="stroke:#212529;stroke-width:1.0416666666666667;"/><line style="stroke:#212529;stroke-width:3.125;" x1="1373.9583" x2="2523.9583" y1="479.4754" y2="479.4754"/><text fill="#222222" font-family="Verdana" font-size="41.6667" font-weight="bold" lengthAdjust="spacing" textLength="75" x="1391.6667" y="458.227">[2]</text><text fill="#222222" font-family="Verdana" font-size="41.6667" lengthAdjust="spacing" textLength="700" x="1491.6667" y="458.227">GET /api/session/&lt;id&gt;/questions</text><polygon fill="#212529" points="3808.3333,561.3642,3818.75,565.5309,3808.3333,569.6976,3812.5,565.5309" style="stroke:#212529;stroke-width:1.0416666666666667;"/><line style="stroke:#212529;stroke-width:3.125;" x1="2540.625" x2="3814.5833" y1="565.5309" y2="565.5309"/><text fill="#222222" font-family="Verdana" font-size="41.6667" font-weight="bold" lengthAdjust="spacing" textLength="75" x="2558.3333" y="544.2825">[3]</text><text fill="#222222" font-family="Verdana" font-size="41.6667" lengthAdjust="spacing" textLength="763.5417" x="2658.3333" y="544.2825">SELECT Questions WHERE id IN (...)</text><polygon fill="#212529" points="2552.0833,647.4197,2541.6667,651.5864,2552.0833,655.7531,2547.9167,651.5864" style="stroke:#212529;stroke-width:1.0416666666666667;"/><line style="stroke:#212529;stroke-width:3.125;stroke-dasharray:2.0,2.0;" x1="2545.8333" x2="3825" y1="651.5864" y2="651.5864"/><text fill="#222222" font-family="Verdana" font-size="41.6667" font-weight="bold" lengthAdjust="spacing" textLength="75" x="2568.75" y="630.338">[4]</text><text fill="#222222" font-family="Verdana" font-size="41.6667" lengthAdjust="spacing" textLength="402.0833" x="2668.75" y="630.338">Liste des questions</text><polygon fill="#212529" points="1385.4167,733.4752,1375,737.6419,1385.4167,741.8086,1381.25,737.6419" style="stroke:#212529;stroke-width:1.0416666666666667;"/><line style="stroke:#212529;stroke-width:3.125;stroke-dasharray:2.0,2.0;" x1="1379.1667" x2="2534.375" y1="737.6419" y2="737.6419"/><text fill="#222222" font-family="Verdana" font-size="41.6667" font-weight="bold" lengthAdjust="spacing" textLength="75" x="1402.0833" y="716.3935">[5]</text><text fill="#222222" font-family="Verdana" font-size="41.6667" lengthAdjust="spacing" textLength="413.5417" x="1502.0833" y="716.3935">JSON des questions</text><polygon fill="#212529" points="172.9167,819.5307,162.5,823.6974,172.9167,827.8641,168.75,823.6974" style="stroke:#212529;stroke-width:1.0416666666666667;"/><line style="stroke:#212529;stroke-width:3.125;" x1="166.6667" x2="1362.5" y1="823.6974" y2="823.6974"/><text fill="#222222" font-family="Verdana" font-size="41.6667" font-weight="bold" lengthAdjust="spacing" textLength="75" x="189.5833" y="802.449">[6]</text><text fill="#222222" font-family="Verdana" font-size="41.6667" lengthAdjust="spacing" textLength="592.7083" x="289.5833" y="802.449">Affiche la premi&#232;re question</text><polygon fill="#212529" points="1356.25,905.5862,1366.6667,909.7529,1356.25,913.9196,1360.4167,909.7529" style="stroke:#212529;stroke-width:1.0416666666666667;"/><line style="stroke:#212529;stroke-width:3.125;" x1="161.4583" x2="1362.5" y1="909.7529" y2="909.7529"/><text fill="#222222" font-family="Verdana" font-size="41.6667" font-weight="bold" lengthAdjust="spacing" textLength="75" x="179.1667" y="888.5045">[7]</text><text fill="#222222" font-family="Verdana" font-size="41.6667" lengthAdjust="spacing" textLength="825" x="279.1667" y="888.5045">Clique sur "D&#233;marrer l'enregistrement"</text><line style="stroke:#212529;stroke-width:3.125;" x1="1379.1667" x2="1422.9167" y1="1001.0167" y2="1001.0167"/><line style="stroke:#212529;stroke-width:3.125;" x1="1422.9167" x2="1422.9167" y1="1001.0167" y2="1014.5584"/><line style="stroke:#212529;stroke-width:3.125;" x1="1373.9583" x2="1422.9167" y1="1014.5584" y2="1014.5584"/><polygon fill="#212529" points="1384.375,1010.3917,1373.9583,1014.5584,1384.375,1018.7251,1380.2083,1014.5584" style="stroke:#212529;stroke-width:1.0416666666666667;"/><text fill="#222222" font-family="Verdana" font-size="41.6667" font-weight="bold" lengthAdjust="spacing" textLength="75" x="1396.875" y="979.7684">[8]</text><text fill="#222222" font-family="Verdana" font-size="41.6667" lengthAdjust="spacing" textLength="746.875" x="1496.875" y="979.7684">recordEvent({q_id, timestamp: 0})</text><path d="M25,1024.9751 L188.5417,1024.9751 L188.5417,1088.1139 L178.125,1098.5306 L20.8333,1098.5306 L20.8333,1029.1417 A4.1667,4.1667 0 0 1 25,1024.9751 " fill="#FFFFFF" style="stroke:#666666;stroke-width:1.0416666666666667;"/><rect fill="none" height="487.1663" rx="4.1667" ry="4.1667" style="stroke:#2196F3;stroke-width:1.0416666666666667;" width="2514.5833" x="20.8333" y="1024.9751"/><text fill="#005F73" font-family="Verdana" font-size="41.6667" font-weight="bold" lengthAdjust="spacing" textLength="100" x="46.875" y="1078.3239">loop</text><text fill="#222222" font-family="Verdana" font-size="41.6667" font-weight="bold" lengthAdjust="spacing" textLength="559.375" x="214.5833" y="1079.3655">[Pour chaque question]</text><polygon fill="#212529" points="1351.0417,1227.9332,1361.4583,1232.0999,1351.0417,1236.2666,1355.2083,1232.0999" style="stroke:#212529;stroke-width:1.0416666666666667;"/><line style="stroke:#212529;stroke-width:3.125;" x1="161.4583" x2="1357.2917" y1="1232.0999" y2="1232.0999"/><text fill="#222222" font-family="Verdana" font-size="41.6667" font-weight="bold" lengthAdjust="spacing" textLength="75" x="179.1667" y="1210.8515">[9]</text><text fill="#222222" font-family="Verdana" font-size="41.6667" lengthAdjust="spacing" textLength="442.7083" x="279.1667" y="1210.8515">R&#233;pond &#224; la question</text><polygon fill="#212529" points="1356.25,1313.9887,1366.6667,1318.1554,1356.25,1322.3221,1360.4167,1318.1554" style="stroke:#212529;stroke-width:1.0416666666666667;"/><line style="stroke:#212529;stroke-width:3.125;" x1="161.4583" x2="1362.5" y1="1318.1554" y2="1318.1554"/><text fill="#222222" font-family="Verdana" font-size="41.6667" font-weight="bold" lengthAdjust="spacing" textLength="104.1667" x="179.1667" y="1296.907">[10]</text><text fill="#222222" font-family="Verdana" font-size="41.6667" lengthAdjust="spacing" textLength="422.9167" x="308.3333" y="1296.907">Clique sur "Suivant"</text><polygon fill="#212529" points="172.9167,1400.0443,162.5,1404.2109,172.9167,1408.3776,168.75,1404.2109" style="stroke:#212529;stroke-width:1.0416666666666667;"/><line style="stroke:#212529;stroke-width:3.125;" x1="166.6667" x2="1367.7083" y1="1404.2109" y2="1404.2109"/><text fill="#222222" font-family="Verdana" font-size="41.6667" font-weight="bold" lengthAdjust="spacing" textLength="104.1667" x="189.5833" y="1382.9625">[11]</text><text fill="#222222" font-family="Verdana" font-size="41.6667" lengthAdjust="spacing" textLength="581.25" x="318.75" y="1382.9625">Affiche la question suivante</text><line style="stroke:#212529;stroke-width:3.125;" x1="1379.1667" x2="1422.9167" y1="1495.4748" y2="1495.4748"/><line style="stroke:#212529;stroke-width:3.125;" x1="1422.9167" x2="1422.9167" y1="1495.4748" y2="1509.0164"/><line style="stroke:#212529;stroke-width:3.125;" x1="1373.9583" x2="1422.9167" y1="1509.0164" y2="1509.0164"/><polygon fill="#212529" points="1384.375,1504.8498,1373.9583,1509.0164,1384.375,1513.1831,1380.2083,1509.0164" style="stroke:#212529;stroke-width:1.0416666666666667;"/><text fill="#222222" font-family="Verdana" font-size="41.6667" font-weight="bold" lengthAdjust="spacing" textLength="104.1667" x="1396.875" y="1474.2264">[12]</text><text fill="#222222" font-family="Verdana" font-size="41.6667" lengthAdjust="spacing" textLength="986.4583" x="1526.0417" y="1474.2264">recordEvent({q_id, timestamp: elapsedTime})</text><polygon fill="#212529" points="1356.25,1592.9886,1366.6667,1597.1553,1356.25,1601.3219,1360.4167,1597.1553" style="stroke:#212529;stroke-width:1.0416666666666667;"/><line style="stroke:#212529;stroke-width:3.125;" x1="161.4583" x2="1362.5" y1="1597.1553" y2="1597.1553"/><text fill="#222222" font-family="Verdana" font-size="41.6667" font-weight="bold" lengthAdjust="spacing" textLength="104.1667" x="179.1667" y="1575.9069">[13]</text><text fill="#222222" font-family="Verdana" font-size="41.6667" lengthAdjust="spacing" textLength="777.0833" x="308.3333" y="1575.9069">Clique sur "Terminer cette tentative"</text><line style="stroke:#212529;stroke-width:3.125;" x1="1379.1667" x2="1422.9167" y1="1784.4884" y2="1784.4884"/><line style="stroke:#212529;stroke-width:3.125;" x1="1422.9167" x2="1422.9167" y1="1784.4884" y2="1798.0301"/><line style="stroke:#212529;stroke-width:3.125;" x1="1380.2083" x2="1422.9167" y1="1798.0301" y2="1798.0301"/><polygon fill="#212529" points="1390.625,1793.8634,1380.2083,1798.0301,1390.625,1802.1968,1386.4583,1798.0301" style="stroke:#212529;stroke-width:1.0416666666666667;"/><text fill="#222222" font-family="Verdana" font-size="41.6667" font-weight="bold" lengthAdjust="spacing" textLength="104.1667" x="1396.875" y="1712.6012">[14]</text><text fill="#222222" font-family="Verdana" font-size="41.6667" lengthAdjust="spacing" textLength="456.25" x="1526.0417" y="1661.9624">Arr&#234;te MediaRecorder</text><text fill="#222222" font-family="Verdana" font-size="41.6667" lengthAdjust="spacing" textLength="414.5833" x="1526.0417" y="1712.6012">Cr&#233;e un fichier Blob</text><text fill="#222222" font-family="Verdana" font-size="41.6667" lengthAdjust="spacing" textLength="384.375" x="1526.0417" y="1763.2401">Cr&#233;e un FormData</text><polygon fill="#212529" points="2517.7083,1930.5578,2528.125,1934.7244,2517.7083,1938.8911,2521.875,1934.7244" style="stroke:#212529;stroke-width:1.0416666666666667;"/><line style="stroke:#212529;stroke-width:3.125;" x1="1379.1667" x2="2523.9583" y1="1934.7244" y2="1934.7244"/><text fill="#222222" font-family="Verdana" font-size="41.6667" font-weight="bold" lengthAdjust="spacing" textLength="104.1667" x="1396.875" y="1888.1566">[15]</text><text fill="#222222" font-family="Verdana" font-size="41.6667" lengthAdjust="spacing" textLength="493.75" x="1526.0417" y="1862.8372">POST /api/upload/&lt;id&gt;</text><text fill="#222222" font-family="Verdana" font-size="41.6667" lengthAdjust="spacing" textLength="945.8333" x="1526.0417" y="1913.4761">(Multipart: Fichier Vid&#233;o + JSON des events)</text><polygon fill="#212529" points="3808.3333,2016.6133,3818.75,2020.7799,3808.3333,2024.9466,3812.5,2020.7799" style="stroke:#212529;stroke-width:1.0416666666666667;"/><line style="stroke:#212529;stroke-width:3.125;" x1="2540.625" x2="3814.5833" y1="2020.7799" y2="2020.7799"/><text fill="#222222" font-family="Verdana" font-size="41.6667" font-weight="bold" lengthAdjust="spacing" textLength="104.1667" x="2558.3333" y="1999.5316">[16]</text><text fill="#222222" font-family="Verdana" font-size="41.6667" lengthAdjust="spacing" textLength="644.7917" x="2687.5" y="1999.5316">V&#233;rifie les tentatives restantes</text><polygon fill="#212529" points="2552.0833,2102.6688,2541.6667,2106.8354,2552.0833,2111.0021,2547.9167,2106.8354" style="stroke:#212529;stroke-width:1.0416666666666667;"/><line style="stroke:#212529;stroke-width:3.125;stroke-dasharray:2.0,2.0;" x1="2545.8333" x2="3825" y1="2106.8354" y2="2106.8354"/><text fill="#222222" font-family="Verdana" font-size="41.6667" font-weight="bold" lengthAdjust="spacing" textLength="104.1667" x="2568.75" y="2085.5871">[17]</text><text fill="#222222" font-family="Verdana" font-size="41.6667" lengthAdjust="spacing" textLength="61.4583" x="2697.9167" y="2085.5871">OK</text><line style="stroke:#212529;stroke-width:3.125;" x1="2540.625" x2="2584.375" y1="2192.8909" y2="2192.8909"/><line style="stroke:#212529;stroke-width:3.125;" x1="2584.375" x2="2584.375" y1="2192.8909" y2="2206.4326"/><line style="stroke:#212529;stroke-width:3.125;" x1="2541.6667" x2="2584.375" y1="2206.4326" y2="2206.4326"/><polygon fill="#212529" points="2552.0833,2202.2659,2541.6667,2206.4326,2552.0833,2210.5993,2547.9167,2206.4326" style="stroke:#212529;stroke-width:1.0416666666666667;"/><text fill="#222222" font-family="Verdana" font-size="41.6667" font-weight="bold" lengthAdjust="spacing" textLength="104.1667" x="2558.3333" y="2171.6426">[18]</text><text fill="#222222" font-family="Verdana" font-size="41.6667" lengthAdjust="spacing" textLength="858.3333" x="2687.5" y="2171.6426">Sauvegarde le fichier vid&#233;o sur le disque</text><polygon fill="#212529" points="3808.3333,2288.3214,3818.75,2292.4881,3808.3333,2296.6548,3812.5,2292.4881" style="stroke:#212529;stroke-width:1.0416666666666667;"/><line style="stroke:#212529;stroke-width:3.125;" x1="2540.625" x2="3814.5833" y1="2292.4881" y2="2292.4881"/><text fill="#222222" font-family="Verdana" font-size="41.6667" font-weight="bold" lengthAdjust="spacing" textLength="104.1667" x="2558.3333" y="2271.2397">[19]</text><text fill="#222222" font-family="Verdana" font-size="41.6667" lengthAdjust="spacing" textLength="1110.4167" x="2687.5" y="2271.2397">UPDATE Sessions SET fichier_video, events_timeline</text><polygon fill="#212529" points="2552.0833,2374.3769,2541.6667,2378.5436,2552.0833,2382.7103,2547.9167,2378.5436" style="stroke:#212529;stroke-width:1.0416666666666667;"/><line style="stroke:#212529;stroke-width:3.125;stroke-dasharray:2.0,2.0;" x1="2545.8333" x2="3825" y1="2378.5436" y2="2378.5436"/><text fill="#222222" font-family="Verdana" font-size="41.6667" font-weight="bold" lengthAdjust="spacing" textLength="104.1667" x="2568.75" y="2357.2952">[20]</text><text fill="#222222" font-family="Verdana" font-size="41.6667" lengthAdjust="spacing" textLength="144.7917" x="2697.9167" y="2357.2952">Succ&#232;s</text><polygon fill="#212529" points="1390.625,2460.4324,1380.2083,2464.5991,1390.625,2468.7658,1386.4583,2464.5991" style="stroke:#212529;stroke-width:1.0416666666666667;"/><line style="stroke:#212529;stroke-width:3.125;stroke-dasharray:2.0,2.0;" x1="1384.375" x2="2534.375" y1="2464.5991" y2="2464.5991"/><text fill="#222222" font-family="Verdana" font-size="41.6667" font-weight="bold" lengthAdjust="spacing" textLength="104.1667" x="1407.2917" y="2443.3507">[21]</text><text fill="#222222" font-family="Verdana" font-size="41.6667" font-weight="bold" lengthAdjust="spacing" textLength="169.7917" x="1536.4583" y="2443.3507">200 OK</text><text fill="#222222" font-family="Verdana" font-size="41.6667" lengthAdjust="spacing" textLength="488.5417" x="1720.8333" y="2443.3507">(Tentative enregistr&#233;e)</text><polygon fill="#212529" points="172.9167,2546.4879,162.5,2550.6546,172.9167,2554.8213,168.75,2550.6546" style="stroke:#212529;stroke-width:1.0416666666666667;"/><line style="stroke:#212529;stroke-width:3.125;" x1="166.6667" x2="1362.5" y1="2550.6546" y2="2550.6546"/><text fill="#222222" font-family="Verdana" font-size="41.6667" font-weight="bold" lengthAdjust="spacing" textLength="104.1667" x="189.5833" y="2529.4062">[22]</text><text fill="#222222" font-family="Verdana" font-size="41.6667" lengthAdjust="spacing" textLength="1027.0833" x="318.75" y="2529.4062">Affiche "Tentative enregistr&#233;e ! Recommencer ?"</text><!--SRC=[XLN1RjD04BtxAmPpe0cq2OM2Mg6YEdPA8RIX3kK0gDhOatHLUzViheEWwhzm9Fo6VunPnt4Sb8X8YQATUJFlpSwp7vWRJ15IPb1nvZZwbekCAPQ2ZnEM9wOlXGdvJuJdtKPmn4s2TUZWe17giSnmALR19kvS6jmSEOcCL9j37pL6JA_X7CTO1j1k-vnDAOaqn0XXCV-MeuWGTi4lvahc2QaJ1k97kO1068M6eo2E8kOnC-ssux3SI96dOrJWlXeVV-v-THkzDLO5xnoWJydIaof6rPE9LF2mspsOl7nM1eTC6HxnZ0cpBMN09pZW0jVZxF3PuOj5VQNaz-fu_-d-mVvXUNnAIh8to0XZfx1UzvuqM5grAc0QUawsOWDkNn4CHVn5x9pH7pNZ-FsAldkp75kk1VI3TSJ9y0m-uPW0_OJfsqMI5pXKdutfDi3rx2yDtPT257FKb3gKsamLXXy6YtpVSvmUx1vJzIEhZSyGTAuWOP2nAKA7BybqNl7usEhWCrf5oyRf1nRf4V8q6467PRoZKMlQhJAvGnUZxQRf5OpuUINAzuuW30P1RmGVbcdmwKrm6G2FuUmSTlRszbeh817rFTYj-WsuDbQQXbMF69l9jaibwsruSRuzrwk5z6W2amcFRh2Khp3bnM-5DQmngLx2wRISb4jhd3AbQ3kJHoWKJecRAfVQROuB7WxuzCQ4jp-y9CUgfQsbCA9T2sO4sBdxTitZ9s1uIYrPcXr1zxxLP6l7daYPmL1Ix-Y6MHerGRk9DSVBOfv94KFnoyhPdDFK4URKmfAs6Tk9s-YcUIqRKB6oJZFp_p8nOPd6U4Gd9DWYrqMJCxQCVuGg9R_ICD1GBdd8CCAXksbNgoql_j3fUumvkonPeVeYUeei0lGGieeurVCIEMuSzwLAVR9MS-s75s6rztcMI1QNQqykUq-FPMxDUWJzgjeLZukvXCUhRKGx2jrQyqR375VqTEGJJhEbt5gLfZdIo6YyUfitBjxzOuMgg8s5B9_Xb95YAbihdIsubRudLt5Dmsqm-JZqJqO1X0jhQxBjQ0cz9YZA9vMMQtkX2Lt6DcfX7aN5Rxs9NtKvxVP-jqiIsctO6Ir5GsqhkelMVythRWR20x2tJIyYUbieUEt-uwk_]--></g></svg>